<?xml version="1.0" encoding="utf-8"?>
<!-- Generator: Adobe Illustrator 15.0.0, SVG Export Plug-In . SVG Version: 6.00 Build 0)  -->
<!DOCTYPE svg PUBLIC "-//W3C//DTD SVG 1.1//EN" "../../../../www.w3.org/Graphics/SVG/1.1/DTD/svg11.dtd">
<svg version="1.1" id="Layer_1" xmlns="http://www.w3.org/2000/svg" xmlns:xlink="../../../../www.w3.org/1999/xlink" x="0px" y="0px"
	 width="144px" height="66px" viewBox="0 0 144 66" enable-background="new 0 0 144 66" xml:space="preserve">
<g>
	<g>
		<path fill-rule="evenodd" clip-rule="evenodd" fill="#282828" d="M33.582,26.943c2.526,0.013,6.52-0.026,6.52-0.026
			c0-1.99-1.201-3.881-2.977-4.484C37.006,25.84,34.765,26.584,33.582,26.943z M30.502,26.879c0.154-0.446,0.237-0.768,0.237-1.266
			c0-2.413-1.956-4.37-4.37-4.37c-2.413,0-4.369,1.957-4.369,4.37c0,0.476,0.076,0.934,0.217,1.363
			C22.217,26.977,30.465,26.989,30.502,26.879z M31.727,26.438c2.339,0,4.328-1.865,4.328-4.204c0-2.338-1.896-4.234-4.234-4.234
			c-1.78,0-3.304,1.099-3.93,2.654C31.689,21.064,32.262,24.438,31.727,26.438z M31.082,45.938L39.957,28H22.082L31.082,45.938z"/>
	</g>
</g>
<g>
	<g>
		<path fill-rule="evenodd" clip-rule="evenodd" fill="#FFFFFF" d="M115.582,26.943c2.526,0.013,6.52-0.026,6.52-0.026
			c0-1.99-1.201-3.881-2.977-4.484C119.006,25.84,116.765,26.584,115.582,26.943z M112.502,26.879
			c0.154-0.446,0.237-0.768,0.237-1.266c0-2.413-1.956-4.37-4.37-4.37c-2.413,0-4.369,1.957-4.369,4.37
			c0,0.476,0.076,0.934,0.217,1.363C104.217,26.977,112.465,26.989,112.502,26.879z M113.727,26.438
			c2.339,0,4.328-1.865,4.328-4.204c0-2.338-1.896-4.234-4.234-4.234c-1.78,0-3.304,1.099-3.93,2.654
			C113.689,21.064,114.262,24.438,113.727,26.438z M113.082,45.938L121.957,28h-17.875L113.082,45.938z"/>
	</g>
</g>
</svg>
