<?xml version="1.0" encoding="utf-8"?>
<!-- Generator: Adobe Illustrator 15.0.0, SVG Export Plug-In . SVG Version: 6.00 Build 0)  -->
<!DOCTYPE svg PUBLIC "-//W3C//DTD SVG 1.1//EN" "../../../../www.w3.org/Graphics/SVG/1.1/DTD/svg11.dtd">
<svg version="1.1" id="Layer_1" xmlns="http://www.w3.org/2000/svg" xmlns:xlink="../../../../www.w3.org/1999/xlink" x="0px" y="0px"
	 width="144px" height="66px" viewBox="0 0 144 66" enable-background="new 0 0 144 66" xml:space="preserve">
<g>
	<g>
		<path fill-rule="evenodd" clip-rule="evenodd" fill="#282828" d="M35.954,40.041h-0.867l-0.38,1.94h0.831
			c0.453,0,0.904-0.486,1.014-0.939C36.678,40.591,36.389,40.041,35.954,40.041z M44.116,38.048l-0.127,0.561l-0.471,2.24
			c-0.09-0.145-0.198-0.271-0.324-0.38c-0.308-0.271-0.705-0.452-1.14-0.542c-0.38-0.091-0.777-0.127-1.157-0.109
			c-0.705,0-1.283,0.146-1.736,0.254c-0.162,0.036-0.18,0.036-0.234,0.055c-0.018,0-0.018,0-0.018,0l-0.038,0.013
			c0.013,0.062,0.008,0.074-0.017,0.005l0.017-0.005c-0.062-0.302-0.579-1.864-1.734-2.009c-0.198-0.037-0.38-0.055-0.561-0.055
			h-3.599l-0.307,1.95h-1.989l-0.217,0.28l-0.524,0.851l-0.055-0.542l-0.072-0.589h-2.332l-0.85,0.094l0.054,0.361
			c-0.271-0.198-0.614-0.325-0.977-0.397c-0.361-0.091-0.759-0.127-1.139-0.108c-0.724,0-1.284,0.145-1.735,0.253
			c-0.163,0.036-0.182,0.036-0.254,0.055c0,0,0,0-0.018,0L22.509,40.3c0.117,0.396-0.804-1.955-1.699-2.17
			c-2.193-0.229-4.24-0.086-4.24-0.086L15,46h3.224l0.127-0.559l0.307-1.41h0.688c0.597,0,1.157-0.127,1.646-0.397
			c-0.108,0.578-0.036,1.066,0.163,1.445C21.352,45.495,22,46,23.666,46h0.669l1.646,0.002h0.579l0.126-0.561l0.47-2.098
			l0.254,1.591l-1.066,1.628L25.601,48h3.617l0.198-0.66l2.459-3.852l-0.361,1.646L31.314,46h3.237l0.126-0.559l0.325-1.41h0.669
			c0.614,0,0.832-0.127,1.32-0.397c-0.196,1.045,0.651,2.045,1.29,2.296c0.7,0.295,1.538,0.116,1.713,0.07h-0.002
			c0.06-0.018,0.048-0.012,0.002,0h0.685l1.627,0.002L42.362,46h2.658l0.578,0.002l0.127-0.561l1.259-6.508l0.199-0.886H44.116z
			 M19.345,43.058h-1.266l-0.434,1.939h-1.522l1.275-5.98l2.832,0.032c0.886,0,1.917,0.914,1.609,2.306
			C21.569,42.585,20.556,43.058,19.345,43.058z M26.623,42.169l-0.643,2.859h-1.646l0.108-0.376
			c-0.806,0.537-2.936,1.06-2.573-0.893c0.252-1.14,1.326-1.501,3.152-1.501c0.108-0.506-0.254-0.633-0.868-0.614
			c-0.614,0.018-1.356,0.217-1.573,0.325l0.145-0.92c0.452-0.091,1.067-0.29,1.845-0.29C25.709,40.742,26.912,40.849,26.623,42.169z
			 M28.538,46.96h-1.443l1.229-1.844L27.7,40.999h1.463l0.271,2.309l1.645-2.277h1.455L28.538,46.96z M35.595,43.058h-1.266
			l-0.434,1.939h-1.522l1.275-5.98l2.832,0.032c0.886,0,1.917,0.914,1.609,2.306C37.819,42.585,36.806,43.058,35.595,43.058z
			 M42.779,42.169l-0.643,2.859h-1.646l0.108-0.376c-0.806,0.537-2.936,1.06-2.573-0.893c0.252-1.14,1.326-1.501,3.152-1.501
			c0.108-0.506-0.254-0.633-0.868-0.614c-0.614,0.018-1.356,0.217-1.573,0.325l0.145-0.92c0.452-0.091,1.066-0.29,1.845-0.29
			C41.866,40.742,43.068,40.849,42.779,42.169z M44.864,45.06h-1.598l1.428-6.039h1.429L44.864,45.06z M23.614,43.375
			c-0.236,0.361,0.072,0.669,0.434,0.651c0.416-0.019,0.777-0.199,0.867-0.615c0.019-0.145,0.055-0.271,0.091-0.416H24.59
			C24.301,42.995,23.794,43.067,23.614,43.375z M39.614,43.375c-0.236,0.361,0.072,0.669,0.434,0.651
			c0.416-0.019,0.777-0.199,0.867-0.615c0.019-0.145,0.055-0.271,0.091-0.416H40.59C40.301,42.995,39.794,43.067,39.614,43.375z
			 M19.579,40.01h-0.867l-0.38,1.972h0.831c0.453,0,0.904-0.486,1.014-0.939C20.303,40.591,20.014,40.01,19.579,40.01z M30.433,30
			h4.469c4.275,0,7.975-2.153,8.933-6.493C44.919,18.593,41.155,16,38.028,16H27.589v0.344L22.866,36h6.035L30.433,30z
			 M32.667,20.362h3.064c1.531,0,2.553,1.526,2.105,3.122c-0.383,1.596-1.979,2.792-3.574,2.792h-2.936L32.667,20.362z"/>
	</g>
</g>
<g>
	<g>
		<path fill-rule="evenodd" clip-rule="evenodd" fill="#FFFFFF" d="M101.579,40.01h-0.867l-0.38,1.972h0.831
			c0.453,0,0.904-0.486,1.014-0.939C102.303,40.591,102.014,40.01,101.579,40.01z M121.614,43.375
			c-0.236,0.361,0.072,0.669,0.434,0.651c0.416-0.019,0.777-0.199,0.867-0.615c0.019-0.145,0.055-0.271,0.091-0.416h-0.416
			C122.301,42.995,121.794,43.067,121.614,43.375z M105.614,43.375c-0.236,0.361,0.072,0.669,0.434,0.651
			c0.416-0.019,0.777-0.199,0.867-0.615c0.019-0.145,0.055-0.271,0.091-0.416h-0.416C106.301,42.995,105.794,43.067,105.614,43.375z
			 M126.116,38.048l-0.127,0.561l-0.471,2.24c-0.09-0.145-0.198-0.271-0.324-0.38c-0.308-0.271-0.705-0.452-1.14-0.542
			c-0.38-0.091-0.777-0.127-1.157-0.109c-0.705,0-1.283,0.146-1.736,0.254c-0.162,0.036-0.18,0.036-0.234,0.055
			c-0.018,0-0.018,0-0.018,0l-0.038,0.013c0.013,0.062,0.008,0.074-0.017,0.005l0.017-0.005c-0.062-0.302-0.579-1.864-1.734-2.009
			c-0.198-0.037-0.38-0.055-0.561-0.055h-3.599l-0.307,1.95h-1.989l-0.217,0.28l-0.524,0.851l-0.055-0.542l-0.072-0.589h-2.332
			l-0.85,0.094l0.054,0.361c-0.271-0.198-0.614-0.325-0.977-0.397c-0.361-0.091-0.759-0.127-1.139-0.108
			c-0.724,0-1.284,0.145-1.735,0.253c-0.163,0.036-0.182,0.036-0.254,0.055c0,0,0,0-0.018,0l-0.055,0.018
			c0.117,0.396-0.804-1.955-1.699-2.17c-2.193-0.229-4.24-0.086-4.24-0.086L97,46h3.224l0.127-0.559l0.307-1.41h0.688
			c0.597,0,1.157-0.127,1.646-0.397c-0.108,0.578-0.036,1.066,0.163,1.445C103.352,45.495,104,46,105.666,46h0.669l1.646,0.002
			h0.579l0.126-0.561l0.47-2.098l0.254,1.591l-1.066,1.628L107.601,48h3.617l0.198-0.66l2.459-3.852l-0.361,1.646L113.314,46h3.237
			l0.126-0.559l0.325-1.41h0.669c0.614,0,0.832-0.127,1.32-0.397c-0.196,1.045,0.651,2.045,1.29,2.296
			c0.7,0.295,1.538,0.116,1.714,0.07h-0.003c0.06-0.018,0.048-0.012,0.003,0h0.685l1.627,0.002L124.362,46h2.658l0.578,0.002
			l0.127-0.561l1.259-6.508l0.199-0.886H126.116z M101.345,43.058h-1.266l-0.434,1.939h-1.522l1.275-5.98l2.832,0.032
			c0.886,0,1.917,0.914,1.609,2.306C103.569,42.585,102.556,43.058,101.345,43.058z M108.623,42.169l-0.643,2.859h-1.646
			l0.108-0.376c-0.806,0.537-2.936,1.06-2.573-0.893c0.252-1.14,1.326-1.501,3.152-1.501c0.108-0.506-0.254-0.633-0.868-0.614
			c-0.614,0.018-1.356,0.217-1.573,0.325l0.145-0.92c0.452-0.091,1.067-0.29,1.845-0.29
			C107.709,40.742,108.912,40.849,108.623,42.169z M110.538,46.96h-1.443l1.229-1.844l-0.624-4.117h1.463l0.271,2.309l1.645-2.277
			h1.455L110.538,46.96z M117.595,43.058h-1.266l-0.434,1.939h-1.522l1.275-5.98l2.832,0.032c0.886,0,1.917,0.914,1.609,2.306
			C119.819,42.585,118.806,43.058,117.595,43.058z M124.779,42.169l-0.643,2.859h-1.646l0.108-0.376
			c-0.806,0.537-2.936,1.06-2.573-0.893c0.252-1.14,1.326-1.501,3.152-1.501c0.108-0.506-0.254-0.633-0.868-0.614
			c-0.614,0.018-1.356,0.217-1.573,0.325l0.145-0.92c0.452-0.091,1.066-0.29,1.845-0.29
			C123.866,40.742,125.068,40.849,124.779,42.169z M126.864,45.06h-1.598l1.428-6.039h1.429L126.864,45.06z M117.954,40.041h-0.867
			l-0.38,1.94h0.831c0.453,0,0.904-0.486,1.014-0.939C118.678,40.591,118.389,40.041,117.954,40.041z M112.433,30h4.469
			c4.275,0,7.975-2.153,8.933-6.493c1.085-4.914-2.679-7.507-5.806-7.507h-10.439v0.344L104.866,36h6.035L112.433,30z
			 M114.667,20.362h3.064c1.531,0,2.553,1.526,2.105,3.122c-0.383,1.596-1.979,2.792-3.574,2.792h-2.936L114.667,20.362z"/>
	</g>
</g>
</svg>
