<?xml version="1.0" encoding="utf-8"?>
<!-- Generator: Adobe Illustrator 15.0.0, SVG Export Plug-In . SVG Version: 6.00 Build 0)  -->
<!DOCTYPE svg PUBLIC "-//W3C//DTD SVG 1.1//EN" "../../../../www.w3.org/Graphics/SVG/1.1/DTD/svg11.dtd">
<svg version="1.1" id="Layer_1" xmlns="http://www.w3.org/2000/svg" xmlns:xlink="../../../../www.w3.org/1999/xlink" x="0px" y="0px"
	 width="144px" height="66px" viewBox="0 0 144 66" enable-background="new 0 0 144 66" xml:space="preserve">
<path fill-rule="evenodd" clip-rule="evenodd" fill="#282828" d="M29.212,17.336c-1.008,0-0.853,0.31-1.396,0.388
	c-0.543,0.077,0.11-0.078-1.519,0.232s-2.204,2.404-2.281,3.18s-0.097,2.955-0.045,4.118c0.155,0.698-0.388,0.698-0.388,0.698
	c-0.976-0.062-0.537,2.979-0.537,2.979c0.141,0.749-0.05,1.122,1.395,1.703c0.688,1.96,2.439,2.95,2.439,2.95
	s0.087,1.257,0.114,2.152c-0.147-0.073,0.471,2.289-4.018,2.951s-5.348,2.116-6.194,2.926S16.001,46,16.001,46h28.905
	c0,0-0.184-3.577-1.03-4.387s-1.768-2.264-6.256-2.926c-4.489-0.662-3.693-2.96-3.724-3.1c0.008-0.353,0.165-1.849,0.165-1.849
	s1.446-1.203,2.134-3.164c1.083-0.684,1.496-0.779,1.675-1.567c0,0,0.365-2.979-0.798-2.979c0,0-0.485,0.078-0.33-0.62
	c0.155-0.698,0.104-2.878,0.026-3.653s0.148-2.992-1.48-3.302c-1.112-0.207-1.241,0.107-1.784,0.029
	C32.96,18.406,32.314,17,31.306,17L29.212,17.336z"/>
<path fill-rule="evenodd" clip-rule="evenodd" fill="#FFFFFF" d="M111.213,17.336c-1.009,0-0.854,0.31-1.396,0.388
	c-0.543,0.077,0.109-0.078-1.519,0.232s-2.204,2.404-2.281,3.18s-0.097,2.955-0.046,4.118c0.156,0.698-0.387,0.698-0.387,0.698
	c-0.977-0.062-0.537,2.979-0.537,2.979c0.141,0.749-0.051,1.122,1.395,1.703c0.688,1.96,2.439,2.95,2.439,2.95
	s0.087,1.257,0.113,2.152c-0.146-0.073,0.471,2.289-4.018,2.951s-5.348,2.116-6.193,2.926S98.001,46,98.001,46h28.905
	c0,0-0.185-3.577-1.031-4.387c-0.846-0.81-1.768-2.264-6.256-2.926s-3.693-2.96-3.724-3.1c0.008-0.353,0.165-1.849,0.165-1.849
	s1.445-1.203,2.133-3.164c1.084-0.684,1.496-0.779,1.676-1.567c0,0,0.365-2.979-0.799-2.979c0,0-0.484,0.078-0.329-0.62
	s0.104-2.878,0.026-3.653c-0.078-0.775,0.148-2.992-1.48-3.302c-1.111-0.207-1.24,0.107-1.783,0.029
	c-0.543-0.077-1.189-1.483-2.197-1.483L111.213,17.336z"/>
</svg>
