<?xml version="1.0" encoding="utf-8"?>
<!-- Generator: Adobe Illustrator 15.0.0, SVG Export Plug-In . SVG Version: 6.00 Build 0)  -->
<!DOCTYPE svg PUBLIC "-//W3C//DTD SVG 1.1//EN" "../../../../www.w3.org/Graphics/SVG/1.1/DTD/svg11.dtd">
<svg version="1.1" id="Layer_1" xmlns="http://www.w3.org/2000/svg" xmlns:xlink="../../../../www.w3.org/1999/xlink" x="0px" y="0px"
	 width="144px" height="66px" viewBox="0 0 144 66" enable-background="new 0 0 144 66" xml:space="preserve">
<g>
	<g>
		<path fill-rule="evenodd" clip-rule="evenodd" fill="#282828" d="M37.521,44H33c0,0,0-3.486,0-4.086c5.651-0.983,9-5.995,9-11.914
			c0,0-0.011-1-1.542-1s-1.494,1-1.494,1c0,4.986-3.043,9.029-8.029,9.029S22.968,32.986,22.968,28c0,0-0.01-1-1.635-1
			c0,0-1.333,0-1.333,1c0,5.962,3.328,10.939,9.016,11.873c0,0.566,0.005,4.127,0.005,4.127h-4.5c-0.828,0-1.5,0.672-1.5,1.5
			s0.672,1.5,1.5,1.5h13c0.828,0,1.5-0.672,1.5-1.5S38.349,44,37.521,44z M31.021,35C34.334,35,37,32.313,37,29v-6
			c0-3.313-2.666-6-5.979-6s-6,2.687-6,6v6C25.021,32.313,27.707,35,31.021,35z"/>
	</g>
</g>
<g>
	<g>
		<path fill-rule="evenodd" clip-rule="evenodd" fill="#FFFFFF" d="M119.521,44H115c0,0,0-3.486,0-4.086
			c5.651-0.983,9-5.995,9-11.914c0,0-0.011-1-1.542-1s-1.494,1-1.494,1c0,4.986-3.043,9.029-8.029,9.029s-7.967-4.043-7.967-9.029
			c0,0-0.01-1-1.635-1c0,0-1.333,0-1.333,1c0,5.962,3.328,10.939,9.016,11.873c0,0.566,0.005,4.127,0.005,4.127h-4.5
			c-0.828,0-1.5,0.672-1.5,1.5s0.672,1.5,1.5,1.5h13c0.828,0,1.5-0.672,1.5-1.5S120.349,44,119.521,44z M113.021,35
			c3.313,0,5.979-2.687,5.979-6v-6c0-3.313-2.666-6-5.979-6s-6,2.687-6,6v6C107.021,32.313,109.707,35,113.021,35z"/>
	</g>
</g>
</svg>
