<?xml version="1.0" encoding="utf-8"?>
<!-- Generator: Adobe Illustrator 15.0.0, SVG Export Plug-In . SVG Version: 6.00 Build 0)  -->
<!DOCTYPE svg PUBLIC "-//W3C//DTD SVG 1.1//EN" "../../../../www.w3.org/Graphics/SVG/1.1/DTD/svg11.dtd">
<svg version="1.1" id="Layer_1" xmlns="http://www.w3.org/2000/svg" xmlns:xlink="../../../../www.w3.org/1999/xlink" x="0px" y="0px"
	 width="144px" height="66px" viewBox="0 0 144 66" enable-background="new 0 0 144 66" xml:space="preserve">
<g>
	<g>
		<path fill-rule="evenodd" clip-rule="evenodd" fill="#282828" d="M43.831,30.382c0,0-4.372-7.382-12.62-7.382
			S18.59,30.382,18.59,30.382c-0.895,0.994-2.59,1.59-2.59,1.59s1.695,0.597,2.59,1.59c0,0,4.373,7.382,12.621,7.382
			s12.62-7.382,12.62-7.382c0.895-0.993,2.739-1.59,2.739-1.59S44.726,31.375,43.831,30.382z M31.252,36.014
			c-2.227,0-4.032-1.806-4.032-4.032c0-2.226,1.806-4.031,4.032-4.031s4.031,1.805,4.031,4.031
			C35.283,34.208,33.479,36.014,31.252,36.014z M31.342,29.889c-1.127,0-2.041,0.914-2.041,2.042s0.914,2.042,2.041,2.042
			c1.129,0,2.043-0.914,2.043-2.042S32.471,29.889,31.342,29.889z"/>
	</g>
</g>
<g>
	<g>
		<path fill-rule="evenodd" clip-rule="evenodd" fill="#FFFFFF" d="M125.831,30.382c0,0-4.372-7.382-12.62-7.382
			s-12.621,7.382-12.621,7.382c-0.895,0.994-2.59,1.59-2.59,1.59s1.695,0.597,2.59,1.59c0,0,4.373,7.382,12.621,7.382
			s12.62-7.382,12.62-7.382c0.895-0.993,2.739-1.59,2.739-1.59S126.726,31.375,125.831,30.382z M113.252,36.014
			c-2.227,0-4.032-1.806-4.032-4.032c0-2.226,1.806-4.031,4.032-4.031s4.031,1.805,4.031,4.031
			C117.283,34.208,115.479,36.014,113.252,36.014z M113.342,29.889c-1.127,0-2.041,0.914-2.041,2.042s0.914,2.042,2.041,2.042
			c1.129,0,2.043-0.914,2.043-2.042S114.471,29.889,113.342,29.889z"/>
	</g>
</g>
</svg>
