<?xml version="1.0" encoding="utf-8"?>
<!-- Generator: Adobe Illustrator 15.0.0, SVG Export Plug-In . SVG Version: 6.00 Build 0)  -->
<!DOCTYPE svg PUBLIC "-//W3C//DTD SVG 1.1//EN" "../../../../www.w3.org/Graphics/SVG/1.1/DTD/svg11.dtd">
<svg version="1.1" id="Layer_1" xmlns="http://www.w3.org/2000/svg" xmlns:xlink="../../../../www.w3.org/1999/xlink" x="0px" y="0px"
	 width="144px" height="66px" viewBox="0 0 144 66" enable-background="new 0 0 144 66" xml:space="preserve">
<g>
	<g>
		<path fill-rule="evenodd" clip-rule="evenodd" fill="#282828" d="M25.593,35.895l3.958-0.012c0,0-1.29-0.82-1.126-1.833
			C32.565,33.082,35,26.966,35,23.352C35,19.292,31.784,16,27.563,16c-4.221,0-7.583,3.292-7.583,7.352
			c0,3.697,1.894,9.512,6.64,10.628C26.988,34.747,25.593,35.895,25.593,35.895z M27.948,36.992c0-0.125-0.969-0.031-0.969-0.031
			s0.219,2.562,2.031,4s0.625,4.062,0,5h1c0,0,2.281-3.062,0.062-5.156C27.667,38.93,27.948,37.117,27.948,36.992z M35.563,18
			c-0.242,0-0.793,0.011-1.029,0.032c1.84,2.316,1.383,5.023,1.383,7.352c0,2.175-2.04,6.74-4.786,8.645
			c0.896,0.882,2.177,1.643,3.489,1.951c0.369,0.768-1.026,1.915-1.026,1.915l3.958-0.012c0,0-1.29-0.82-1.126-1.833
			C40.565,35.082,43,28.966,43,25.353C43,21.291,39.784,18,35.563,18z M37.011,42.805c-1.844-1.5-0.938-3.812-0.938-3.812
			l-1.094-0.031c0,0-0.469,2.875,1.031,4c2,1.5,0.625,2.938,0,3.875h1C37.011,46.836,39.167,44.586,37.011,42.805z"/>
	</g>
</g>
<g>
	<g>
		<path fill-rule="evenodd" clip-rule="evenodd" fill="#FFFFFF" d="M107.594,35.895l3.957-0.012c0,0-1.289-0.82-1.127-1.833
			c4.142-0.968,6.576-7.084,6.576-10.698c0-4.06-3.216-7.352-7.438-7.352c-4.221,0-7.583,3.292-7.583,7.352
			c0,3.697,1.894,9.512,6.64,10.628C108.988,34.747,107.594,35.895,107.594,35.895z M109.948,36.992
			c0-0.125-0.969-0.031-0.969-0.031s0.219,2.562,2.031,4s0.625,4.062,0,5h1c0,0,2.281-3.062,0.062-5.156
			C109.667,38.93,109.948,37.117,109.948,36.992z M117.562,18c-0.241,0-0.793,0.011-1.028,0.032
			c1.841,2.316,1.383,5.023,1.383,7.352c0,2.175-2.04,6.74-4.786,8.645c0.896,0.882,2.178,1.643,3.488,1.951
			c0.369,0.768-1.025,1.915-1.025,1.915l3.957-0.012c0,0-1.289-0.82-1.127-1.833c4.142-0.968,6.576-7.084,6.576-10.697
			C125,21.291,121.784,18,117.562,18z M119.011,42.805c-1.844-1.5-0.938-3.812-0.938-3.812l-1.094-0.031c0,0-0.469,2.875,1.031,4
			c2,1.5,0.625,2.938,0,3.875h1C119.011,46.836,121.167,44.586,119.011,42.805z"/>
	</g>
</g>
</svg>
