<?xml version="1.0" encoding="utf-8"?>
<!-- Generator: Adobe Illustrator 15.0.0, SVG Export Plug-In . SVG Version: 6.00 Build 0)  -->
<!DOCTYPE svg PUBLIC "-//W3C//DTD SVG 1.1//EN" "../../../../www.w3.org/Graphics/SVG/1.1/DTD/svg11.dtd">
<svg version="1.1" id="Layer_1" xmlns="http://www.w3.org/2000/svg" xmlns:xlink="../../../../www.w3.org/1999/xlink" x="0px" y="0px"
	 width="144px" height="66px" viewBox="0 0 144 66" enable-background="new 0 0 144 66" xml:space="preserve">
<g>
	<g>
		<path fill-rule="evenodd" clip-rule="evenodd" fill="#282828" d="M36.438,35c-0.689,0-1.342,0.2-1.922,0.558l-1.464-2.089
			l5.698-7.354c1.467-2.201,2.127-3.364,2.127-8.053c0-1.068-0.877-1.041-0.877-1.041l-8.853,12.941l-0.273,0.038L22,17.084
			c0,0-0.921,0.028-0.921,1.051c0,4.851,1.358,6.875,2.827,9.012c0,0,3.485,4.537,4.81,6.262l-1.231,2.149
			C26.904,35.2,26.252,35,25.562,35C23.146,35,21,37.463,21,40.5c0,3.038,2.146,5.5,4.562,5.5s4.375-2.462,4.375-5.5
			c0-1.226-0.319-2.357-0.858-3.272l-0.048-0.165l1.906-1.906l1.983,2.071c-0.539,0.915-0.858,2.047-0.858,3.272
			c0,3.038,1.959,5.5,4.375,5.5S41,43.538,41,40.5C41,37.463,38.854,35,36.438,35z M25.547,43.033c-0.897,0-1.694-1.11-1.694-2.48
			c0-1.369,0.797-2.479,1.694-2.479c0.896,0,1.624,1.11,1.624,2.479C27.171,41.923,26.443,43.033,25.547,43.033z M36.453,43.033
			c-0.896,0-1.624-1.11-1.624-2.48c0-1.369,0.728-2.479,1.624-2.479c0.897,0,1.694,1.11,1.694,2.479
			C38.147,41.923,37.351,43.033,36.453,43.033z"/>
	</g>
</g>
<g>
	<g>
		<path fill-rule="evenodd" clip-rule="evenodd" fill="#FFFFFF" d="M118.438,35c-0.689,0-1.342,0.2-1.922,0.558l-1.464-2.089
			l5.698-7.354c1.467-2.201,2.127-3.364,2.127-8.053c0-1.068-0.877-1.041-0.877-1.041l-8.853,12.941l-0.273,0.038L104,17.084
			c0,0-0.921,0.028-0.921,1.051c0,4.851,1.358,6.875,2.827,9.012c0,0,3.485,4.537,4.81,6.262l-1.231,2.149
			C108.904,35.2,108.252,35,107.562,35c-2.416,0-4.562,2.463-4.562,5.5c0,3.038,2.146,5.5,4.562,5.5s4.375-2.462,4.375-5.5
			c0-1.226-0.319-2.357-0.858-3.272l-0.048-0.165l1.906-1.906l1.983,2.071c-0.539,0.915-0.858,2.047-0.858,3.272
			c0,3.038,1.959,5.5,4.375,5.5S123,43.538,123,40.5C123,37.463,120.854,35,118.438,35z M107.547,43.033
			c-0.897,0-1.694-1.11-1.694-2.48c0-1.369,0.797-2.479,1.694-2.479c0.896,0,1.624,1.11,1.624,2.479
			C109.171,41.923,108.443,43.033,107.547,43.033z M118.453,43.033c-0.896,0-1.624-1.11-1.624-2.48c0-1.369,0.728-2.479,1.624-2.479
			c0.897,0,1.694,1.11,1.694,2.479C120.147,41.923,119.351,43.033,118.453,43.033z"/>
	</g>
</g>
</svg>
