<?xml version="1.0" encoding="utf-8"?>
<!-- Generator: Adobe Illustrator 15.0.0, SVG Export Plug-In . SVG Version: 6.00 Build 0)  -->
<!DOCTYPE svg PUBLIC "-//W3C//DTD SVG 1.1//EN" "../../../../www.w3.org/Graphics/SVG/1.1/DTD/svg11.dtd">
<svg version="1.1" id="Layer_1" xmlns="http://www.w3.org/2000/svg" xmlns:xlink="../../../../www.w3.org/1999/xlink" x="0px" y="0px"
	 width="144px" height="66px" viewBox="0 0 144 66" enable-background="new 0 0 144 66" xml:space="preserve">
<g>
	<g>
		<path fill-rule="evenodd" clip-rule="evenodd" fill="#282828" d="M30.505,16.99C22.494,16.99,16,23.484,16,31.495
			S22.494,46,30.505,46c8.012,0,14.504-6.494,14.504-14.505S38.517,16.99,30.505,16.99z M30.505,43.11
			c-6.415,0-11.615-5.2-11.615-11.615s5.2-11.584,11.615-11.584c6.414,0,11.613,5.169,11.613,11.584S36.919,43.11,30.505,43.11z
			 M37.487,30h-5.5v-7.51c0-0.828-0.672-1.5-1.5-1.5S29,21.662,29,22.49v9c0,0.828,0.659,1.5,1.487,1.5h7c0.828,0,1.5-0.672,1.5-1.5
			S38.315,30,37.487,30z"/>
	</g>
</g>
<g>
	<g>
		<path fill-rule="evenodd" clip-rule="evenodd" fill="#FFFFFF" d="M112.505,16.99C104.494,16.99,98,23.484,98,31.495
			S104.494,46,112.505,46c8.012,0,14.504-6.494,14.504-14.505S120.517,16.99,112.505,16.99z M112.505,43.11
			c-6.415,0-11.615-5.2-11.615-11.615s5.2-11.584,11.615-11.584c6.414,0,11.613,5.169,11.613,11.584S118.919,43.11,112.505,43.11z
			 M119.487,30h-5.5v-7.51c0-0.828-0.672-1.5-1.5-1.5S111,21.662,111,22.49v9c0,0.828,0.659,1.5,1.487,1.5h7
			c0.828,0,1.5-0.672,1.5-1.5S120.315,30,119.487,30z"/>
	</g>
</g>
</svg>
