<?xml version="1.0" encoding="utf-8"?>
<!-- Generator: Adobe Illustrator 15.0.0, SVG Export Plug-In . SVG Version: 6.00 Build 0)  -->
<!DOCTYPE svg PUBLIC "-//W3C//DTD SVG 1.1//EN" "../../../../www.w3.org/Graphics/SVG/1.1/DTD/svg11.dtd">
<svg version="1.1" id="Layer_1" xmlns="http://www.w3.org/2000/svg" xmlns:xlink="../../../../www.w3.org/1999/xlink" x="0px" y="0px"
	 width="144px" height="66px" viewBox="0 0 144 66" enable-background="new 0 0 144 66" xml:space="preserve">
<g>
	<g>
		<path fill-rule="evenodd" clip-rule="evenodd" fill="#282828" d="M20.027,42.969c0,0,0.219,1.031,1.031,1.031l20.938-0.031
			c0,0,0.781,0.062,1.062-1.062l1.04-11.885L19.013,31L20.027,42.969z M45.058,26.031h-6V27c0,2.145-1.986,2-1.986,2h-1.014
			c-2.279,0-2.812-3-2.812-3h-3.438c0,0-0.583,2.906-2.771,3h-1.104c-1.938,0-1.906-2-1.906-2v-1h-5.938c0,0-1.031-0.031-1.031,1v2
			c0,0-0.156,1,1,1h26.938c0,0,1,0,1-1v-1C45.996,28,46.121,26.031,45.058,26.031z M36.058,28h1c0.99,0,1-0.447,1-1l-3-6
			c0-0.553-1-1-1-1h-1c-0.927,0-1,0.447-1,1l3,6C35.214,27.646,35.881,27.969,36.058,28z M26.058,28h1c0.177-0.031,0.844-0.354,1-1
			l3-6c0-0.553-0.073-1-1-1h-1c0,0-1,0.447-1,1l-3,6C25.058,27.553,25.068,28,26.058,28z"/>
	</g>
</g>
<g>
	<g>
		<path fill-rule="evenodd" clip-rule="evenodd" fill="#FFFFFF" d="M127.059,26.031h-6V27c0,2.145-1.986,2-1.986,2h-1.014
			c-2.279,0-2.812-3-2.812-3h-3.438c0,0-0.584,2.906-2.771,3h-1.104c-1.938,0-1.906-2-1.906-2v-1h-5.938c0,0-1.031-0.031-1.031,1v2
			c0,0-0.156,1,1,1h26.938c0,0,1,0,1-1v-1C127.996,28,128.121,26.031,127.059,26.031z M102.027,42.969c0,0,0.219,1.031,1.031,1.031
			l20.938-0.031c0,0,0.781,0.062,1.062-1.062l1.039-11.885L101.014,31L102.027,42.969z M118.059,28h1c0.989,0,1-0.447,1-1l-3-6
			c0-0.553-1-1-1-1h-1c-0.928,0-1,0.447-1,1l3,6C117.215,27.646,117.881,27.969,118.059,28z M108.059,28h1
			c0.177-0.031,0.844-0.354,1-1l3-6c0-0.553-0.073-1-1-1h-1c0,0-1,0.447-1,1l-3,6C107.059,27.553,107.068,28,108.059,28z"/>
	</g>
</g>
</svg>
