<?xml version="1.0" encoding="utf-8"?>
<!-- Generator: Adobe Illustrator 15.0.0, SVG Export Plug-In . SVG Version: 6.00 Build 0)  -->
<!DOCTYPE svg PUBLIC "-//W3C//DTD SVG 1.1//EN" "../../../../www.w3.org/Graphics/SVG/1.1/DTD/svg11.dtd">
<svg version="1.1" id="Layer_1" xmlns="http://www.w3.org/2000/svg" xmlns:xlink="../../../../www.w3.org/1999/xlink" x="0px" y="0px"
	 width="144px" height="66px" viewBox="0 0 144 66" enable-background="new 0 0 144 66" xml:space="preserve">
<g>
	<g>
		<path fill-rule="evenodd" clip-rule="evenodd" fill="#282828" d="M41.994,25l-0.062-1h-6.969L35,22.939
			c0-2.062-1.975-1.938-1.975-1.938h-4.062C27.057,21.002,27,23,27,23v1h-6v0.906c0,0,0,3.094-3.094,3.094H17v10.971h0.969
			c0,0,3.031-0.031,3.031,3l-0.031,1h20.994v-0.969c0,0-0.062-3.031,3.031-3.031h1V28h-1.062C41.994,28,41.994,25,41.994,25z M34,23
			v1h-6.037L28,23c0-0.906,0.963-1.061,0.963-1.061h4.031C34.057,21.939,34,23,34,23z M42.988,41.969l-0.057,1.002l1.062-0.031
			c0,0,1.938,0,1.938-1.938v-1.031l-0.941,0.025C43.021,39.996,42.988,41.969,42.988,41.969z M43.998,24.025L42.994,24v1.031
			c0,1.938,2,1.938,2,1.938l1,0.031L46,25.998C46,25.998,45.967,24.025,43.998,24.025z M20,25.031V24l-1.004,0.025
			c-1.969,0-1.996,1.973-1.996,1.973V27l1-0.031C18,26.969,20,26.969,20,25.031z M18.004,39.996L17,39.971v1.031
			c0,1.938,2,1.938,2,1.938l1,0.031l0.006-1.002C20.006,41.969,19.973,39.996,18.004,39.996z"/>
	</g>
</g>
<g>
	<g>
		<path fill-rule="evenodd" clip-rule="evenodd" fill="#FFFFFF" d="M123.994,25l-0.062-1h-6.969L117,22.939
			c0-2.062-1.975-1.938-1.975-1.938h-4.062C109.057,21.002,109,23,109,23v1h-6v0.906c0,0,0,3.094-3.094,3.094H99v10.971h0.969
			c0,0,3.031-0.031,3.031,3l-0.031,1h20.994v-0.969c0,0-0.062-3.031,3.031-3.031h1V28h-1.062C123.994,28,123.994,25,123.994,25z
			 M116,23v1h-6.037L110,23c0-0.906,0.963-1.061,0.963-1.061h4.031C116.057,21.939,116,23,116,23z M124.988,41.969l-0.057,1.002
			l1.062-0.031c0,0,1.938,0,1.938-1.938v-1.031l-0.941,0.025C125.021,39.996,124.988,41.969,124.988,41.969z M125.998,24.025
			L124.994,24v1.031c0,1.938,2,1.938,2,1.938l1,0.031L128,25.998C128,25.998,127.967,24.025,125.998,24.025z M102,25.031V24
			l-1.004,0.025c-1.969,0-1.996,1.973-1.996,1.973V27l1-0.031C100,26.969,102,26.969,102,25.031z M100.004,39.996L99,39.971v1.031
			c0,1.938,2,1.938,2,1.938l1,0.031l0.006-1.002C102.006,41.969,101.973,39.996,100.004,39.996z"/>
	</g>
</g>
</svg>
