<?xml version="1.0" encoding="utf-8"?>
<!-- Generator: Adobe Illustrator 15.0.0, SVG Export Plug-In . SVG Version: 6.00 Build 0)  -->
<!DOCTYPE svg PUBLIC "-//W3C//DTD SVG 1.1//EN" "../../../../www.w3.org/Graphics/SVG/1.1/DTD/svg11.dtd">
<svg version="1.1" id="Layer_1" xmlns="http://www.w3.org/2000/svg" xmlns:xlink="../../../../www.w3.org/1999/xlink" x="0px" y="0px"
	 width="144px" height="66px" viewBox="0 0 144 66" enable-background="new 0 0 144 66" xml:space="preserve">
<path fill-rule="evenodd" clip-rule="evenodd" fill="#282828" d="M21.113,18c-0.513,0-2.053,0.416-2.053,0.929v25.929l1.424,1.189
	L22,44.857V33.125c0,0,0.193-0.209,0.459-0.35c1.409-0.741,8.039-3.105,10.561-2.754l0.011,1.815
	c1.722,2.22,8.915-0.133,8.915-0.133L42,20.333c-2.97,0.97-4.912,1.667-7.387,1.066c-0.928-0.225-0.625,0.053-0.715-0.269
	c-0.185-0.658-0.452-1.347-0.825-2.058c0,0-8.607-1.306-10.877-1.028C22.11,18.055,21.563,18,21.113,18z M22.042,19.116v13.321
	c0,0,0.215,0.104,0.311-0.126c1.934-4.64,0.705-11.094,0-13.061C22.129,18.626,22.042,19.054,22.042,19.116z"/>
<path fill-rule="evenodd" clip-rule="evenodd" fill="#FFFFFF" d="M103.113,18c-0.514,0-2.054,0.416-2.054,0.929v25.929l1.424,1.189
	L104,44.857V33.125c0,0,0.193-0.209,0.459-0.35c1.41-0.741,8.039-3.105,10.562-2.754l0.011,1.815
	c1.723,2.22,8.914-0.133,8.914-0.133L124,20.333c-2.97,0.97-4.912,1.667-7.387,1.066c-0.928-0.225-0.625,0.053-0.715-0.269
	c-0.186-0.658-0.453-1.347-0.826-2.058c0,0-8.607-1.306-10.877-1.028C104.109,18.055,103.563,18,103.113,18z M104.041,19.116v13.321
	c0,0,0.215,0.104,0.311-0.126c1.934-4.64,0.705-11.094,0.001-13.061C104.129,18.626,104.041,19.054,104.041,19.116z"/>
</svg>
