<?xml version="1.0" encoding="utf-8"?>
<!-- Generator: Adobe Illustrator 15.0.0, SVG Export Plug-In . SVG Version: 6.00 Build 0)  -->
<!DOCTYPE svg PUBLIC "-//W3C//DTD SVG 1.1//EN" "../../../../www.w3.org/Graphics/SVG/1.1/DTD/svg11.dtd">
<svg version="1.1" id="Layer_1" xmlns="http://www.w3.org/2000/svg" xmlns:xlink="../../../../www.w3.org/1999/xlink" x="0px" y="0px"
	 width="144px" height="66px" viewBox="0 0 144 66" enable-background="new 0 0 144 66" xml:space="preserve">
<path fill-rule="evenodd" clip-rule="evenodd" fill="#282828" d="M32.979,34.441c1.929-0.682,2.357-1.386,2.357-1.386
	c0.916,1.129,2.253,1.976,3.82,1.976c2.762,0,4.844-2.238,4.844-5c0-1.871-1.027-3.19-2.55-4.047c0,0,0.374-1.542,0.374-2.494
	c0-1.91-1.549-3.458-3.459-3.458c-0.193,0-0.709,0.172-0.827-0.293C37.11,18.039,35.572,17,33.74,17
	c-1.236,0-2.338,0.354-3.057,1.248c0,0-0.115,0.376-0.352,0.191c-0.782-0.793-1.869-1.284-3.07-1.284
	c-2.174,0-3.971,1.607-4.27,3.698c-0.201,0-0.068,0.178,0.457,0.178c-2.969,0-5.375,2.406-5.375,5.375
	c0,1.56,0.664,2.964,1.726,3.946c0,0,0.422,0.133,0.312,0.804c-0.049,0.25-0.074,0.509-0.074,0.773c0,2.198,1.781,4.042,3.979,4.042
	c1.254,0,2.372-0.706,3.102-1.613c0,0,0.599,0.529,1.883,0.508v0.479v9.688c0,0.553,0.438,1,0.99,1h2c0.553,0,1-0.447,1-1
	L32.979,34.441z"/>
<path fill-rule="evenodd" clip-rule="evenodd" fill="#FFFFFF" d="M114.979,34.441c1.929-0.682,2.357-1.386,2.357-1.386
	c0.916,1.129,2.253,1.976,3.82,1.976c2.762,0,4.844-2.238,4.844-5c0-1.871-1.027-3.19-2.55-4.047c0,0,0.374-1.542,0.374-2.494
	c0-1.91-1.549-3.458-3.459-3.458c-0.193,0-0.709,0.172-0.827-0.293C119.11,18.039,117.572,17,115.74,17
	c-1.236,0-2.338,0.354-3.057,1.248c0,0-0.115,0.376-0.352,0.191c-0.782-0.793-1.869-1.284-3.07-1.284
	c-2.174,0-3.971,1.607-4.27,3.698c-0.201,0-0.068,0.178,0.457,0.178c-2.969,0-5.375,2.406-5.375,5.375
	c0,1.56,0.664,2.964,1.726,3.946c0,0,0.422,0.133,0.312,0.804c-0.049,0.25-0.074,0.509-0.074,0.773c0,2.198,1.781,4.042,3.979,4.042
	c1.254,0,2.372-0.706,3.102-1.613c0,0,0.599,0.529,1.883,0.508v0.479v9.688c0,0.553,0.438,1,0.99,1h2c0.553,0,1-0.447,1-1
	L114.979,34.441z"/>
</svg>
