<?xml version="1.0" encoding="utf-8"?>
<!-- Generator: Adobe Illustrator 15.0.0, SVG Export Plug-In . SVG Version: 6.00 Build 0)  -->
<!DOCTYPE svg PUBLIC "-//W3C//DTD SVG 1.1//EN" "../../../../www.w3.org/Graphics/SVG/1.1/DTD/svg11.dtd">
<svg version="1.1" id="Layer_1" xmlns="http://www.w3.org/2000/svg" xmlns:xlink="../../../../www.w3.org/1999/xlink" x="0px" y="0px"
	 width="144px" height="66px" viewBox="0 0 144 66" enable-background="new 0 0 144 66" xml:space="preserve">
<g>
	<g>
		<path fill-rule="evenodd" clip-rule="evenodd" fill="#282828" d="M45,21H27c-0.553,0-1,0.448-1,1v13c0,0.553,0.447,1,1,1h18
			c0.553,0,1-0.447,1-1V22C46,21.448,45.553,21,45,21z M22.938,25c0,0-2.375,0.062-2.938,0c-1.5,0-2,2-2,2l-2.125,3.938
			C15.25,31.812,15,32.812,15,32.812v6.25C15,40.125,16.062,40,16.062,40c1,0,0.812-1.125,0.812-1.125
			c0-2.688,3.062-2.906,3.062-2.906H23c1.875,0,1.938-2.031,1.938-2.031L25,26.875C25,24.875,22.938,25,22.938,25z M20.969,36.938
			c-1.674,0-3.031,1.357-3.031,3.031S19.295,43,20.969,43S24,41.643,24,39.969S22.643,36.938,20.969,36.938z M25,37c0,1.312,1,2,1,2
			h11.938c0-0.812-0.938-2-0.938-2H25z M41.969,37C40.329,37,39,38.329,39,39.969s1.329,2.969,2.969,2.969s2.969-1.329,2.969-2.969
			S43.608,37,41.969,37z"/>
	</g>
</g>
<g>
	<g>
		<path fill-rule="evenodd" clip-rule="evenodd" fill="#FFFFFF" d="M127,21h-18c-0.553,0-1,0.448-1,1v13c0,0.553,0.447,1,1,1h18
			c0.553,0,1-0.447,1-1V22C128,21.448,127.553,21,127,21z M104.938,25c0,0-2.375,0.062-2.938,0c-1.5,0-2,2-2,2l-2.125,3.938
			C97.25,31.812,97,32.812,97,32.812v6.25C97,40.125,98.062,40,98.062,40c1,0,0.812-1.125,0.812-1.125
			c0-2.688,3.062-2.906,3.062-2.906H105c1.875,0,1.938-2.031,1.938-2.031L107,26.875C107,24.875,104.938,25,104.938,25z
			 M102.969,36.938c-1.674,0-3.031,1.357-3.031,3.031S101.295,43,102.969,43S106,41.643,106,39.969S104.643,36.938,102.969,36.938z
			 M107,37c0,1.312,1,2,1,2h11.938c0-0.812-0.938-2-0.938-2H107z M123.969,37c-1.64,0-2.969,1.329-2.969,2.969
			s1.329,2.969,2.969,2.969s2.969-1.329,2.969-2.969S125.608,37,123.969,37z"/>
	</g>
</g>
</svg>
