<?xml version="1.0" encoding="utf-8"?>
<!-- Generator: Adobe Illustrator 15.0.0, SVG Export Plug-In . SVG Version: 6.00 Build 0)  -->
<!DOCTYPE svg PUBLIC "-//W3C//DTD SVG 1.1//EN" "../../../../www.w3.org/Graphics/SVG/1.1/DTD/svg11.dtd">
<svg version="1.1" id="Layer_1" xmlns="http://www.w3.org/2000/svg" xmlns:xlink="../../../../www.w3.org/1999/xlink" x="0px" y="0px"
	 width="144px" height="66px" viewBox="0 0 144 66" enable-background="new 0 0 144 66" xml:space="preserve">
<g>
	<g>
		<path fill-rule="evenodd" clip-rule="evenodd" fill="#282828" d="M23.983,21.947l1.953,0.99l-2.845,2.009L24.688,26H39
			l-2.125-1.938l2.03-1.229l-3.11-1.021l2.079-0.938L39.938,19H23l3.007,1.019L23.983,21.947z M44,22h-4l1.425,0.962l-2.407,1.254
			l2.482,2.815l-17.562-0.02l-2.771-1.879l2.697-2.109L22.062,22H18c-0.552,0-1,0.448-1,1v20c0,0.553,0.448,1,1,1h26
			c0.552,0,1-0.447,1-1V23C45,22.448,44.552,22,44,22z M44,42c0,0.552-0.448,1-1,1h-4l5-5V42z"/>
	</g>
</g>
<g>
	<g>
		<path fill-rule="evenodd" clip-rule="evenodd" fill="#FFFFFF" d="M105.982,21.947l1.953,0.99l-2.845,2.009L106.688,26H121
			l-2.125-1.938l2.03-1.229l-3.11-1.021l2.078-0.938L121.938,19H105l3.007,1.019L105.982,21.947z M126,22h-4l1.425,0.962
			l-2.407,1.254l2.482,2.815l-17.562-0.02l-2.771-1.879l2.697-2.109L104.062,22H100c-0.553,0-1,0.448-1,1v20c0,0.553,0.447,1,1,1h26
			c0.553,0,1-0.447,1-1V23C127,22.448,126.553,22,126,22z M126,42c0,0.552-0.447,1-1,1h-4l5-5V42z"/>
	</g>
</g>
</svg>
