<?xml version="1.0" encoding="utf-8"?>
<!-- Generator: Adobe Illustrator 15.0.0, SVG Export Plug-In . SVG Version: 6.00 Build 0)  -->
<!DOCTYPE svg PUBLIC "-//W3C//DTD SVG 1.1//EN" "../../../../www.w3.org/Graphics/SVG/1.1/DTD/svg11.dtd">
<svg version="1.1" id="Layer_1" xmlns="http://www.w3.org/2000/svg" xmlns:xlink="../../../../www.w3.org/1999/xlink" x="0px" y="0px"
	 width="144px" height="66px" viewBox="0 0 144 66" enable-background="new 0 0 144 66" xml:space="preserve">
<g>
	<g>
		<path fill-rule="evenodd" clip-rule="evenodd" fill="#282828" d="M31.077,19h-0.429c-4.43,0-7.923,3.591-7.923,8.021
			c0,1.327,0.322,2.579,0.893,3.681c0.415,0.803,1.701,2.569,2.365,4.247c0,0,0.94,1.203,1.019,2.695c0,0-0.006,0.312,0,0.637
			C27.007,38.633,27,39,27,39l0.032,4.426c0,0,1.218,1.574,3.968,1.574c2.624,0,4-1.379,4-1.379v-5.81
			c0.024-1.385,1.055-2.862,1.055-2.862c0.664-1.678,1.637-3.444,2.052-4.247C38.678,29.6,39,28.348,39,27.021
			C39,22.591,35.506,19,31.077,19z M33.527,42.974h-5c-0.276,0-0.5-0.224-0.5-0.5s0.224-0.5,0.5-0.5h5c0.276,0,0.5,0.224,0.5,0.5
			S33.804,42.974,33.527,42.974z M33.527,40.974h-5c-0.276,0-0.5-0.224-0.5-0.5s0.224-0.5,0.5-0.5h5c0.276,0,0.5,0.224,0.5,0.5
			S33.804,40.974,33.527,40.974z M33.527,38.974h-5c-0.276,0-0.5-0.224-0.5-0.5s0.224-0.5,0.5-0.5h5c0.276,0,0.5,0.224,0.5,0.5
			S33.804,38.974,33.527,38.974z M34.027,26.807c0,0-2.917,7.083-2.917,8.25c0,0,0.25,3.667-1.083,1c0,0-0.667-2.666-0.667-3.167
			c0-0.5-2.75-6.25-3.083-6.75c0,0,1.083-0.333,1.5-0.083c0,0,3.417,1.333,4.667,0.917C32.444,26.974,34.611,25.391,34.027,26.807z
			 M32.444,27.724c-0.75,0.417-1.333-0.167-1.75-0.167c-0.417,0-1.5,0.333-2-0.083c-0.5-0.417-1,0-1,0
			c0.167,0.417,2.5,5.167,2.5,5.167c1.583,2.25,0.833-0.25,0.833-0.25c0.25-0.417,1.75-4.167,1.75-4.167
			S33.194,27.307,32.444,27.724z M30.361,33.891c-1,0.25,0.333,1.75,0.333,1.75C31.361,34.891,31.361,33.64,30.361,33.891z"/>
	</g>
</g>
<g>
	<g>
		<path fill-rule="evenodd" clip-rule="evenodd" fill="#FFFFFF" d="M113.076,19h-0.429c-4.43,0-7.923,3.591-7.923,8.021
			c0,1.327,0.321,2.579,0.893,3.681c0.414,0.803,1.701,2.569,2.364,4.247c0,0,0.94,1.203,1.019,2.695c0,0-0.006,0.312,0,0.637
			c0.007,0.352,0,0.719,0,0.719l0.032,4.426c0,0,1.218,1.574,3.968,1.574c2.623,0,4-1.379,4-1.379v-5.81
			c0.024-1.385,1.055-2.862,1.055-2.862c0.664-1.678,1.637-3.444,2.053-4.247c0.57-1.103,0.893-2.354,0.893-3.681
			C121,22.591,117.506,19,113.076,19z M115.527,42.974h-5c-0.276,0-0.5-0.224-0.5-0.5s0.224-0.5,0.5-0.5h5
			c0.276,0,0.5,0.224,0.5,0.5S115.804,42.974,115.527,42.974z M115.527,40.974h-5c-0.276,0-0.5-0.224-0.5-0.5s0.224-0.5,0.5-0.5h5
			c0.276,0,0.5,0.224,0.5,0.5S115.804,40.974,115.527,40.974z M115.527,38.974h-5c-0.276,0-0.5-0.224-0.5-0.5s0.224-0.5,0.5-0.5h5
			c0.276,0,0.5,0.224,0.5,0.5S115.804,38.974,115.527,38.974z M116.027,26.807c0,0-2.916,7.083-2.916,8.25c0,0,0.25,3.667-1.084,1
			c0,0-0.666-2.666-0.666-3.167c0-0.5-2.75-6.25-3.084-6.75c0,0,1.084-0.333,1.5-0.083c0,0,3.416,1.333,4.666,0.917
			C114.443,26.974,116.611,25.391,116.027,26.807z M114.443,27.724c-0.75,0.417-1.332-0.167-1.75-0.167c-0.416,0-1.5,0.333-2-0.083
			c-0.5-0.417-1,0-1,0c0.168,0.417,2.5,5.167,2.5,5.167c1.584,2.25,0.834-0.25,0.834-0.25c0.25-0.417,1.75-4.167,1.75-4.167
			S115.193,27.307,114.443,27.724z M112.361,33.891c-1,0.25,0.332,1.75,0.332,1.75C113.361,34.891,113.361,33.64,112.361,33.891z"/>
	</g>
</g>
</svg>
