<?xml version="1.0" encoding="utf-8"?>
<!-- Generator: Adobe Illustrator 15.0.0, SVG Export Plug-In . SVG Version: 6.00 Build 0)  -->
<!DOCTYPE svg PUBLIC "-//W3C//DTD SVG 1.1//EN" "../../../../www.w3.org/Graphics/SVG/1.1/DTD/svg11.dtd">
<svg version="1.1" id="Layer_1" xmlns="http://www.w3.org/2000/svg" xmlns:xlink="../../../../www.w3.org/1999/xlink" x="0px" y="0px"
	 width="144px" height="66px" viewBox="0 0 144 66" enable-background="new 0 0 144 66" xml:space="preserve">
<g>
	<g>
		<path fill-rule="evenodd" clip-rule="evenodd" fill="#282828" d="M45,22H18c-0.553,0-1,0.448-1,1v18c0,0.553,0.447,1,1,1h27
			c0.553,0,1-0.447,1-1V23C46,22.448,45.553,22,45,22z M32,39.5c0,0.276-0.224,0.5-0.5,0.5c-0.275,0-0.5-0.224-0.5-0.5v-15
			c0-0.276,0.225-0.5,0.5-0.5c0.276,0,0.5,0.224,0.5,0.5V39.5z M42.5,38h-8c-0.275,0-0.5-0.224-0.5-0.5s0.225-0.5,0.5-0.5h8
			c0.275,0,0.5,0.224,0.5,0.5S42.775,38,42.5,38z M42.5,35h-8c-0.275,0-0.5-0.224-0.5-0.5s0.225-0.5,0.5-0.5h8
			c0.275,0,0.5,0.224,0.5,0.5S42.775,35,42.5,35z M42.5,32h-8c-0.275,0-0.5-0.224-0.5-0.5s0.225-0.5,0.5-0.5h8
			c0.275,0,0.5,0.224,0.5,0.5S42.775,32,42.5,32z M42.031,28.062c0,0-0.969-0.031-0.969-1H41c0,0-0.031,0.906-0.969,0.906
			c0,0-1.094,0.062-1.094-0.969c0,0,0.031-1,1-1v-0.062c0,0-0.938,0.094-0.938-0.906c0,0-0.125-1.031,0.969-1.031c0,0,1,0.031,1,1
			h0.094c0,0-0.062-1,0.906-1c0,0,1-0.062,1,0.969c0,0-0.094,1-1,1c0,0,1.031,0.062,1.031,1.031C43,27,43.094,28.062,42.031,28.062z
			"/>
	</g>
</g>
<g>
	<g>
		<path fill-rule="evenodd" clip-rule="evenodd" fill="#FFFFFF" d="M127,22h-27c-0.553,0-1,0.448-1,1v18c0,0.553,0.447,1,1,1h27
			c0.553,0,1-0.447,1-1V23C128,22.448,127.553,22,127,22z M114,39.5c0,0.276-0.224,0.5-0.5,0.5c-0.275,0-0.5-0.224-0.5-0.5v-15
			c0-0.276,0.225-0.5,0.5-0.5c0.276,0,0.5,0.224,0.5,0.5V39.5z M124.5,38h-8c-0.275,0-0.5-0.224-0.5-0.5s0.225-0.5,0.5-0.5h8
			c0.275,0,0.5,0.224,0.5,0.5S124.775,38,124.5,38z M124.5,35h-8c-0.275,0-0.5-0.224-0.5-0.5s0.225-0.5,0.5-0.5h8
			c0.275,0,0.5,0.224,0.5,0.5S124.775,35,124.5,35z M124.5,32h-8c-0.275,0-0.5-0.224-0.5-0.5s0.225-0.5,0.5-0.5h8
			c0.275,0,0.5,0.224,0.5,0.5S124.775,32,124.5,32z M124.031,28.062c0,0-0.969-0.031-0.969-1H123c0,0-0.031,0.906-0.969,0.906
			c0,0-1.094,0.062-1.094-0.969c0,0,0.031-1,1-1v-0.062c0,0-0.938,0.094-0.938-0.906c0,0-0.125-1.031,0.969-1.031c0,0,1,0.031,1,1
			h0.094c0,0-0.062-1,0.906-1c0,0,1-0.062,1,0.969c0,0-0.094,1-1,1c0,0,1.031,0.062,1.031,1.031
			C125,27,125.094,28.062,124.031,28.062z"/>
	</g>
</g>
</svg>
