<?xml version="1.0" encoding="utf-8"?>
<!-- Generator: Adobe Illustrator 15.0.0, SVG Export Plug-In . SVG Version: 6.00 Build 0)  -->
<!DOCTYPE svg PUBLIC "-//W3C//DTD SVG 1.1//EN" "../../../../www.w3.org/Graphics/SVG/1.1/DTD/svg11.dtd">
<svg version="1.1" id="Layer_1" xmlns="http://www.w3.org/2000/svg" xmlns:xlink="../../../../www.w3.org/1999/xlink" x="0px" y="0px"
	 width="144px" height="66px" viewBox="0 0 144 66" enable-background="new 0 0 144 66" xml:space="preserve">
<g>
	<g>
		<path fill="#282828" d="M38,24c1.104,0,2-0.896,2-2v-2c0-1.104-0.896-2-2-2s-2,0.896-2,2v2C36,23.104,36.896,24,38,24z M24,24
			c1.104,0,2-0.896,2-2v-2c0-1.104-0.896-2-2-2s-2,0.896-2,2v2C22,23.104,22.896,24,24,24z M43,21h-2v1c0,0-0.031,3.031-3,3.031
			c0,0-3-0.031-3-3L34.969,21h-8v1c0,0,0.031,3.031-2.969,3.031c0,0-3.031,0.031-3.031-3V21H19c-1.104,0-2,0.896-2,2v21
			c0,1.104,0.896,2,2,2h24c1.104,0,2-0.896,2-2V23C45,21.896,44.104,21,43,21z M43,44H19V28h24V44z M27,34.596V40h2v-8h-1.769
			c-0.232,0.494-0.555,0.744-0.967,1.081s-0.52,0.438-1.265,0.864v1.795c0.567-0.342,0.79-0.483,0.79-0.483S26.642,34.868,27,34.596
			z M32.784,36.609c-0.369,0.87-0.639,2.104-0.812,3.391H34c0.071-0.925,0.365-1.881,0.572-2.558
			c0.262-0.87,0.336-1.348,0.788-2.056c0.373-0.584,1.085-1.033,1.64-1.534V32h-6v2l3.535-0.026
			C33.736,34.965,33.153,35.74,32.784,36.609z"/>
	</g>
</g>
<g>
	<g>
		<path fill="#FFFFFF" d="M106,24c1.104,0,2-0.896,2-2v-2c0-1.104-0.896-2-2-2s-2,0.896-2,2v2C104,23.104,104.896,24,106,24z
			 M120,24c1.104,0,2-0.896,2-2v-2c0-1.104-0.896-2-2-2s-2,0.896-2,2v2C118,23.104,118.896,24,120,24z M109,34.596V40h2v-8h-1.769
			c-0.232,0.494-0.556,0.744-0.967,1.081s-0.52,0.438-1.265,0.864v1.795c0.567-0.342,0.789-0.483,0.789-0.483
			S108.643,34.868,109,34.596z M125,21h-2v1c0,0-0.031,3.031-3,3.031c0,0-3-0.031-3-3L116.969,21h-8v1c0,0,0.031,3.031-2.969,3.031
			c0,0-3.031,0.031-3.031-3V21H101c-1.104,0-2,0.896-2,2v21c0,1.104,0.896,2,2,2h24c1.104,0,2-0.896,2-2V23
			C127,21.896,126.104,21,125,21z M125,44h-24V28h24V44z M114.784,36.609c-0.369,0.87-0.64,2.104-0.812,3.391H116
			c0.071-0.925,0.365-1.881,0.572-2.558c0.262-0.87,0.336-1.348,0.787-2.056c0.373-0.584,1.086-1.033,1.641-1.534V32h-6v2
			l3.535-0.026C115.736,34.965,115.152,35.74,114.784,36.609z"/>
	</g>
</g>
</svg>
