<?xml version="1.0" encoding="utf-8"?>
<!-- Generator: Adobe Illustrator 15.0.0, SVG Export Plug-In . SVG Version: 6.00 Build 0)  -->
<!DOCTYPE svg PUBLIC "-//W3C//DTD SVG 1.1//EN" "../../../../www.w3.org/Graphics/SVG/1.1/DTD/svg11.dtd">
<svg version="1.1" id="Layer_1" xmlns="http://www.w3.org/2000/svg" xmlns:xlink="../../../../www.w3.org/1999/xlink" x="0px" y="0px"
	 width="144px" height="66px" viewBox="0 0 144 66" enable-background="new 0 0 144 66" xml:space="preserve">
<g>
	<g>
		<path fill-rule="evenodd" clip-rule="evenodd" fill="#282828" d="M32.836,18.951c-2.973,0-5.673,0.833-5.673,0.833
			s-4.536-2.258-6.878-1.783c-2.415,1.376-0.249,3.089,0.89,4.25c-2.344,2.123-3.84,4.877-4.057,7.91
			c-0.518,1.378-0.965,0.328-1.59,1.141c-0.299,0.389-0.983,3.711-0.071,4.943c1.491,1.342,2.503-0.128,4.143,1.674
			c0.814,1.035,1.805,1.971,2.936,2.778c0.291,0.29-0.831,1.044-0.32,2.791c0.323,0.656,3.095,0.747,3.937,0.375
			c0.499-0.413,0.002-0.998,0.343-1.089c0.203,0.074,0.408,0.146,0.616,0.214c0.351,0.269-0.429,1.996,0.938,1.958
			c0.431,0.084,1.473,0.055,2.551,0.017c0.588-0.181,0.417-1.144,0.589-1.127c0.623,0.06,1.257,0.091,1.9,0.091
			c1.809,0,2.881-0.057,4.436-0.506c0.968-0.15-0.207,1.359,0.615,1.543c0.289-0.133,2.952,0.282,3.522-0.411
			c0.958-0.81,0.126-3.328,0.928-3.71c3.691-2.364,4.59-5.334,4.59-9.458C47.182,24.518,41.287,18.951,32.836,18.951z
			 M23.158,25.922c-0.001,0.014-0.005,0.021-0.005,0.036c0,0.569-0.462,1.031-1.031,1.031s-1.031-0.462-1.031-1.031
			s1.462-0.031,2.031-0.031C23.138,25.927,23.144,25.923,23.158,25.922C23.185,25.44,23.641,25.896,23.158,25.922z M39.153,25.989
			c-3.333-1.334-7-1-7-1c-0.552,0-1-0.447-1-1s0.448-1,1-1c3.583-0.167,7,1,7,1c0.552,0,1,0.447,1,1S39.706,25.989,39.153,25.989z"
			/>
	</g>
</g>
<g>
	<g>
		<path fill-rule="evenodd" clip-rule="evenodd" fill="#FFFFFF" d="M114.836,18.951c-2.973,0-5.673,0.833-5.673,0.833
			s-4.536-2.258-6.878-1.783c-2.415,1.376-0.249,3.089,0.891,4.25c-2.344,2.123-3.841,4.877-4.058,7.91
			c-0.519,1.378-0.965,0.328-1.59,1.141c-0.3,0.389-0.983,3.711-0.071,4.943c1.491,1.342,2.504-0.128,4.143,1.674
			c0.814,1.035,1.805,1.971,2.937,2.778c0.29,0.29-0.831,1.044-0.319,2.791c0.322,0.656,3.095,0.747,3.936,0.375
			c0.5-0.413,0.003-0.998,0.344-1.089c0.203,0.074,0.408,0.146,0.615,0.214c0.351,0.269-0.43,1.996,0.938,1.958
			c0.431,0.084,1.473,0.055,2.552,0.017c0.588-0.181,0.416-1.144,0.589-1.127c0.623,0.06,1.257,0.091,1.9,0.091
			c1.81,0,2.881-0.057,4.436-0.506c0.968-0.15-0.207,1.359,0.615,1.543c0.289-0.133,2.952,0.282,3.522-0.411
			c0.957-0.81,0.126-3.328,0.928-3.71c3.691-2.364,4.59-5.334,4.59-9.458C129.182,24.518,123.287,18.951,114.836,18.951z
			 M105.158,25.922c-0.001,0.014-0.005,0.021-0.005,0.036c0,0.569-0.462,1.031-1.031,1.031s-1.031-0.462-1.031-1.031
			s1.462-0.031,2.031-0.031C105.138,25.927,105.145,25.923,105.158,25.922C105.185,25.44,105.641,25.896,105.158,25.922z
			 M121.153,25.989c-3.333-1.334-7-1-7-1c-0.552,0-1-0.447-1-1s0.448-1,1-1c3.583-0.167,7,1,7,1c0.552,0,1,0.447,1,1
			S121.705,25.989,121.153,25.989z"/>
	</g>
</g>
</svg>
