<?xml version="1.0" encoding="utf-8"?>
<!-- Generator: Adobe Illustrator 15.0.0, SVG Export Plug-In . SVG Version: 6.00 Build 0)  -->
<!DOCTYPE svg PUBLIC "-//W3C//DTD SVG 1.1//EN" "../../../../www.w3.org/Graphics/SVG/1.1/DTD/svg11.dtd">
<svg version="1.1" id="Layer_1" xmlns="http://www.w3.org/2000/svg" xmlns:xlink="../../../../www.w3.org/1999/xlink" x="0px" y="0px"
	 width="144px" height="66px" viewBox="0 0 144 66" enable-background="new 0 0 144 66" xml:space="preserve">
<g>
	<g>
		<path fill-rule="evenodd" clip-rule="evenodd" fill="#282828" d="M41,17H21c-1.657,0-3,1.344-3,3v23c0,1.657,1.343,3,3,3h20
			c1.657,0,3-1.343,3-3V20C44,18.344,42.657,17,41,17z M31,45c-0.553,0-1-0.447-1-1c0-0.552,0.447-1,1-1s1,0.448,1,1
			C32,44.553,31.553,45,31,45z M41,42H21V20h20V42z"/>
	</g>
</g>
<g>
	<g>
		<path fill-rule="evenodd" clip-rule="evenodd" fill="#FFFFFF" d="M123,17h-20c-1.657,0-3,1.344-3,3v23c0,1.657,1.343,3,3,3h20
			c1.657,0,3-1.343,3-3V20C126,18.344,124.657,17,123,17z M113,45c-0.553,0-1-0.447-1-1c0-0.552,0.447-1,1-1s1,0.448,1,1
			C114,44.553,113.553,45,113,45z M123,42h-20V20h20V42z"/>
	</g>
</g>
</svg>
