<?xml version="1.0" encoding="utf-8"?>
<!-- Generator: Adobe Illustrator 15.0.0, SVG Export Plug-In . SVG Version: 6.00 Build 0)  -->
<!DOCTYPE svg PUBLIC "-//W3C//DTD SVG 1.1//EN" "../../../../www.w3.org/Graphics/SVG/1.1/DTD/svg11.dtd">
<svg version="1.1" id="Layer_1" xmlns="http://www.w3.org/2000/svg" xmlns:xlink="../../../../www.w3.org/1999/xlink" x="0px" y="0px"
	 width="144px" height="66px" viewBox="0 0 144 66" enable-background="new 0 0 144 66" xml:space="preserve">
<g>
	<g>
		<path fill-rule="evenodd" clip-rule="evenodd" fill="#282828" d="M40,18c-4.562,0.125-6.917,6-6.917,6v5.938
			c0,0-0.125,1.031,0.938,1.031L37.146,31c0,0,1.938,0,1.938,0.938L39.146,43c0,0-3.062,3.013-3.062,3.062v1.781l1,1.156h5.812
			L44,47.969v-2.031l-3-3V32c0,0,0.833-1.062,1.958-1.062h3.011c0,0,1,0.083,1-1L47,24C45.413,18.606,40,18,40,18z M41.083,44.938
			c0.312,0,0.375,0.25,1,1.125C42.396,47.125,41.021,47,41.021,47h-2c0,0-1.188,0.062-0.875-0.938c0.312-0.75,1-1.125,1-1.125
			H41.083z M30.083,27.938c0,1.094-1.062,1.062-1.062,1.062l-0.958,0.019c0,0-1.062-0.515-1.062-1.081V20h-1.917v7.969
			c0,1.062-1.062,1.031-1.062,1.031h-0.938c0,0-1.083,0-1.083-0.938V20h-1.917v8c0,1.031-1.062,1-1.062,1h-0.938
			c0,0-1.083,0-1.083-1.062V20h-1.917v10.938c0,0-0.125,1.031,0.938,1.031L21.229,32c0,0,0.938,0,0.938,0.938V41c0,0-1,0.25-1,1.062
			v4.969c0,0-0.396,1.938,2.5,1.938c0,0,2.334,0.045,2.334-1.938v-5.094c0,0-0.312-1-1-1V33c0,0-0.167-1.083,0.958-1.083
			l5.094,0.021c0,0,0.948,0.083,0.948-1V20h-1.917V27.938z"/>
	</g>
</g>
<g>
	<g>
		<path fill-rule="evenodd" clip-rule="evenodd" fill="#FFFFFF" d="M112.083,27.938c0,1.094-1.062,1.062-1.062,1.062l-0.958,0.019
			c0,0-1.062-0.515-1.062-1.081V20h-1.917v7.969c0,1.062-1.062,1.031-1.062,1.031h-0.938c0,0-1.083,0-1.083-0.938V20h-1.917v8
			c0,1.031-1.062,1-1.062,1h-0.938c0,0-1.083,0-1.083-1.062V20h-1.917v10.938c0,0-0.125,1.031,0.938,1.031L103.229,32
			c0,0,0.938,0,0.938,0.938V41c0,0-1,0.25-1,1.062v4.969c0,0-0.396,1.938,2.5,1.938c0,0,2.334,0.045,2.334-1.938v-5.094
			c0,0-0.312-1-1-1V33c0,0-0.167-1.083,0.958-1.083l5.094,0.021c0,0,0.948,0.083,0.948-1V20h-1.917V27.938z M122,18
			c-4.562,0.125-6.917,6-6.917,6v5.938c0,0-0.125,1.031,0.938,1.031L119.146,31c0,0,1.938,0,1.938,0.938L121.146,43
			c0,0-3.062,3.013-3.062,3.062v1.781l1,1.156h5.812L126,47.969v-2.031l-3-3V32c0,0,0.833-1.062,1.958-1.062h3.011c0,0,1,0.083,1-1
			L129,24C127.413,18.606,122,18,122,18z M123.083,44.938c0.312,0,0.375,0.25,1,1.125c0.312,1.062-1.062,0.938-1.062,0.938h-2
			c0,0-1.188,0.062-0.875-0.938c0.312-0.75,1-1.125,1-1.125H123.083z"/>
	</g>
</g>
</svg>
