<?xml version="1.0" encoding="utf-8"?>
<!-- Generator: Adobe Illustrator 15.0.0, SVG Export Plug-In . SVG Version: 6.00 Build 0)  -->
<!DOCTYPE svg PUBLIC "-//W3C//DTD SVG 1.1//EN" "../../../../www.w3.org/Graphics/SVG/1.1/DTD/svg11.dtd">
<svg version="1.1" id="Layer_1" xmlns="http://www.w3.org/2000/svg" xmlns:xlink="../../../../www.w3.org/1999/xlink" x="0px" y="0px"
	 width="144px" height="66px" viewBox="0 0 144 66" enable-background="new 0 0 144 66" xml:space="preserve">
<g>
	<g>
		<path fill-rule="evenodd" clip-rule="evenodd" fill="#282828" d="M42,19.062L40,19c0-0.552-0.447-1-1-1H21c-0.553,0-1,0.448-1,1
			v1.938h1c0,0,1.97,0.188,1.97,2c0,0,0.042,2.003-2.021,2.003L20,25l0.062,3.938h0.934c0,0,1.995,0,1.995,2.125
			c0,0-0.129,1.938-2.004,1.938l-0.941,0l-0.017,3.937h0.996c0,0,1.934,0.062,1.934,2.062c0,0,0.059,2.062-2.004,2.062L20.013,41
			L20,43c0,0,1.188,3,2.938,3h19.125c0,0,0.938-0.188,0.938-0.938v-25C43,20.062,42.812,19.062,42,19.062z M25,25h13v8H25V25z
			 M41.031,43.062c0,0,0.031,0.938-1.031,0.938H23c0,0-1.031-0.344-1.031-1.031L39,43c0.553,0,1-0.447,1-1V19.906l1.031,0.344
			V43.062z M19,32h2c0.553,0,1-0.448,1-1s-0.447-1-1-1h-2c-0.553,0-1,0.448-1,1S18.447,32,19,32z M19,24h2c0.553,0,1-0.448,1-1
			s-0.447-1-1-1h-2c-0.553,0-1,0.448-1,1S18.447,24,19,24z M22,39c0-0.553-0.447-1-1-1h-2c-0.553,0-1,0.447-1,1s0.447,1,1,1h2
			C21.553,40,22,39.553,22,39z M35.5,27h-8c-0.276,0-0.5,0.224-0.5,0.5c0,0.276,0.224,0.5,0.5,0.5h8c0.275,0,0.5-0.224,0.5-0.5
			C36,27.224,35.775,27,35.5,27z M35.5,30h-8c-0.276,0-0.5,0.224-0.5,0.5c0,0.276,0.224,0.5,0.5,0.5h8c0.275,0,0.5-0.224,0.5-0.5
			C36,30.224,35.775,30,35.5,30z"/>
	</g>
</g>
<g>
	<g>
		<path fill-rule="evenodd" clip-rule="evenodd" fill="#FFFFFF" d="M104,39c0-0.553-0.447-1-1-1h-2c-0.553,0-1,0.447-1,1
			s0.447,1,1,1h2C103.553,40,104,39.553,104,39z M101,32h2c0.553,0,1-0.448,1-1s-0.447-1-1-1h-2c-0.553,0-1,0.448-1,1
			S100.447,32,101,32z M124,19.062L122,19c0-0.552-0.447-1-1-1h-18c-0.553,0-1,0.448-1,1v1.938h1c0,0,1.97,0.188,1.97,2
			c0,0,0.042,2.003-2.021,2.003L102,25l0.062,3.938h0.934c0,0,1.995,0,1.995,2.125c0,0-0.129,1.938-2.004,1.938l-0.941,0
			l-0.017,3.937h0.996c0,0,1.934,0.062,1.934,2.062c0,0,0.059,2.062-2.004,2.062L102.013,41L102,43c0,0,1.188,3,2.938,3h19.125
			c0,0,0.938-0.188,0.938-0.938v-25C125,20.062,124.812,19.062,124,19.062z M107,25h13v8h-13V25z M123.031,43.062
			c0,0,0.031,0.938-1.031,0.938h-17c0,0-1.031-0.344-1.031-1.031L121,43c0.553,0,1-0.447,1-1V19.906l1.031,0.344V43.062z M101,24h2
			c0.553,0,1-0.448,1-1s-0.447-1-1-1h-2c-0.553,0-1,0.448-1,1S100.447,24,101,24z M117.5,27h-8c-0.276,0-0.5,0.224-0.5,0.5
			c0,0.276,0.224,0.5,0.5,0.5h8c0.275,0,0.5-0.224,0.5-0.5C118,27.224,117.775,27,117.5,27z M117.5,30h-8
			c-0.276,0-0.5,0.224-0.5,0.5c0,0.276,0.224,0.5,0.5,0.5h8c0.275,0,0.5-0.224,0.5-0.5C118,30.224,117.775,30,117.5,30z"/>
	</g>
</g>
</svg>
