<?xml version="1.0" encoding="utf-8"?>
<!-- Generator: Adobe Illustrator 15.0.0, SVG Export Plug-In . SVG Version: 6.00 Build 0)  -->
<!DOCTYPE svg PUBLIC "-//W3C//DTD SVG 1.1//EN" "../../../../www.w3.org/Graphics/SVG/1.1/DTD/svg11.dtd">
<svg version="1.1" id="Layer_1" xmlns="http://www.w3.org/2000/svg" xmlns:xlink="../../../../www.w3.org/1999/xlink" x="0px" y="0px"
	 width="144px" height="66px" viewBox="0 0 144 66" enable-background="new 0 0 144 66" xml:space="preserve">
<g>
	<g>
		<path fill-rule="evenodd" clip-rule="evenodd" fill="#282828" d="M42.333,23L21,23.083c0,0-1,0-0.917,0.917l3,18.917
			c0,0,1.083,1.083,1.833,1.083h12.667c0,0,1.417-0.417,1.5-1L43,24C43,24,43.083,23,42.333,23z M31.226,25.945L33,25.941
			c0.445,0,0.334,0.26,0.334,0.26l1.634,2.215l1.021-0.493c0.26-0.186,0.26,0.483,0.26,0.483l-0.877,2.29
			c-0.111,0.482-0.445,0.223-0.445,0.223l-3.008-0.331c-0.334-0.111,0.037-0.334,0.037-0.334l0.989-0.803l-2.089-3.06
			C30.483,25.908,31.226,25.945,31.226,25.945z M25.698,36.908l-0.852-1.557c-0.213-0.391,0.069-0.418,0.069-0.418l1.165-2.493
			l-0.921-0.662c-0.287-0.14,0.3-0.458,0.3-0.458l2.82-0.807c0.478-0.133,0.367,0.743,0.367,0.743l0.799,2.825
			c0.062,0.347-0.312,0.127-0.312,0.127l-1.178-0.484l-1.69,3.297C26.02,37.578,25.698,36.908,25.698,36.908z M29.837,37.903
			l-3.054,0.04l1.137-2.047l1.958,0.055c0.583,0.063,0.456,0.683,0.456,0.683l0.036,0.853C30.27,37.922,29.837,37.903,29.837,37.903
			z M29.94,29.8c-0.334,0.483-0.816,0.075-0.816,0.075l-0.753-0.749c-0.334-0.297-0.111-0.668-0.111-0.668l1.384-2.101l1.315,1.867
			L29.94,29.8z M37.77,36.552l-1.015,1.205c-0.256,0.365-0.405,0.124-0.405,0.124l-2.459,0.067l-0.016,1.285
			c0.003,0.319-0.544-0.188-0.544-0.188l-1.84-1.883c-0.331-0.368,0.073-0.493,0.073-0.493l2.008-2.216
			c0.283-0.209,0.252,0.223,0.252,0.223l0.09,1.271l3.705,0.045C38.227,35.965,37.77,36.552,37.77,36.552z M35.693,34.991
			l-0.8-1.776c-0.203-0.55,0.408-0.711,0.408-0.711l1.045-0.562c0.435-0.103,0.611,0.334,0.611,0.334l1.019,2.711L35.693,34.991z
			 M43,20H20c-0.552,0-1,0.448-1,1c0,0.553,0.448,1,1,1h23c0.552,0,1-0.447,1-1C44,20.448,43.552,20,43,20z"/>
	</g>
</g>
<g>
	<g>
		<path fill-rule="evenodd" clip-rule="evenodd" fill="#FFFFFF" d="M125,20h-23c-0.553,0-1,0.448-1,1c0,0.553,0.447,1,1,1h23
			c0.553,0,1-0.447,1-1C126,20.448,125.553,20,125,20z M124.334,23L103,23.083c0,0-1,0-0.916,0.917l3,18.917
			c0,0,1.082,1.083,1.832,1.083h12.668c0,0,1.416-0.417,1.5-1L125,24C125,24,125.084,23,124.334,23z M113.226,25.945L115,25.941
			c0.445,0,0.334,0.26,0.334,0.26l1.633,2.215l1.021-0.493c0.26-0.186,0.26,0.483,0.26,0.483l-0.877,2.29
			c-0.111,0.482-0.445,0.223-0.445,0.223l-3.008-0.331c-0.334-0.111,0.037-0.334,0.037-0.334l0.988-0.803l-2.089-3.06
			C112.482,25.908,113.226,25.945,113.226,25.945z M107.697,36.908l-0.852-1.557c-0.213-0.391,0.069-0.418,0.069-0.418l1.165-2.493
			l-0.921-0.662c-0.287-0.14,0.3-0.458,0.3-0.458l2.82-0.807c0.479-0.133,0.367,0.743,0.367,0.743l0.799,2.825
			c0.062,0.347-0.311,0.127-0.311,0.127l-1.178-0.484l-1.69,3.297C108.02,37.578,107.697,36.908,107.697,36.908z M111.837,37.903
			l-3.054,0.04l1.137-2.047l1.959,0.055c0.584,0.063,0.455,0.683,0.455,0.683l0.037,0.853
			C112.27,37.922,111.837,37.903,111.837,37.903z M111.94,29.8c-0.334,0.483-0.816,0.075-0.816,0.075l-0.753-0.749
			c-0.334-0.297-0.111-0.668-0.111-0.668l1.384-2.101l1.315,1.867L111.94,29.8z M119.77,36.552l-1.014,1.205
			c-0.256,0.365-0.405,0.124-0.405,0.124l-2.46,0.067l-0.016,1.285c0.003,0.319-0.545-0.188-0.545-0.188l-1.84-1.883
			c-0.331-0.368,0.073-0.493,0.073-0.493l2.008-2.216c0.282-0.209,0.252,0.223,0.252,0.223l0.091,1.271l3.704,0.045
			C120.227,35.965,119.77,36.552,119.77,36.552z M117.693,34.991l-0.801-1.776c-0.203-0.55,0.408-0.711,0.408-0.711l1.045-0.562
			c0.436-0.103,0.611,0.334,0.611,0.334l1.02,2.711L117.693,34.991z"/>
	</g>
</g>
</svg>
