<?xml version="1.0" encoding="utf-8"?>
<!-- Generator: Adobe Illustrator 15.0.0, SVG Export Plug-In . SVG Version: 6.00 Build 0)  -->
<!DOCTYPE svg PUBLIC "-//W3C//DTD SVG 1.1//EN" "../../../../www.w3.org/Graphics/SVG/1.1/DTD/svg11.dtd">
<svg version="1.1" id="Layer_1" xmlns="http://www.w3.org/2000/svg" xmlns:xlink="../../../../www.w3.org/1999/xlink" x="0px" y="0px"
	 width="144px" height="66px" viewBox="0 0 144 66" enable-background="new 0 0 144 66" xml:space="preserve">
<g>
	<g>
		<path fill-rule="evenodd" clip-rule="evenodd" fill="#282828" d="M42.938,31v-3H41v4h1C43.062,32,42.938,31,42.938,31z M19,23h2
			c0.553,0,1-0.447,1-1s-0.447-1-1-1h-2c-0.553,0-1,0.447-1,1S18.447,23,19,23z M42.938,21v-3H41v4h1C43.062,22,42.938,21,42.938,21
			z M42.938,26v-3H41v4h1C43.062,27,42.938,26,42.938,26z M32.02,27.216c-0.475,0-0.883,0.295-1.225,0.885
			c-0.342,0.591-0.512,1.161-0.512,1.713c0,0.333,0.076,0.664,0.229,0.869s0.367,0.308,0.646,0.308c0.486,0,0.887-0.433,1.199-1.174
			c0.312-0.74,0.469-1.322,0.469-1.746c0-0.241-0.074-0.444-0.219-0.608C32.461,27.298,32.266,27.216,32.02,27.216z M19,31h2
			c0.553,0,1-0.448,1-1c0-0.553-0.447-1-1-1h-2c-0.553,0-1,0.447-1,1C18,30.552,18.447,31,19,31z M41.031,32.938v9.125
			c0,0,0.031,0.938-1.031,0.938H23c0,0-1.031-0.344-1.031-1.031L39,42c0.553,0,1-0.448,1-1V18c0-0.553-0.447-1-1-1H21
			c-0.553,0-1,0.447-1,1v1.938h1c0,0,1.969,0.188,1.969,2.001c0,0,0.043,2.003-2.02,2.003L20,24l0.062,3.938h0.934
			c0,0,1.994-0.001,1.994,2.124c0,0-0.129,1.938-2.004,1.938l-0.941,0.001l-0.016,3.937h0.996c0,0,1.932,0.062,1.932,2.062
			c0,0,0.061,2.062-2.002,2.062L20.012,40L20,42c0,0,1.188,3,2.938,3h19.125c0,0,0.938-0.188,0.938-0.938V32.938H41.031z
			 M27.686,25.527c1.129-1.098,2.576-1.585,4.34-1.585c1.436,0,2.625,0.313,3.568,1.065c0.994,0.793,1.428,1.846,1.428,3.158
			c0,1.034-0.252,1.922-0.881,2.662c-0.629,0.741-1.346,1.174-2.152,1.174c-0.42,0-0.742-0.181-0.969-0.418
			c-0.225-0.237-0.338-0.48-0.338-0.731c0-0.032,0.002-0.067,0.004-0.105c0.002-0.039,0.006-0.081,0.01-0.127
			c-0.174,0.328-0.367,0.59-0.58,0.786c-0.389,0.351-0.854,0.589-1.395,0.589c-0.553,0-1.012-0.261-1.379-0.657
			s-0.549-0.95-0.549-1.661c0-0.825,0.279-1.598,0.84-2.317s1.248-1.08,2.064-1.08c0.479,0,0.85,0.132,1.115,0.396
			c0.199,0.205,0.334,0.439,0.402,0.704l0.246-0.861h1.293l-0.875,2.967c-0.068,0.241-0.119,0.421-0.148,0.536
			c-0.029,0.116-0.043,0.218-0.043,0.305c0,0.137,0.045,0.266,0.137,0.387c0.09,0.12,0.236,0.243,0.438,0.243
			c0.391,0,0.785-0.318,1.178-0.832C35.834,29.611,36,28.932,36,28.084c0-1.253-0.506-2.153-1.582-2.7
			c-0.674-0.347-1.434-0.457-2.275-0.457c-1.551,0-2.795,0.411-3.732,1.359c-0.848,0.856-1.367,1.885-1.367,3.083
			c0,1.331,0.592,2.573,1.586,3.353c0.879,0.688,1.951,1.282,3.219,1.282c0.865,0,1.676-0.159,2.428-0.479
			c0.41-0.169,0.834-0.408,1.271-0.718l0.164-0.116l0.498,0.766c-0.646,0.501-1.348,0.883-2.102,1.146
			c-0.754,0.262-1.537,0.393-2.348,0.393c-1.893,0-3.389-0.838-4.428-2.014c-0.861-0.976-1.354-2.318-1.354-3.653
			C25.979,27.833,26.609,26.566,27.686,25.527z M22,38c0-0.553-0.447-1-1-1h-2c-0.553,0-1,0.447-1,1c0,0.552,0.447,1,1,1h2
			C21.553,39,22,38.552,22,38z"/>
	</g>
</g>
<g>
	<g>
		<path fill-rule="evenodd" clip-rule="evenodd" fill="#FFFFFF" d="M124.938,21v-3H123v4h1C125.062,22,124.938,21,124.938,21z
			 M124.938,31v-3H123v4h1C125.062,32,124.938,31,124.938,31z M124.938,26v-3H123v4h1C125.062,27,124.938,26,124.938,26z M101,23h2
			c0.553,0,1-0.447,1-1s-0.447-1-1-1h-2c-0.553,0-1,0.447-1,1S100.447,23,101,23z M114.02,27.216c-0.475,0-0.883,0.295-1.225,0.885
			c-0.342,0.591-0.512,1.161-0.512,1.713c0,0.333,0.076,0.664,0.229,0.869s0.367,0.308,0.646,0.308c0.486,0,0.887-0.433,1.199-1.174
			c0.312-0.74,0.469-1.322,0.469-1.746c0-0.241-0.074-0.444-0.219-0.608C114.461,27.298,114.266,27.216,114.02,27.216z M101,31h2
			c0.553,0,1-0.448,1-1c0-0.553-0.447-1-1-1h-2c-0.553,0-1,0.447-1,1C100,30.552,100.447,31,101,31z M123.031,32.938v9.125
			c0,0,0.031,0.938-1.031,0.938h-17c0,0-1.031-0.344-1.031-1.031L121,42c0.553,0,1-0.448,1-1V18c0-0.553-0.447-1-1-1h-18
			c-0.553,0-1,0.447-1,1v1.938h1c0,0,1.969,0.188,1.969,2.001c0,0,0.043,2.003-2.02,2.003L102,24l0.062,3.938h0.934
			c0,0,1.994-0.001,1.994,2.124c0,0-0.129,1.938-2.004,1.938l-0.941,0.001l-0.016,3.937h0.996c0,0,1.932,0.062,1.932,2.062
			c0,0,0.061,2.062-2.002,2.062L102.012,40L102,42c0,0,1.188,3,2.938,3h19.125c0,0,0.938-0.188,0.938-0.938V32.938H123.031z
			 M109.686,25.527c1.129-1.098,2.576-1.585,4.34-1.585c1.436,0,2.625,0.313,3.568,1.065c0.994,0.793,1.428,1.846,1.428,3.158
			c0,1.034-0.252,1.922-0.881,2.662c-0.629,0.741-1.346,1.174-2.152,1.174c-0.42,0-0.742-0.181-0.969-0.418
			c-0.225-0.237-0.338-0.48-0.338-0.731c0-0.032,0.002-0.067,0.004-0.105c0.002-0.039,0.006-0.081,0.01-0.127
			c-0.174,0.328-0.367,0.59-0.58,0.786c-0.389,0.351-0.854,0.589-1.395,0.589c-0.553,0-1.012-0.261-1.379-0.657
			s-0.549-0.95-0.549-1.661c0-0.825,0.279-1.598,0.84-2.317s1.248-1.08,2.064-1.08c0.479,0,0.85,0.132,1.115,0.396
			c0.199,0.205,0.334,0.439,0.402,0.704l0.246-0.861h1.293l-0.875,2.967c-0.068,0.241-0.119,0.421-0.148,0.536
			c-0.029,0.116-0.043,0.218-0.043,0.305c0,0.137,0.045,0.266,0.137,0.387c0.09,0.12,0.236,0.243,0.438,0.243
			c0.391,0,0.785-0.318,1.178-0.832c0.395-0.513,0.561-1.192,0.561-2.04c0-1.253-0.506-2.153-1.582-2.7
			c-0.674-0.347-1.434-0.457-2.275-0.457c-1.551,0-2.795,0.411-3.732,1.359c-0.848,0.856-1.367,1.885-1.367,3.083
			c0,1.331,0.592,2.573,1.586,3.353c0.879,0.688,1.951,1.282,3.219,1.282c0.865,0,1.676-0.159,2.428-0.479
			c0.41-0.169,0.834-0.408,1.271-0.718l0.164-0.116l0.498,0.766c-0.646,0.501-1.348,0.883-2.102,1.146
			c-0.754,0.262-1.537,0.393-2.348,0.393c-1.893,0-3.389-0.838-4.428-2.014c-0.861-0.976-1.354-2.318-1.354-3.653
			C107.979,27.833,108.609,26.566,109.686,25.527z M104,38c0-0.553-0.447-1-1-1h-2c-0.553,0-1,0.447-1,1c0,0.552,0.447,1,1,1h2
			C103.553,39,104,38.552,104,38z"/>
	</g>
</g>
</svg>
