<?xml version="1.0" encoding="utf-8"?>
<!-- Generator: Adobe Illustrator 15.0.0, SVG Export Plug-In . SVG Version: 6.00 Build 0)  -->
<!DOCTYPE svg PUBLIC "-//W3C//DTD SVG 1.1//EN" "../../../../www.w3.org/Graphics/SVG/1.1/DTD/svg11.dtd">
<svg version="1.1" id="Layer_1" xmlns="http://www.w3.org/2000/svg" xmlns:xlink="../../../../www.w3.org/1999/xlink" x="0px" y="0px"
	 width="144px" height="66px" viewBox="0 0 144 66" enable-background="new 0 0 144 66" xml:space="preserve">
<g>
	<g>
		<path fill-rule="evenodd" clip-rule="evenodd" fill="#282828" d="M36.367,19.031c-4.63,0-8.384,3.379-8.384,8.009h-9.968
			C18.015,27.04,16,27,16,29l0.08,11.917c0,0-0.08,2.083,1.75,2.083h16.333c0,0,1.836,0,1.836-2.083V29.271c0,0,0-2.271-1.836-2.25
			h-4.156c0-3.636,2.947-6.084,6.583-6.084c3.636,0,6.583,2.364,6.583,6c0.583,0.834,1.825,0.02,1.825,0.02
			C45,22.327,40.997,19.031,36.367,19.031z M27.107,35.845c-0.159,0.061,1.017,5.201,1.017,5.201l-4.06,0.027
			c0,0,1.301-5.088,0.996-5.191c-1.188-0.405-2.042-1.53-2.042-2.855c0-1.665,1.35-3.016,3.016-3.016s3.016,1.351,3.016,3.016
			C29.049,34.313,28.243,35.412,27.107,35.845z"/>
	</g>
</g>
<g>
	<g>
		<path fill-rule="evenodd" clip-rule="evenodd" fill="#FFFFFF" d="M118.367,19.031c-4.631,0-8.385,3.379-8.385,8.009h-9.968
			c0,0-2.015-0.04-2.015,1.96l0.08,11.917c0,0-0.08,2.083,1.75,2.083h16.334c0,0,1.836,0,1.836-2.083V29.271c0,0,0-2.271-1.836-2.25
			h-4.156c0-3.636,2.947-6.084,6.584-6.084c3.635,0,6.583,2.364,6.583,6c0.583,0.834,1.825,0.02,1.825,0.02
			C127,22.327,122.996,19.031,118.367,19.031z M109.107,35.845c-0.158,0.061,1.017,5.201,1.017,5.201l-4.06,0.027
			c0,0,1.301-5.088,0.996-5.191c-1.188-0.405-2.043-1.53-2.043-2.855c0-1.665,1.35-3.016,3.016-3.016s3.016,1.351,3.016,3.016
			C111.049,34.313,110.242,35.412,109.107,35.845z"/>
	</g>
</g>
</svg>
