<?xml version="1.0" encoding="utf-8"?>
<!-- Generator: Adobe Illustrator 15.0.0, SVG Export Plug-In . SVG Version: 6.00 Build 0)  -->
<!DOCTYPE svg PUBLIC "-//W3C//DTD SVG 1.1//EN" "../../../../www.w3.org/Graphics/SVG/1.1/DTD/svg11.dtd">
<svg version="1.1" id="Layer_1" xmlns="http://www.w3.org/2000/svg" xmlns:xlink="../../../../www.w3.org/1999/xlink" x="0px" y="0px"
	 width="144px" height="66px" viewBox="0 0 144 66" enable-background="new 0 0 144 66" xml:space="preserve">
<g>
	<g>
		<path fill="#282828" d="M34.477,34.141h1.487v-2.925h2.69v-1.09h-2.69v-0.962h3.116v-1.09h-4.604V34.141z M43.375,24.072
			c0,0-1.365,0-3.188,0l-0.223-0.154C38.287,21.096,35.168,19,31.125,19c-4.058,0-7.542,2.113-9.044,4.955l-0.237,0.117
			c-0.923,0-2.844,0-2.844,0c-2.209,0-4,1.791-4,4v6C15,36.281,16.791,38,19,38c0,0,0.784,0,2.75,0l0.223,0.227
			c0.928,2.488,4.797,4.836,8.84,4.836c4.058,0,7.875-2.115,9.044-4.873L40.094,38C41.254,38,42,38,42,38c2.209,0,4-1.719,4-3.928
			v-6C46,25.863,45.584,24.072,43.375,24.072z M26.984,28.105H28v0.986h-1.016V28.105z M24.984,34.06h-1.381l-1.283-4.266
			l-1.278,4.266h-1.411l-1.538-5.954h1.332l0.972,4.487l1.177-4.487h1.548l1.129,4.562l0.988-4.562h1.311L24.984,34.06z
			 M26.984,30.162H28v3.991h-1.016V30.162z M45,34.072c0,1.656-1.343,3-3,3L30,37.01c0,0-1.312,0.031-3,0.062
			c4.708-2.604,3.709-5.119,3.994-7.662c0.161-3.434,0.828-4.244,2.943-4.41C31.875,24.938,42,25,42,25c1.657,0,3,1.416,3,3.072
			V34.072z M40.144,29.154h0.86v-1.08h-0.86V29.154z M40.144,34.141h0.86V30.1h-0.86V34.141z"/>
	</g>
</g>
<g>
	<g>
		<path fill="#FFFFFF" d="M116.477,34.141h1.487v-2.925h2.69v-1.09h-2.69v-0.962h3.116v-1.09h-4.604V34.141z M125.375,24.072
			c0,0-1.365,0-3.188,0l-0.223-0.154c-1.678-2.822-4.797-4.918-8.84-4.918c-4.058,0-7.542,2.113-9.044,4.955l-0.237,0.117
			c-0.923,0-2.844,0-2.844,0c-2.209,0-4,1.791-4,4v6C97,36.281,98.791,38,101,38c0,0,0.784,0,2.75,0l0.223,0.227
			c0.928,2.488,4.797,4.836,8.84,4.836c4.058,0,7.875-2.115,9.044-4.873L122.094,38c1.16,0,1.906,0,1.906,0c2.209,0,4-1.719,4-3.928
			v-6C128,25.863,127.584,24.072,125.375,24.072z M108.984,28.105H110v0.986h-1.016V28.105z M106.984,34.06h-1.381l-1.283-4.266
			l-1.278,4.266h-1.411l-1.538-5.954h1.332l0.972,4.487l1.177-4.487h1.548l1.129,4.562l0.988-4.562h1.311L106.984,34.06z
			 M108.984,30.162H110v3.991h-1.016V30.162z M127,34.072c0,1.656-1.343,3-3,3l-12-0.062c0,0-1.312,0.031-3,0.062
			c4.708-2.604,3.709-5.119,3.994-7.662c0.161-3.434,0.828-4.244,2.943-4.41c-2.062-0.062,8.062,0,8.062,0c1.657,0,3,1.416,3,3.072
			V34.072z M122.144,29.154h0.86v-1.08h-0.86V29.154z M122.144,34.141h0.86V30.1h-0.86V34.141z"/>
	</g>
</g>
</svg>
