<?xml version="1.0" encoding="utf-8"?>
<!-- Generator: Adobe Illustrator 15.0.0, SVG Export Plug-In . SVG Version: 6.00 Build 0)  -->
<!DOCTYPE svg PUBLIC "-//W3C//DTD SVG 1.1//EN" "../../../../www.w3.org/Graphics/SVG/1.1/DTD/svg11.dtd">
<svg version="1.1" id="Layer_1" xmlns="http://www.w3.org/2000/svg" xmlns:xlink="../../../../www.w3.org/1999/xlink" x="0px" y="0px"
	 width="144px" height="66px" viewBox="0 0 144 66" enable-background="new 0 0 144 66" xml:space="preserve">
<g>
	<g>
		<path fill-rule="evenodd" clip-rule="evenodd" fill="#282828" d="M42.591,19.153l-2.33-1.556c0,0-2.43-1.018-3.543,1.017
			l-1.17,1.848c4.469,1.75,5.955,4.822,5.955,4.822l2.062-2.298C43.564,22.986,45.026,21.238,42.591,19.153z M31.604,21.226
			l0.017-1.239c0-1,1.031-0.969,1.031-0.969h1v-1.969l-5-0.031v2h1c0.938,0,1,0.969,1,0.969l-0.031,1.238
			c-6.051,0.254-10.879,5.239-10.879,11.353c0,3.246,1.36,6.174,3.542,8.244l-0.042,0.258c-0.795,1.633-1.651,2.883-1.651,2.883
			L21.616,45l0.955-0.007c0,0,1.047-1.332,1.875-2.975l0.197-0.092c1.834,1.27,4.061,1.98,6.461,1.98
			c2.414,0,4.653-0.72,6.494-2.004l0.17,0.104c0.953,1.892,1.869,2.986,1.869,2.986L40.593,45l0.026-1.038
			c0,0-0.675-1.075-1.591-2.957l-0.059-0.226c2.155-2.068,3.498-4.979,3.498-8.202C42.468,26.469,37.647,21.486,31.604,21.226z
			 M31.612,40.962l0.012-2.945l-1.02-0.015c0,0-0.1,2.17-0.045,2.972c-4.277-0.235-7.712-3.636-8-7.899
			c-0.006-0.084,3.021-0.075,3.021-0.075l0.023-0.966c0,0-1.788-0.131-3.043-0.124c0.305-4.221,3.693-7.619,7.924-7.892
			c0.075,0.341,0.119,2.984,0.119,2.984l0.424-0.009l-0.394,5.265l-4.413,4.906l5.127-4.194c0.173-0.079,0.293-0.25,0.3-0.452h0.003
			l-0.001-0.012c0-0.001,0.001-0.002,0.001-0.004H31.65l-0.384-5.515l0.312-0.007c0,0-0.001-2.543,0.042-2.961
			c4.225,0.285,7.602,3.631,7.887,7.857c0.008,0.102-2.928,0.13-2.928,0.13l0.025,0.964c0,0,1.964,0.004,2.938,0.064
			C39.249,37.405,35.806,40.646,31.612,40.962z M26.692,20.462l-1.17-1.848c-1.113-2.034-3.543-1.017-3.543-1.017l-2.33,1.556
			c-2.436,2.085-0.974,3.833-0.974,3.833l2.062,2.298C20.738,25.284,22.224,22.212,26.692,20.462z"/>
	</g>
</g>
<g>
	<g>
		<path fill-rule="evenodd" clip-rule="evenodd" fill="#FFFFFF" d="M113.604,21.226l0.017-1.239c0-1,1.031-0.969,1.031-0.969h1
			v-1.969l-5-0.031v2h1c0.938,0,1,0.969,1,0.969l-0.031,1.238c-6.051,0.254-10.879,5.239-10.879,11.353
			c0,3.246,1.36,6.174,3.542,8.244l-0.042,0.258c-0.795,1.633-1.651,2.883-1.651,2.883L103.616,45l0.955-0.007
			c0,0,1.047-1.332,1.875-2.975l0.197-0.092c1.834,1.27,4.061,1.98,6.461,1.98c2.414,0,4.653-0.72,6.494-2.004l0.17,0.104
			c0.953,1.892,1.869,2.986,1.869,2.986L122.593,45l0.026-1.038c0,0-0.675-1.075-1.591-2.957l-0.059-0.226
			c2.155-2.068,3.498-4.979,3.498-8.202C124.468,26.469,119.647,21.486,113.604,21.226z M113.612,40.962l0.012-2.945l-1.02-0.015
			c0,0-0.1,2.17-0.045,2.972c-4.277-0.235-7.712-3.636-8-7.899c-0.006-0.084,3.021-0.075,3.021-0.075l0.023-0.966
			c0,0-1.788-0.131-3.043-0.124c0.305-4.221,3.693-7.619,7.924-7.892c0.075,0.341,0.119,2.984,0.119,2.984l0.424-0.009l-0.394,5.265
			l-4.413,4.906l5.127-4.194c0.173-0.079,0.293-0.25,0.3-0.452h0.003l-0.001-0.012c0-0.001,0.001-0.002,0.001-0.004h-0.001
			l-0.385-5.515l0.312-0.007c0,0-0.001-2.543,0.042-2.961c4.225,0.285,7.602,3.631,7.887,7.857c0.008,0.102-2.928,0.13-2.928,0.13
			l0.025,0.964c0,0,1.964,0.004,2.938,0.064C121.249,37.405,117.806,40.646,113.612,40.962z M124.591,19.153l-2.33-1.556
			c0,0-2.43-1.018-3.543,1.017l-1.17,1.848c4.469,1.75,5.955,4.822,5.955,4.822l2.062-2.298
			C125.564,22.986,127.026,21.238,124.591,19.153z M108.692,20.462l-1.17-1.848c-1.113-2.034-3.543-1.017-3.543-1.017l-2.33,1.556
			c-2.436,2.085-0.974,3.833-0.974,3.833l2.062,2.298C102.738,25.284,104.224,22.212,108.692,20.462z"/>
	</g>
</g>
</svg>
