<?xml version="1.0" encoding="utf-8"?>
<!-- Generator: Adobe Illustrator 15.0.0, SVG Export Plug-In . SVG Version: 6.00 Build 0)  -->
<!DOCTYPE svg PUBLIC "-//W3C//DTD SVG 1.1//EN" "../../../../www.w3.org/Graphics/SVG/1.1/DTD/svg11.dtd">
<svg version="1.1" id="Layer_1" xmlns="http://www.w3.org/2000/svg" xmlns:xlink="../../../../www.w3.org/1999/xlink" x="0px" y="0px"
	 width="144px" height="66px" viewBox="0 0 144 66" enable-background="new 0 0 144 66" xml:space="preserve">
<g>
	<g>
		<path fill-rule="evenodd" clip-rule="evenodd" fill="#282828" d="M38.975,28.062L36.912,18H25.1l-2.094,10.062
			c0,0-0.469,5.938,7.031,5.938L30,44.062c0,0-0.213,0.938-0.9,0.938h-2.062c0,0-0.938,0.188-0.938,1h10c0,0,0-1-1-1l-2.188,0.062
			c0,0-0.938,0.062-0.938-0.938V34C31.975,34,38.975,33.562,38.975,28.062z M30.938,32.997c-6.312,0-6.901-4.253-6.901-4.253
			c0-0.906,1.938-9.744,1.938-9.744h10l2.086,9.715C35.779,33.527,30.938,32.997,30.938,32.997z M35.967,25.015
			c-6.845,0-9.966-0.015-9.966-0.015c-0.376,1.917-0.745,3.781-0.745,3.781c0.188,0.594,1.594,3.25,5.656,3.25
			c4.375,0,5.75-3.156,5.75-3.156C36.648,28.402,35.967,25.015,35.967,25.015z"/>
	</g>
</g>
<g>
	<g>
		<path fill-rule="evenodd" clip-rule="evenodd" fill="#FFFFFF" d="M120.975,28.062L118.912,18H107.1l-2.094,10.062
			c0,0-0.469,5.938,7.031,5.938L112,44.062c0,0-0.213,0.938-0.9,0.938h-2.062c0,0-0.938,0.188-0.938,1h10c0,0,0-1-1-1l-2.188,0.062
			c0,0-0.938,0.062-0.938-0.938V34C113.975,34,120.975,33.562,120.975,28.062z M112.938,32.997c-6.312,0-6.901-4.253-6.901-4.253
			c0-0.906,1.938-9.744,1.938-9.744h10l2.086,9.715C117.779,33.527,112.938,32.997,112.938,32.997z M117.967,25.015
			c-6.845,0-9.966-0.015-9.966-0.015c-0.376,1.917-0.745,3.781-0.745,3.781c0.188,0.594,1.594,3.25,5.656,3.25
			c4.375,0,5.75-3.156,5.75-3.156C118.648,28.402,117.967,25.015,117.967,25.015z"/>
	</g>
</g>
</svg>
