<?xml version="1.0" encoding="utf-8"?>
<!-- Generator: Adobe Illustrator 15.0.0, SVG Export Plug-In . SVG Version: 6.00 Build 0)  -->
<!DOCTYPE svg PUBLIC "-//W3C//DTD SVG 1.1//EN" "../../../../www.w3.org/Graphics/SVG/1.1/DTD/svg11.dtd">
<svg version="1.1" id="Layer_1" xmlns="http://www.w3.org/2000/svg" xmlns:xlink="../../../../www.w3.org/1999/xlink" x="0px" y="0px"
	 width="144px" height="66px" viewBox="0 0 144 66" enable-background="new 0 0 144 66" xml:space="preserve">
<g>
	<g>
		<path fill="#282828" d="M31.006,17.989C23.271,17.989,17,24.26,17,31.994C17,39.729,23.271,46,31.006,46
			S45.01,39.729,45.01,31.994C45.01,24.26,38.74,17.989,31.006,17.989z M32.602,37.595c-0.555,0.219-0.797,0.15-1.127,0.265
			c-0.332,0.115-0.716,0.173-1.153,0.173c-0.673,0-1.196-0.164-1.569-0.492s-0.695-0.745-0.695-1.25
			c0-0.196,0.015-0.397,0.043-0.602c0.027-0.205,0.072-0.77,0.135-1.028l0.964-2.256c0.062-0.235,0.114-0.458,0.156-0.669
			c0.042-0.21,0.063-0.233,0.063-0.408c0-0.313-0.199-0.532-0.329-0.656c-0.13-0.123-0.68-0.185-1.046-0.185
			c-0.18,0-0.363,0.028-0.553,0.084c-0.188,0.056-0.35,0.109-0.484,0.16l0.051-0.927c0.455-0.185,1.327-0.444,1.743-0.576
			c0.415-0.132,0.809-0.198,1.18-0.198c0.669,0,1.184,0.162,1.546,0.484s0.812,0.844,0.812,1.359c0,0.106-0.012,0.294-0.037,0.563
			s-0.072,0.517-0.139,0.741L31.2,34.425c-0.057,0.196-0.107,0.421-0.152,0.674c-0.045,0.252-0.067,0.776-0.067,0.905
			c0,0.325,0.072,0.547,0.219,0.665c0.146,0.117,0.297,0.311,0.655,0.311c0.486,0,0.457,0.082,0.933-0.143L32.602,37.595z
			 M33.019,27.452c-0.322,0.3-0.711,0.518-1.165,0.518c-0.455,0-0.845-0.218-1.17-0.518c-0.326-0.301-0.488-0.697-0.488-1.124
			s0.162-0.824,0.488-1.128c0.325-0.303,0.715-0.488,1.17-0.488c0.454,0,0.843,0.152,1.165,0.455
			c0.323,0.303,0.483,0.734,0.483,1.161S33.342,27.151,33.019,27.452z"/>
	</g>
</g>
<g>
	<g>
		<path fill="#FFFFFF" d="M113.006,17.989C105.271,17.989,99,24.26,99,31.994C99,39.729,105.271,46,113.006,46
			s14.004-6.271,14.004-14.006C127.01,24.26,120.74,17.989,113.006,17.989z M114.602,37.595c-0.555,0.219-0.797,0.15-1.127,0.265
			c-0.332,0.115-0.716,0.173-1.153,0.173c-0.673,0-1.196-0.164-1.569-0.492s-0.695-0.745-0.695-1.25
			c0-0.196,0.015-0.397,0.043-0.602c0.027-0.205,0.072-0.77,0.135-1.028l0.964-2.256c0.062-0.235,0.114-0.458,0.156-0.669
			c0.042-0.21,0.063-0.233,0.063-0.408c0-0.313-0.199-0.532-0.329-0.656c-0.13-0.123-0.68-0.185-1.046-0.185
			c-0.18,0-0.363,0.028-0.553,0.084c-0.188,0.056-0.35,0.109-0.484,0.16l0.051-0.927c0.455-0.185,1.327-0.444,1.743-0.576
			c0.415-0.132,0.809-0.198,1.18-0.198c0.669,0,1.184,0.162,1.546,0.484s0.812,0.844,0.812,1.359c0,0.106-0.012,0.294-0.037,0.563
			s-0.072,0.517-0.139,0.741l-0.962,2.247c-0.057,0.196-0.107,0.421-0.152,0.674c-0.045,0.252-0.067,0.776-0.067,0.905
			c0,0.325,0.072,0.547,0.219,0.665c0.146,0.117,0.297,0.311,0.655,0.311c0.486,0,0.457,0.082,0.933-0.143L114.602,37.595z
			 M115.019,27.452c-0.322,0.3-0.711,0.518-1.165,0.518c-0.455,0-0.845-0.218-1.17-0.518c-0.326-0.301-0.488-0.697-0.488-1.124
			s0.162-0.824,0.488-1.128c0.325-0.303,0.715-0.488,1.17-0.488c0.454,0,0.843,0.152,1.165,0.455
			c0.323,0.303,0.483,0.734,0.483,1.161S115.342,27.151,115.019,27.452z"/>
	</g>
</g>
</svg>
