<?xml version="1.0" encoding="utf-8"?>
<!-- Generator: Adobe Illustrator 15.0.0, SVG Export Plug-In . SVG Version: 6.00 Build 0)  -->
<!DOCTYPE svg PUBLIC "-//W3C//DTD SVG 1.1//EN" "../../../../www.w3.org/Graphics/SVG/1.1/DTD/svg11.dtd">
<svg version="1.1" id="Layer_1" xmlns="http://www.w3.org/2000/svg" xmlns:xlink="../../../../www.w3.org/1999/xlink" x="0px" y="0px"
	 width="144px" height="66px" viewBox="0 0 144 66" enable-background="new 0 0 144 66" xml:space="preserve">
<path fill-rule="evenodd" clip-rule="evenodd" fill="#282828" d="M23.062,42.969c0,0,3.562,1.094,7.938,1.094
	c0,0,3.312,0.031,7-1.094v-15L42.033,30c0,0,0.514,0.452,0.938-0.031c0.238-0.285,2.08-2.976,2.873-4.289
	c0.373-0.631-0.029-0.68-0.029-0.68l-6.781-4c0,0-0.812-1-3.062-1h-1.938c0,0,0.092,4.031-4.033,4.031c0,0-3.062-0.25-3-4.031
	h-1.938c0,0-2.312,0.188-3.125,1l-5.975,3.49l-0.816,0.479c0,0-0.282,0.344,0.03,0.938l2.886,4.125c0,0,0.469,0.406,1-0.062l4.01-2
	L23.062,42.969z"/>
<path fill-rule="evenodd" clip-rule="evenodd" fill="#FFFFFF" d="M105.062,42.969c0,0,3.562,1.094,7.938,1.094
	c0,0,3.312,0.031,7-1.094v-15L124.033,30c0,0,0.514,0.452,0.938-0.031c0.238-0.285,2.08-2.976,2.873-4.289
	c0.373-0.631-0.029-0.68-0.029-0.68l-6.781-4c0,0-0.812-1-3.062-1h-1.938c0,0,0.092,4.031-4.033,4.031c0,0-3.062-0.25-3-4.031
	h-1.938c0,0-2.312,0.188-3.125,1l-5.975,3.49l-0.816,0.479c0,0-0.282,0.344,0.03,0.938l2.886,4.125c0,0,0.469,0.406,1-0.062l4.01-2
	L105.062,42.969z"/>
</svg>
