<?xml version="1.0" encoding="utf-8"?>
<!-- Generator: Adobe Illustrator 15.0.0, SVG Export Plug-In . SVG Version: 6.00 Build 0)  -->
<!DOCTYPE svg PUBLIC "-//W3C//DTD SVG 1.1//EN" "../../../../www.w3.org/Graphics/SVG/1.1/DTD/svg11.dtd">
<svg version="1.1" id="Layer_1" xmlns="http://www.w3.org/2000/svg" xmlns:xlink="../../../../www.w3.org/1999/xlink" x="0px" y="0px"
	 width="144px" height="66px" viewBox="0 0 144 66" enable-background="new 0 0 144 66" xml:space="preserve">
<g>
	<g>
		<path fill-rule="evenodd" clip-rule="evenodd" fill="#282828" d="M31,19c-7.18,0-13,5.82-13,13s5.82,13,13,13s13-5.82,13-13
			S38.18,19,31,19z M28.981,25.667c0-0.995,0.995-1.802,1.989-1.802c0.996,0,2.029,0.807,2.029,1.802v7.512
			c0,0.995-1.221,1.803-2.217,1.803c-0.994,0-1.802-0.808-1.802-1.803V25.667z M31.033,40.032c-1.126,0-2.038-0.912-2.038-2.037
			c0-1.126,0.912-2.038,2.038-2.038c1.125,0,2.037,0.912,2.037,2.038C33.07,39.12,32.158,40.032,31.033,40.032z"/>
	</g>
</g>
<g>
	<g>
		<path fill-rule="evenodd" clip-rule="evenodd" fill="#FFFFFF" d="M113,19c-7.18,0-13,5.82-13,13s5.82,13,13,13s13-5.82,13-13
			S120.18,19,113,19z M110.981,25.667c0-0.995,0.995-1.802,1.989-1.802c0.996,0,2.029,0.807,2.029,1.802v7.512
			c0,0.995-1.221,1.803-2.217,1.803c-0.994,0-1.802-0.808-1.802-1.803V25.667z M113.033,40.032c-1.126,0-2.038-0.912-2.038-2.037
			c0-1.126,0.912-2.038,2.038-2.038c1.125,0,2.037,0.912,2.037,2.038C115.07,39.12,114.158,40.032,113.033,40.032z"/>
	</g>
</g>
</svg>
