<?xml version="1.0" encoding="utf-8"?>
<!-- Generator: Adobe Illustrator 15.0.0, SVG Export Plug-In . SVG Version: 6.00 Build 0)  -->
<!DOCTYPE svg PUBLIC "-//W3C//DTD SVG 1.1//EN" "../../../../www.w3.org/Graphics/SVG/1.1/DTD/svg11.dtd">
<svg version="1.1" id="Layer_1" xmlns="http://www.w3.org/2000/svg" xmlns:xlink="../../../../www.w3.org/1999/xlink" x="0px" y="0px"
	 width="144px" height="66px" viewBox="0 0 144 66" enable-background="new 0 0 144 66" xml:space="preserve">
<g>
	<g>
		<path fill-rule="evenodd" clip-rule="evenodd" fill="#282828" d="M31.031,17.938C23.282,17.938,17,24.22,17,31.969
			S23.282,46,31.031,46s14.031-6.282,14.031-14.031S39.32,17.938,31.031,17.938z M36.167,23.458l0.5-1.167
			c0,0,0.077-0.578,0.148-1.107c0.244-0.115,1.228,0.4,2.061,1.273C38.312,24.542,37,24.292,37,24.292S36.042,24.271,36.167,23.458z
			 M33.625,23.562c0.125-0.25,0.438-0.375,0.75-0.5s0,0.562-0.062,0.938s-0.125,0.562,0.312,1s-0.812,0.125-1.125-0.125
			S33.625,23.562,33.625,23.562z M27.75,35.75c-0.062,0.312-0.438,1.062-0.688,1.562S26.688,38,26.375,38.25s-0.5,0.688-0.5,0.688
			L25.812,40c0,0,0.312,0.688,0.5,1s-0.375,1.875-0.375,1.875c-0.542-0.104-0.917-0.25-1.104-0.75s-0.458-0.375-0.396-0.938
			s-0.875-1.25-1.062-1.562s-0.438-0.75-0.438-1.062s-0.688-0.75-0.688-0.75S21,37.25,20.812,37s-0.375-1.312-0.438-1.75
			s0.188-1.562,0.188-1.562s0.5-0.375,0.188-0.688s-0.375-1.125-0.375-1.125l-0.562-0.625c0,0-0.438-0.625-0.5-0.938
			s0-0.5,0.062-0.812s-0.125-0.875-0.125-1.188c2.333-5.726,6.25-7.062,6.25-7.062l0.312,1.312c0,0-0.688,0.188-1.062,0.062
			S24.188,22.5,24.188,22.5l-0.5,0.688c0,0-0.188,0.438-0.25,0.688s0.125,0.625,0.125,0.625s0.875,0.062,0.875-0.188
			s-0.125-0.375-0.125-0.375L24.188,23.5c0,0,0.562-0.312,2.062-0.188s0.938,1.188,1.562,1.438s-0.5,1.125-0.75,1.625
			s-0.625-0.625-0.625-0.625s0.375-0.438-0.25-0.562s-0.75,0.688-0.438,0.625s0.375,0.375,0.312,0.688S26,27.188,25.688,27.875
			s-1.5,0.688-1.5,0.688s0.188,0.312,0.375,0.688S24.5,30.5,24.5,30.75s-0.75-0.438-0.875-1.062s-0.5-0.438-0.75-0.375
			s-1.062,0.25-1.188-0.062s-1.25,0.625-1.562,0.812s-0.188,0.688,0.312,0.438s0.938-0.062,0.812,0.438s-0.625,0.188-0.562,0.5
			s0.562,0.625,0.688,1.062s1.312,0.062,1.688-0.125S24.5,32,24.625,32.5s1.312,0.688,1.75,0.812S27.688,33.5,28.188,34
			S27.812,35.438,27.75,35.75z M30.562,21.125c-0.062,0.625-1.062,1.438-0.938,1.688s0,2.188-0.875,1.25s-1.75-2.125-1.688-2.75
			c0.013-0.126,0.027-0.323,0.042-0.54c1.326-1.231,4.321-0.979,4.479-0.689C31.208,20.708,30.625,20.5,30.562,21.125z M32,24.812
			c-0.188-0.312,0.438-0.5,0.438-0.5c0.875,0.188,0.5,0.688,0.438,0.938S32.188,25.125,32,24.812z M41.875,32.271
			c0,0,0.481,0.709,1.167,0.667c-0.45,5.227-4.812,8.584-4.812,8.584c-0.667-0.667-0.333-1.25-0.333-1.25l0.188-1l0.104-1.688
			c0,0,0-1.75-1.667-0.917c-1.792,0.458-1.042,0.458-2.854,0.583s-1.125-3.312-1.125-3.312c-0.104-1.5,0.167-1.125,0.167-2.292
			c0-1.166,3.833-0.5,3.833-0.5c2.5,1.667,2.833-0.375,2.833-0.375l1.833-0.667l0.167-0.833l-1-1.167l-1.5-0.667
			c0,0-0.688,0.438,0,1.5c0,0-0.229,1.208-0.792,0.896l-1.542-1.896c0,0-0.521,0.896-1.354,1.396s-2.25-0.021-2.25-0.021
			s-0.458-1.417,0.417-1.854l1.292,0.104c0,0-0.188-0.854-0.021-1.521c0.167-0.667,0.458-0.083,1.125-0.583s1.125,0.979,2.125,0.812
			c1-0.167,0.5-0.333,1.167-0.667c0.667-0.333,1.167,0.667,1.167,0.667l1.333,0.167c0,0-0.004-0.635-0.125-1.13
			c-0.219-0.375-0.413-0.593-0.542-0.536c0.29-0.145,0.449,0.156,0.542,0.536c0.844,1.441,2.088,5.332,1.631,6.024
			c-0.276-0.124-0.506-0.227-0.506-0.227h-1.667L41.875,32.271z"/>
	</g>
</g>
<g>
	<g>
		<path fill-rule="evenodd" clip-rule="evenodd" fill="#FFFFFF" d="M113.031,17.938C105.282,17.938,99,24.22,99,31.969
			S105.282,46,113.031,46s14.031-6.282,14.031-14.031S121.32,17.938,113.031,17.938z M118.166,23.458l0.5-1.167
			c0,0,0.078-0.578,0.148-1.107c0.244-0.115,1.228,0.4,2.061,1.273c-0.562,2.083-1.875,1.833-1.875,1.833
			S118.041,24.271,118.166,23.458z M115.625,23.562c0.125-0.25,0.438-0.375,0.75-0.5s0,0.562-0.062,0.938s-0.125,0.562,0.312,1
			s-0.812,0.125-1.125-0.125S115.625,23.562,115.625,23.562z M109.75,35.75c-0.062,0.312-0.438,1.062-0.688,1.562
			s-0.375,0.688-0.688,0.938s-0.5,0.688-0.5,0.688L107.812,40c0,0,0.312,0.688,0.5,1s-0.375,1.875-0.375,1.875
			c-0.541-0.104-0.916-0.25-1.104-0.75s-0.459-0.375-0.396-0.938s-0.875-1.25-1.062-1.562s-0.438-0.75-0.438-1.062
			s-0.688-0.75-0.688-0.75S103,37.25,102.812,37s-0.375-1.312-0.438-1.75s0.188-1.562,0.188-1.562s0.5-0.375,0.188-0.688
			s-0.375-1.125-0.375-1.125l-0.562-0.625c0,0-0.438-0.625-0.5-0.938s0-0.5,0.062-0.812s-0.125-0.875-0.125-1.188
			c2.334-5.726,6.25-7.062,6.25-7.062l0.312,1.312c0,0-0.688,0.188-1.062,0.062s-0.562-0.125-0.562-0.125l-0.5,0.688
			c0,0-0.188,0.438-0.25,0.688s0.125,0.625,0.125,0.625s0.875,0.062,0.875-0.188s-0.125-0.375-0.125-0.375l-0.125-0.438
			c0,0,0.562-0.312,2.062-0.188s0.938,1.188,1.562,1.438s-0.5,1.125-0.75,1.625s-0.625-0.625-0.625-0.625s0.375-0.438-0.25-0.562
			s-0.75,0.688-0.438,0.625s0.375,0.375,0.312,0.688s-0.062,0.688-0.375,1.375s-1.5,0.688-1.5,0.688s0.188,0.312,0.375,0.688
			s-0.062,1.25-0.062,1.5s-0.75-0.438-0.875-1.062s-0.5-0.438-0.75-0.375s-1.062,0.25-1.188-0.062s-1.25,0.625-1.562,0.812
			s-0.188,0.688,0.312,0.438s0.938-0.062,0.812,0.438s-0.625,0.188-0.562,0.5s0.562,0.625,0.688,1.062s1.312,0.062,1.688-0.125
			S106.5,32,106.625,32.5s1.312,0.688,1.75,0.812s1.312,0.188,1.812,0.688S109.812,35.438,109.75,35.75z M112.562,21.125
			c-0.062,0.625-1.062,1.438-0.938,1.688s0,2.188-0.875,1.25s-1.75-2.125-1.688-2.75c0.013-0.126,0.027-0.323,0.042-0.54
			c1.326-1.231,4.321-0.979,4.479-0.689C113.209,20.708,112.625,20.5,112.562,21.125z M114,24.812c-0.188-0.312,0.438-0.5,0.438-0.5
			c0.875,0.188,0.5,0.688,0.438,0.938S114.188,25.125,114,24.812z M123.875,32.271c0,0,0.48,0.709,1.166,0.667
			c-0.449,5.227-4.812,8.584-4.812,8.584c-0.666-0.667-0.332-1.25-0.332-1.25l0.188-1l0.104-1.688c0,0,0-1.75-1.666-0.917
			c-1.793,0.458-1.043,0.458-2.855,0.583s-1.125-3.312-1.125-3.312c-0.104-1.5,0.168-1.125,0.168-2.292c0-1.166,3.832-0.5,3.832-0.5
			c2.5,1.667,2.834-0.375,2.834-0.375l1.834-0.667l0.166-0.833l-1-1.167l-1.5-0.667c0,0-0.688,0.438,0,1.5
			c0,0-0.229,1.208-0.791,0.896l-1.543-1.896c0,0-0.52,0.896-1.354,1.396s-2.25-0.021-2.25-0.021s-0.459-1.417,0.416-1.854
			l1.293,0.104c0,0-0.188-0.854-0.021-1.521c0.166-0.667,0.459-0.083,1.125-0.583s1.125,0.979,2.125,0.812
			c1-0.167,0.5-0.333,1.166-0.667c0.668-0.333,1.168,0.667,1.168,0.667l1.332,0.167c0,0-0.004-0.636-0.125-1.131
			c-0.22-0.375-0.413-0.592-0.541-0.535c0.289-0.145,0.448,0.155,0.541,0.535c0.844,1.441,2.089,5.333,1.632,6.025
			c-0.276-0.124-0.507-0.227-0.507-0.227h-1.666L123.875,32.271z"/>
	</g>
</g>
</svg>
