<?xml version="1.0" encoding="utf-8"?>
<!-- Generator: Adobe Illustrator 15.0.0, SVG Export Plug-In . SVG Version: 6.00 Build 0)  -->
<!DOCTYPE svg PUBLIC "-//W3C//DTD SVG 1.1//EN" "../../../../www.w3.org/Graphics/SVG/1.1/DTD/svg11.dtd">
<svg version="1.1" id="Layer_1" xmlns="http://www.w3.org/2000/svg" xmlns:xlink="../../../../www.w3.org/1999/xlink" x="0px" y="0px"
	 width="144px" height="66px" viewBox="0 0 144 66" enable-background="new 0 0 144 66" xml:space="preserve">
<g>
	<g>
		<path fill-rule="evenodd" clip-rule="evenodd" fill="#282828" d="M43,31.045c0,0-16.415,0-20.938,0l0.702-0.498
			c5.195-3,16.694-10.217,16.694-10.217c0.479-0.275,0.643-0.887,0.366-1.365l-1-2.465c-0.276-0.479-0.888-0.642-1.366-0.365
			l-18.918,11.5c-0.479,0.275-0.643,0.887-0.366,1.365L20,30.965V46c0,0.553,0.447,1,1,1h22c0.553,0,1-0.447,1-1V32.045
			C44,31.492,43.553,31.045,43,31.045z M35.861,18.5l3.098,0.965l-3.464,2L32.397,20.5L35.861,18.5z M28.933,22.5l3.099,0.965
			l-3.464,2L25.469,24.5L28.933,22.5z M19.567,28.484l3.438-1.984l3.098,0.965l-3.518,2.031L19.567,28.484z M23.938,35.045
			L21.031,32H25l3,3.045H23.938z M31,35.045L27.917,32H32l3,3.045H31z M39,35.045L36,32h4l3,3.045H39z"/>
	</g>
</g>
<g>
	<g>
		<path fill-rule="evenodd" clip-rule="evenodd" fill="#FFFFFF" d="M125,31.045c0,0-16.415,0-20.938,0l0.702-0.498
			c5.195-3,16.694-10.217,16.694-10.217c0.479-0.275,0.643-0.887,0.366-1.365l-1-2.465c-0.276-0.479-0.888-0.642-1.366-0.365
			l-18.918,11.5c-0.479,0.275-0.643,0.887-0.366,1.365L102,30.965V46c0,0.553,0.447,1,1,1h22c0.553,0,1-0.447,1-1V32.045
			C126,31.492,125.553,31.045,125,31.045z M117.861,18.5l3.098,0.965l-3.464,2l-3.098-0.965L117.861,18.5z M110.933,22.5
			l3.099,0.965l-3.464,2l-3.099-0.965L110.933,22.5z M101.567,28.484l3.438-1.984l3.098,0.965l-3.518,2.031L101.567,28.484z
			 M105.938,35.045L103.031,32H107l3,3.045H105.938z M113,35.045L109.917,32H114l3,3.045H113z M121,35.045L118,32h4l3,3.045H121z"/>
	</g>
</g>
</svg>
