<?xml version="1.0" encoding="utf-8"?>
<!-- Generator: Adobe Illustrator 15.0.0, SVG Export Plug-In . SVG Version: 6.00 Build 0)  -->
<!DOCTYPE svg PUBLIC "-//W3C//DTD SVG 1.1//EN" "../../../../www.w3.org/Graphics/SVG/1.1/DTD/svg11.dtd">
<svg version="1.1" id="Layer_1" xmlns="http://www.w3.org/2000/svg" xmlns:xlink="../../../../www.w3.org/1999/xlink" x="0px" y="0px"
	 width="144px" height="66px" viewBox="0 0 144 66" enable-background="new 0 0 144 66" xml:space="preserve">
<g>
	<g>
		<path fill-rule="evenodd" clip-rule="evenodd" fill="#282828" d="M31.521,17c-7.996,0-14.479,6.482-14.479,14.479
			s6.482,14.479,14.479,14.479S46,39.475,46,31.479S39.518,17,31.521,17z M36.764,20.322c2.481,1.185,4.51,3.164,5.759,5.608
			l-3.867,2.989c-0.694-1.935-2.152-3.504-4.011-4.346L36.764,20.322z M26.081,20.285l2.268,4.311
			c-1.829,0.844-3.264,2.396-3.955,4.304l-4.188-2.9C21.465,23.497,23.54,21.476,26.081,20.285z M25.824,42.814
			c-2.254-1.121-4.122-2.901-5.351-5.09l4.174-3.053c0.775,1.666,2.14,3.004,3.826,3.746L25.824,42.814z M25.979,31.479
			c0-3.061,2.481-5.542,5.542-5.542c3.061,0,5.542,2.481,5.542,5.542s-2.481,5.542-5.542,5.542
			C28.46,37.021,25.979,34.539,25.979,31.479z M37.048,42.76l-2.192-4.475c1.529-0.75,2.768-2.001,3.504-3.538l3.889,3.053
			C41.04,39.918,39.228,41.649,37.048,42.76z"/>
	</g>
</g>
<g>
	<g>
		<path fill-rule="evenodd" clip-rule="evenodd" fill="#FFFFFF" d="M113.521,17c-7.996,0-14.479,6.482-14.479,14.479
			s6.482,14.479,14.479,14.479S128,39.475,128,31.479S121.518,17,113.521,17z M118.764,20.322c2.48,1.185,4.51,3.164,5.76,5.608
			l-3.867,2.989c-0.694-1.935-2.152-3.504-4.012-4.346L118.764,20.322z M108.081,20.285l2.268,4.311
			c-1.829,0.844-3.264,2.396-3.954,4.304l-4.188-2.9C103.465,23.497,105.54,21.476,108.081,20.285z M107.824,42.814
			c-2.254-1.121-4.122-2.901-5.351-5.09l4.174-3.053c0.775,1.666,2.14,3.004,3.825,3.746L107.824,42.814z M107.979,31.479
			c0-3.061,2.481-5.542,5.542-5.542s5.542,2.481,5.542,5.542s-2.481,5.542-5.542,5.542S107.979,34.539,107.979,31.479z
			 M119.049,42.76l-2.193-4.475c1.529-0.75,2.768-2.001,3.504-3.538l3.889,3.053C123.039,39.918,121.229,41.649,119.049,42.76z"/>
	</g>
</g>
</svg>
