<?xml version="1.0" encoding="utf-8"?>
<!-- Generator: Adobe Illustrator 15.0.0, SVG Export Plug-In . SVG Version: 6.00 Build 0)  -->
<!DOCTYPE svg PUBLIC "-//W3C//DTD SVG 1.1//EN" "../../../../www.w3.org/Graphics/SVG/1.1/DTD/svg11.dtd">
<svg version="1.1" id="Layer_1" xmlns="http://www.w3.org/2000/svg" xmlns:xlink="../../../../www.w3.org/1999/xlink" x="0px" y="0px"
	 width="144px" height="66px" viewBox="0 0 144 66" enable-background="new 0 0 144 66" xml:space="preserve">
<g>
	<g>
		<path fill-rule="evenodd" clip-rule="evenodd" fill="#282828" d="M40,28c0,0-0.813-1.008-2.001-1.008l-0.062,0.002L35.594,31
			h3.469c0,0,0.5,0.219,0.938,0.938L42.062,36h-7.031c-0.938,0-1,0.938-1,0.938V39c0,0.875-1,1-1,1h-3.094c-1,0-1-1-1-1v-1.875
			c0-1.125-1-1.125-1-1.125h-7.062l1.969-4.062c0,0,0.321-0.978,1.062-0.938h3.625l-2.344-4.004l-0.12,0.003
			c0,0-1.192,0.032-2.067,0.97c0,0-6,6.927-6,8.031v6c0,1.104,0.896,2,2,2h25c1.104,0,2-0.896,2-2v-6C46,34.896,40,28,40,28z
			 M30.982,31.576c0.274,0.723,0.863,0.197,0.863,0.197l3.899-4.764c0.576-0.684-0.694-0.992-0.694-0.992l-2.095-0.008
			c0,0-0.911-6.739,5.045-5.958c0,0-8.139-2.183-8.063,5.933l-1.866-0.014c-1.644-0.133-0.874,0.998-0.874,0.998L30.982,31.576z"/>
	</g>
</g>
<g>
	<g>
		<path fill-rule="evenodd" clip-rule="evenodd" fill="#FFFFFF" d="M122,28c0,0-0.813-1.008-2.001-1.008l-0.062,0.002L117.594,31
			h3.469c0,0,0.5,0.219,0.938,0.938L124.062,36h-7.031c-0.938,0-1,0.938-1,0.938V39c0,0.875-1,1-1,1h-3.094c-1,0-1-1-1-1v-1.875
			c0-1.125-1-1.125-1-1.125h-7.062l1.969-4.062c0,0,0.321-0.978,1.062-0.938h3.625l-2.344-4.004l-0.12,0.003
			c0,0-1.192,0.032-2.067,0.97c0,0-6,6.927-6,8.031v6c0,1.104,0.896,2,2,2h25c1.104,0,2-0.896,2-2v-6C128,34.896,122,28,122,28z
			 M112.982,31.576c0.274,0.723,0.863,0.197,0.863,0.197l3.899-4.764c0.576-0.684-0.694-0.992-0.694-0.992l-2.095-0.008
			c0,0-0.911-6.739,5.045-5.958c0,0-8.139-2.183-8.063,5.933l-1.866-0.014c-1.644-0.133-0.874,0.998-0.874,0.998L112.982,31.576z"/>
	</g>
</g>
</svg>
