<?xml version="1.0" encoding="utf-8"?>
<!-- Generator: Adobe Illustrator 15.0.0, SVG Export Plug-In . SVG Version: 6.00 Build 0)  -->
<!DOCTYPE svg PUBLIC "-//W3C//DTD SVG 1.1//EN" "../../../../www.w3.org/Graphics/SVG/1.1/DTD/svg11.dtd">
<svg version="1.1" id="Layer_1" xmlns="http://www.w3.org/2000/svg" xmlns:xlink="../../../../www.w3.org/1999/xlink" x="0px" y="0px"
	 width="144px" height="66px" viewBox="0 0 144 66" enable-background="new 0 0 144 66" xml:space="preserve">
<g>
	<g>
		<path fill-rule="evenodd" clip-rule="evenodd" fill="#282828" d="M41.051,31.469L28.913,20.487C28.147,19.722,17,20.087,17,20.087
			S16.841,32.902,17.5,33l12.424,10.439c0.781,0.781,2.047,0.781,2.828,0l7.591-8.435C41.406,33.786,42.395,32.344,41.051,31.469z
			 M22.923,25.53c-0.815,0.815-2.138,0.815-2.953,0s-0.815-2.138,0-2.953s2.138-0.815,2.953,0S23.739,24.715,22.923,25.53z
			 M42.863,30.344l-10.325-9.731c-0.704-0.578-2.246-0.494-2.246-0.494l11.37,10.652c1.938,1.219,0.606,3.356,0.606,3.356
			s-8.826,9.663-8.658,9.754c0.757,0.407,1.722,0.198,2.361-0.441l6.935-8.372C44.469,32.849,44.27,31.656,42.863,30.344z"/>
	</g>
</g>
<g>
	<g>
		<path fill-rule="evenodd" clip-rule="evenodd" fill="#FFFFFF" d="M123.051,31.469l-12.138-10.981
			c-0.767-0.766-11.913-0.4-11.913-0.4S98.842,32.902,99.5,33l12.425,10.439c0.78,0.781,2.048,0.781,2.828,0l7.591-8.435
			C123.406,33.786,124.395,32.344,123.051,31.469z M104.924,25.53c-0.816,0.815-2.139,0.815-2.953,0
			c-0.816-0.815-0.816-2.138,0-2.953c0.814-0.815,2.137-0.815,2.953,0C105.738,23.393,105.738,24.715,104.924,25.53z
			 M124.863,30.344l-10.325-9.731c-0.704-0.578-2.245-0.494-2.245-0.494l11.369,10.652c1.938,1.219,0.606,3.356,0.606,3.356
			s-8.826,9.663-8.658,9.754c0.757,0.407,1.722,0.198,2.361-0.441l6.935-8.372C126.469,32.849,126.27,31.656,124.863,30.344z"/>
	</g>
</g>
</svg>
