<?xml version="1.0" encoding="utf-8"?>
<!-- Generator: Adobe Illustrator 15.0.0, SVG Export Plug-In . SVG Version: 6.00 Build 0)  -->
<!DOCTYPE svg PUBLIC "-//W3C//DTD SVG 1.1//EN" "../../../../www.w3.org/Graphics/SVG/1.1/DTD/svg11.dtd">
<svg version="1.1" id="Layer_1" xmlns="http://www.w3.org/2000/svg" xmlns:xlink="../../../../www.w3.org/1999/xlink" x="0px" y="0px"
	 width="144px" height="66px" viewBox="0 0 144 66" enable-background="new 0 0 144 66" xml:space="preserve">
<g>
	<g>
		<path fill-rule="evenodd" clip-rule="evenodd" fill="#282828" d="M43.938,17.062L31,17c-0.552,0-1,0.448-1,1v28c0,0.553,1,1,1,1
			h13.062C44.615,47,45,46,45,46V18C45,17.448,44.49,17.062,43.938,17.062z M34,45h-2v-2h2V45z M34,42h-2v-2h2V42z M34,39h-2v-2h2
			V39z M34,36h-2v-2h2V36z M34,33h-2v-2h2V33z M34,30h-2v-2h2V30z M34,27h-2v-2h2V27z M34,24h-2v-2h2V24z M34,21h-2v-2h2V21z M37,42
			h-2v-2h2V42z M37,39h-2v-2h2V39z M37,36h-2v-2h2V36z M37,33h-2v-2h2V33z M37,30h-2v-2h2V30z M37,27h-2v-2h2V27z M37,24h-2v-2h2V24
			z M37,21h-2v-2h2V21z M40,42h-2v-2h2V42z M40,39h-2v-2h2V39z M40,36h-2v-2h2V36z M40,33h-2v-2h2V33z M40,30h-2v-2h2V30z M40,27h-2
			v-2h2V27z M40,24h-2v-2h2V24z M40,21h-2v-2h2V21z M43,45h-2v-2h2V45z M43,42h-2v-2h2V42z M43,39h-2v-2h2V39z M43,36h-2v-2h2V36z
			 M43,33h-2v-2h2V33z M43,30h-2v-2h2V30z M43,27h-2v-2h2V27z M43,24h-2v-2h2V24z M43,21h-2v-2h2V21z M28,28H18
			c-0.552,0-1,0.448-1,1v17c0,0.553,0.448,1,1,1h10c0.552,0,1-0.447,1-1V29C29,28.448,28.552,28,28,28z M21,45h-2v-3h2V45z M21,41
			h-2v-3h2V41z M21,37h-2v-3h2V37z M21,33h-2v-3h2V33z M24,41h-2v-3h2V41z M24,37h-2v-3h2V37z M24,33h-2v-3h2V33z M27,45h-2v-3h2V45
			z M27,41h-2v-3h2V41z M27,37h-2v-3h2V37z M27,33h-2v-3h2V33z"/>
	</g>
</g>
<g>
	<g>
		<path fill-rule="evenodd" clip-rule="evenodd" fill="#FFFFFF" d="M125.938,17.062L113,17c-0.553,0-1,0.448-1,1v28c0,0.553,1,1,1,1
			h13.062c0.553,0,0.938-1,0.938-1V18C127,17.448,126.49,17.062,125.938,17.062z M116,45h-2v-2h2V45z M116,42h-2v-2h2V42z M116,39
			h-2v-2h2V39z M116,36h-2v-2h2V36z M116,33h-2v-2h2V33z M116,30h-2v-2h2V30z M116,27h-2v-2h2V27z M116,24h-2v-2h2V24z M116,21h-2
			v-2h2V21z M119,42h-2v-2h2V42z M119,39h-2v-2h2V39z M119,36h-2v-2h2V36z M119,33h-2v-2h2V33z M119,30h-2v-2h2V30z M119,27h-2v-2h2
			V27z M119,24h-2v-2h2V24z M119,21h-2v-2h2V21z M122,42h-2v-2h2V42z M122,39h-2v-2h2V39z M122,36h-2v-2h2V36z M122,33h-2v-2h2V33z
			 M122,30h-2v-2h2V30z M122,27h-2v-2h2V27z M122,24h-2v-2h2V24z M122,21h-2v-2h2V21z M125,45h-2v-2h2V45z M125,42h-2v-2h2V42z
			 M125,39h-2v-2h2V39z M125,36h-2v-2h2V36z M125,33h-2v-2h2V33z M125,30h-2v-2h2V30z M125,27h-2v-2h2V27z M125,24h-2v-2h2V24z
			 M125,21h-2v-2h2V21z M110,28h-10c-0.553,0-1,0.448-1,1v17c0,0.553,0.447,1,1,1h10c0.553,0,1-0.447,1-1V29
			C111,28.448,110.553,28,110,28z M103,45h-2v-3h2V45z M103,41h-2v-3h2V41z M103,37h-2v-3h2V37z M103,33h-2v-3h2V33z M106,41h-2v-3
			h2V41z M106,37h-2v-3h2V37z M106,33h-2v-3h2V33z M109,45h-2v-3h2V45z M109,41h-2v-3h2V41z M109,37h-2v-3h2V37z M109,33h-2v-3h2V33
			z"/>
	</g>
</g>
</svg>
