<?xml version="1.0" encoding="utf-8"?>
<!-- Generator: Adobe Illustrator 15.0.0, SVG Export Plug-In . SVG Version: 6.00 Build 0)  -->
<!DOCTYPE svg PUBLIC "-//W3C//DTD SVG 1.1//EN" "../../../../www.w3.org/Graphics/SVG/1.1/DTD/svg11.dtd">
<svg version="1.1" id="Layer_1" xmlns="http://www.w3.org/2000/svg" xmlns:xlink="../../../../www.w3.org/1999/xlink" x="0px" y="0px"
	 width="144px" height="66px" viewBox="0 0 144 66" enable-background="new 0 0 144 66" xml:space="preserve">
<g>
	<g>
		<path fill="#282828" d="M27.032,31.072H23v-4.069h-2v9.96h2V33h4.032v3.994H29v-9.991h-1.968V31.072z M41,21H20
			c-2.762,0-5,2.238-5,5v12c0,2.762,2.238,5,5,5h21c2.762,0,5-2.238,5-5V26C46,23.238,43.762,21,41,21z M44,39c0,1.104-0.896,2-2,2
			H19c-1.104,0-2-0.896-2-2V25c0-1.104,0.896-2,2-2h23c1.104,0,2,0.896,2,2V39z M38.812,28.196
			c-0.449-0.474-0.703-0.803-1.332-0.989c-0.469-0.136-1.15-0.204-2.044-0.204h-3.404v9.929h3.521c0.801,0,1.44,0.019,1.919-0.133
			c0.64-0.205,1.147-0.634,1.523-1c0.498-0.483,0.596-1.115,0.864-1.896c0.22-0.641,0.329-0.545,0.329-1.429
			c0-1.006-0.117-1.852-0.352-2.538C39.604,29.25,39.262,28.67,38.812,28.196z M38.015,34.346c-0.146,0.48-0.461,0.25-0.692,0.46
			c-0.232,0.21-0.556,0.202-0.75,0.165c-0.27,0.068-0.706,0.072-1.312,0.072h-1.333v-6.131h0.975c0.883,0,1.19,0.035,1.493,0.104
			c0.405,0.088,0.74,0.256,1.004,0.505s0.469,0.596,0.615,1.04s0.22,0.988,0.22,1.818S38.161,33.864,38.015,34.346z"/>
	</g>
</g>
<g>
	<g>
		<path fill="#FFFFFF" d="M109.032,31.072H105v-4.069h-2v9.96h2V33h4.032v3.994H111v-9.991h-1.968V31.072z M123,21h-21
			c-2.762,0-5,2.238-5,5v12c0,2.762,2.238,5,5,5h21c2.762,0,5-2.238,5-5V26C128,23.238,125.762,21,123,21z M126,39
			c0,1.104-0.896,2-2,2h-23c-1.104,0-2-0.896-2-2V25c0-1.104,0.896-2,2-2h23c1.104,0,2,0.896,2,2V39z M120.812,28.196
			c-0.449-0.474-0.703-0.803-1.332-0.989c-0.469-0.136-1.15-0.204-2.044-0.204h-3.404v9.929h3.521c0.801,0,1.44,0.019,1.919-0.133
			c0.64-0.205,1.147-0.634,1.523-1c0.498-0.483,0.596-1.115,0.864-1.896c0.22-0.641,0.329-0.545,0.329-1.429
			c0-1.006-0.117-1.852-0.352-2.538C121.604,29.25,121.262,28.67,120.812,28.196z M120.015,34.346
			c-0.146,0.48-0.461,0.25-0.692,0.46c-0.232,0.21-0.556,0.202-0.75,0.165c-0.27,0.068-0.706,0.072-1.312,0.072h-1.333v-6.131h0.975
			c0.883,0,1.19,0.035,1.493,0.104c0.405,0.088,0.74,0.256,1.004,0.505s0.469,0.596,0.615,1.04s0.22,0.988,0.22,1.818
			S120.161,33.864,120.015,34.346z"/>
	</g>
</g>
</svg>
