<?xml version="1.0" encoding="utf-8"?>
<!-- Generator: Adobe Illustrator 15.0.0, SVG Export Plug-In . SVG Version: 6.00 Build 0)  -->
<!DOCTYPE svg PUBLIC "-//W3C//DTD SVG 1.1//EN" "../../../../www.w3.org/Graphics/SVG/1.1/DTD/svg11.dtd">
<svg version="1.1" id="Layer_1" xmlns="http://www.w3.org/2000/svg" xmlns:xlink="../../../../www.w3.org/1999/xlink" x="0px" y="0px"
	 width="144px" height="66px" viewBox="0 0 144 66" enable-background="new 0 0 144 66" xml:space="preserve">
<g>
	<g>
		<path fill-rule="evenodd" clip-rule="evenodd" fill="#282828" d="M44,20H19c-0.553,0-1,0.448-1,1v8c0,0.552,0.447,1,1,1v13
			c0,0-0.094,1,0.969,1h1.062c0,0,0.969-0.031,0.969-0.969V41h19.031l-0.021,1.906c0,1.011,0.989,1.053,0.989,1.053h1
			c1,0,1-1.104,1-1.104V30c0.553,0,1-0.448,1-1v-8C45,20.448,44.553,20,44,20z M37.031,21L29,29h-4l8.031-8H37.031z M18.979,21
			h2.084l-2.084,2V21z M21.031,29l-2.053-0.031V27l6.084-6h3.969L21.031,29z M22,36h1.062L22,37V36z M22,40v-0.969l4-3.062h2.969
			L24.053,40H22z M26.916,40l5.115-4h2.938l-4.938,4H26.916z M38.969,40l2-2L41,40H38.969z M36,40h-3l5.031-4L41,35.969L36,40z
			 M41,35H22v-5h19V35z M44,29h-2.969L44,26.031V29z M44,22l-6.969,7H33l8-8h3V22z"/>
	</g>
</g>
<g>
	<g>
		<path fill-rule="evenodd" clip-rule="evenodd" fill="#FFFFFF" d="M126,20h-25c-0.553,0-1,0.448-1,1v8c0,0.552,0.447,1,1,1v13
			c0,0-0.094,1,0.969,1h1.062c0,0,0.969-0.031,0.969-0.969V41h19.031l-0.021,1.906c0,1.011,0.989,1.053,0.989,1.053h1
			c1,0,1-1.104,1-1.104V30c0.553,0,1-0.448,1-1v-8C127,20.448,126.553,20,126,20z M119.031,21L111,29h-4l8.031-8H119.031z
			 M100.979,21h2.084l-2.084,2V21z M103.031,29l-2.053-0.031V27l6.084-6h3.969L103.031,29z M104,36h1.062L104,37V36z M104,40v-0.969
			l4-3.062h2.969L106.053,40H104z M108.916,40l5.115-4h2.938l-4.938,4H108.916z M120.969,40l2-2L123,40H120.969z M118,40h-3l5.031-4
			L123,35.969L118,40z M123,35h-19v-5h19V35z M126,29h-2.969L126,26.031V29z M126,22l-6.969,7H115l8-8h3V22z"/>
	</g>
</g>
</svg>
