<?xml version="1.0" encoding="utf-8"?>
<!-- Generator: Adobe Illustrator 15.0.0, SVG Export Plug-In . SVG Version: 6.00 Build 0)  -->
<!DOCTYPE svg PUBLIC "-//W3C//DTD SVG 1.1//EN" "../../../../www.w3.org/Graphics/SVG/1.1/DTD/svg11.dtd">
<svg version="1.1" id="Layer_1" xmlns="http://www.w3.org/2000/svg" xmlns:xlink="../../../../www.w3.org/1999/xlink" x="0px" y="0px"
	 width="144px" height="66px" viewBox="0 0 144 66" enable-background="new 0 0 144 66" xml:space="preserve">
<g>
	<g>
		<path fill-rule="evenodd" clip-rule="evenodd" fill="#282828" d="M23.438,27.96c1.393,0,2.521-1.129,2.521-2.522
			c0-1.393-1.129-2.521-2.521-2.521s-2.521,1.129-2.521,2.521C20.917,26.831,22.046,27.96,23.438,27.96z M31.031,31.146
			l-1.938-2.074l-5.031,5.896L22,33.084l-3,3.833h20.917v-3.833L35,26L31.031,31.146z M42.975,37.916V22c0-0.553-1.447-2-2-2H18
			c-0.553,0-2,1.447-2,2v15.916c0,0.553,1.447,2,2,2l22.975,0.031C41.527,39.947,42.975,38.969,42.975,37.916z M18,22h23v16.011H18
			V22z M44,23v15.24c0,0,0.448,2.76-1.614,2.76H19c0,0.553,1.447,1.979,2,1.979h22.975c0.553,0,2-1.51,2-2.062V25
			C45.975,24.447,44.553,23,44,23z"/>
	</g>
</g>
<g>
	<g>
		<path fill-rule="evenodd" clip-rule="evenodd" fill="#FFFFFF" d="M113.031,31.146l-1.938-2.074l-5.031,5.896L104,33.084l-3,3.833
			h20.917v-3.833L117,26L113.031,31.146z M105.438,27.96c1.393,0,2.521-1.129,2.521-2.522c0-1.393-1.129-2.521-2.521-2.521
			s-2.521,1.129-2.521,2.521C102.917,26.831,104.046,27.96,105.438,27.96z M124.975,37.916V22c0-0.553-1.447-2-2-2H100
			c-0.553,0-2,1.447-2,2v15.916c0,0.553,1.447,2,2,2l22.975,0.031C123.527,39.947,124.975,38.969,124.975,37.916z M100,22h23v16.011
			h-23V22z M126,23v15.24c0,0,0.448,2.76-1.614,2.76H101c0,0.553,1.447,1.979,2,1.979h22.975c0.553,0,2-1.51,2-2.062V25
			C127.975,24.447,126.553,23,126,23z"/>
	</g>
</g>
</svg>
