<?xml version="1.0" encoding="utf-8"?>
<!-- Generator: Adobe Illustrator 15.0.0, SVG Export Plug-In . SVG Version: 6.00 Build 0)  -->
<!DOCTYPE svg PUBLIC "-//W3C//DTD SVG 1.1//EN" "../../../../www.w3.org/Graphics/SVG/1.1/DTD/svg11.dtd">
<svg version="1.1" id="Layer_1" xmlns="http://www.w3.org/2000/svg" xmlns:xlink="../../../../www.w3.org/1999/xlink" x="0px" y="0px"
	 width="144px" height="66px" viewBox="0 0 144 66" enable-background="new 0 0 144 66" xml:space="preserve">
<g>
	<g>
		<path fill-rule="evenodd" clip-rule="evenodd" fill="#282828" d="M30.484,19c-6.422,0-10.453,1.378-10.453,3v20
			c0,1.623,4.896,3.031,10.297,3.031C36.667,45.031,41,43.623,41,42V22C41,20.378,36.656,19,30.484,19z M22,40.694V23.329
			c0.287,0.179,0.644,0.348,1.047,0.504c0.019,0.007,0.038-0.017,0.056-0.056c0.25-1.829,0.148-0.312,0,0
			c-0.014,0.101-0.027,0.202-0.043,0.324c-0.02,0.152-0.03,0.309-0.03,0.468c0,0.869,0.562,1.688,1.061,2.41
			c-0.212-0.308,2.347,4.438,4.97,5.03c0.174,0.039,0.154,0.194-0.03,0.237c-2.62,0.62-5.152,5.049-4.94,4.742
			c-0.498,0.722-1.061,2.41-1.061,2.41l0.062,0.689L22,40.694z M30.712,43.015h-0.337c-3.48,0-6.157-2.058-6.344-3.512
			c0-0.782,1.225-2.613,1.673-3.263c-0.19,0.276,1.964-2.74,4.321-3.299c0.007-0.001,0.01-0.022,0.016-0.029
			c-0.012,0.511-0.017,1.005-0.009,1.4v4.469c0,0,0.125,0.375-0.844,0.25S28.031,39.375,27.656,39s-0.188-0.812-0.562-0.812
			c0,0-0.812-0.438-1-0.062s-0.312,0.938-0.656,0.938s-0.625,0.594-0.25,0.781s2.125,2.188,5.25,2.188c0,0,2.719,0.219,5.125-2.125
			c0,0,0.844-0.812-0.156-0.875s-2.875-0.375-3.25,0.188s-0.906,1.031-1.031,0.656c-0.065-0.194-0.087-0.236-0.094-0.232v0.045
			c0,0-0.007-0.042,0-0.045L31,33.219c0,0-0.188-2.625,0.062-3.062s2.094-0.594,3.031-2.062c0,0-0.125-0.25-0.719-0.062
			s-1.156,1-1.562,0.938s-0.656-0.875-1.094-0.875S30,27.156,29.406,27.156s-1.562-0.25-1.969-0.094s-0.188,0.625,0.156,0.875
			s1.688,1.938,2.562,2.062c0,0-0.043,0.784-0.079,1.74c-0.032-0.369-0.087-0.686-0.151-0.7c-2.361-0.532-4.195-3.522-4.004-3.245
			c-0.449-0.65-1.799-2.325-1.799-3.107c0-0.096,0.004-0.188,0.011-0.28c0.187-2.411,0.05-0.206,0.05-0.206
			c1.678,0.458,3.884,0.799,6.3,0.799c2.519,0,4.81-0.364,6.512-0.858l0.058,0.483c0,0.782-0.975,1.926-1.423,2.576
			c0.198-0.287-2.105,3.639-4.49,3.911c-0.073,0.009-0.182,1.893-0.101,1.903c2.383,0.301,4.476,3.667,4.278,3.381
			c0.448,0.649,1.736,2.324,1.736,3.106C36.054,41.801,34.193,43.015,30.712,43.015z M39.009,40.584
			c-0.486-0.515-0.894-0.704-0.894-0.704s-0.093-0.517-0.093-0.605c0-0.869-0.625-1.313-1.061-2.285
			c0.219,0.317-2.314-4.395-4.962-4.729c-0.091-0.011-0.108-0.194-0.027-0.204c2.649-0.303,5.209-5.395,4.989-5.076
			c0.498-0.722,1.061-1.541,1.061-2.41c-0.062-0.713-0.036-0.762-0.036-0.762c0.405-0.16,0.758-0.334,1.051-0.518L39.009,40.584z"/>
	</g>
</g>
<g>
	<g>
		<path fill-rule="evenodd" clip-rule="evenodd" fill="#FFFFFF" d="M112.484,19c-6.422,0-10.453,1.378-10.453,3v20
			c0,1.623,4.896,3.031,10.297,3.031C118.667,45.031,123,43.623,123,42V22C123,20.378,118.656,19,112.484,19z M104,40.694V23.329
			c0.287,0.179,0.645,0.348,1.047,0.504c0.02,0.007,0.039-0.018,0.058-0.058c0.249-1.821,0.147-0.317,0,0
			c-0.014,0.102-0.028,0.203-0.044,0.326c-0.021,0.152-0.031,0.309-0.031,0.468c0,0.869,0.562,1.688,1.061,2.41
			c-0.212-0.308,2.348,4.438,4.971,5.03c0.174,0.039,0.154,0.194-0.029,0.237c-2.62,0.62-5.152,5.049-4.941,4.742
			c-0.498,0.722-1.061,2.41-1.061,2.41l0.062,0.689L104,40.694z M112.712,43.015h-0.337c-3.48,0-6.157-2.058-6.345-3.512
			c0-0.782,1.226-2.613,1.673-3.263c-0.19,0.276,1.964-2.74,4.321-3.299c0.007-0.001,0.01-0.022,0.016-0.029
			c-0.012,0.511-0.018,1.005-0.009,1.4v4.469c0,0,0.125,0.375-0.844,0.25s-1.156,0.344-1.531-0.031s-0.188-0.812-0.562-0.812
			c0,0-0.812-0.438-1-0.062s-0.312,0.938-0.656,0.938s-0.625,0.594-0.25,0.781s2.125,2.188,5.25,2.188c0,0,2.719,0.219,5.125-2.125
			c0,0,0.844-0.812-0.156-0.875s-2.875-0.375-3.25,0.188s-0.906,1.031-1.031,0.656c-0.064-0.194-0.087-0.236-0.094-0.232v0.045
			c0,0-0.007-0.042,0-0.045L113,33.219c0,0-0.188-2.625,0.062-3.062s2.094-0.594,3.031-2.062c0,0-0.125-0.25-0.719-0.062
			s-1.156,1-1.562,0.938s-0.656-0.875-1.094-0.875s-0.719-0.938-1.312-0.938s-1.562-0.25-1.969-0.094s-0.188,0.625,0.156,0.875
			s1.688,1.938,2.562,2.062c0,0-0.043,0.785-0.079,1.743c-0.032-0.37-0.087-0.688-0.151-0.703c-2.36-0.532-4.195-3.522-4.004-3.245
			c-0.448-0.65-1.799-2.325-1.799-3.107c0-0.096,0.004-0.188,0.012-0.28c0.187-2.411,0.049-0.206,0.049-0.206
			c1.678,0.458,3.885,0.799,6.301,0.799c2.52,0,4.81-0.364,6.512-0.858l0.058,0.483c0,0.782-0.976,1.926-1.423,2.576
			c0.197-0.287-2.105,3.639-4.49,3.911c-0.073,0.009-0.183,1.893-0.102,1.903c2.384,0.301,4.477,3.667,4.279,3.381
			c0.447,0.649,1.735,2.324,1.735,3.106C118.054,41.801,116.193,43.015,112.712,43.015z M121.009,40.584
			c-0.485-0.515-0.894-0.704-0.894-0.704s-0.094-0.517-0.094-0.605c0-0.869-0.625-1.313-1.061-2.285
			c0.219,0.317-2.314-4.395-4.962-4.729c-0.091-0.011-0.108-0.194-0.027-0.204c2.649-0.303,5.209-5.395,4.989-5.076
			c0.498-0.722,1.061-1.541,1.061-2.41c-0.062-0.713-0.035-0.762-0.035-0.762c0.404-0.16,0.758-0.334,1.051-0.518L121.009,40.584z"
			/>
	</g>
</g>
</svg>
