<?xml version="1.0" encoding="utf-8"?>
<!-- Generator: Adobe Illustrator 15.0.0, SVG Export Plug-In . SVG Version: 6.00 Build 0)  -->
<!DOCTYPE svg PUBLIC "-//W3C//DTD SVG 1.1//EN" "../../../../www.w3.org/Graphics/SVG/1.1/DTD/svg11.dtd">
<svg version="1.1" id="Layer_1" xmlns="http://www.w3.org/2000/svg" xmlns:xlink="../../../../www.w3.org/1999/xlink" x="0px" y="0px"
	 width="144px" height="66px" viewBox="0 0 144 66" enable-background="new 0 0 144 66" xml:space="preserve">
<g>
	<g>
		<path fill-rule="evenodd" clip-rule="evenodd" fill="#282828" d="M44.674,19.645l-2.126-2.222c0,0-0.634-0.865-1.378-0.122
			l-1.701,1.775l3.568,3.479l1.662-1.656C44.699,20.9,45.392,20.362,44.674,19.645z M33.863,31.75l8.5-8.259l-3.777-3.576
			l-8.589,8.509l-1.319,3.317l1.688,1.844L33.863,31.75z M41.531,26.303c-1.375,0-1.531,1.174-1.531,1.174V40c0,0.553-0.447,1-1,1
			H22c-0.553,0-1-0.447-1-1V23c0-0.553,0.447-1,1-1h12.405c0,0,1.147-0.5,1.147-1.469c0,0,0.066-1.531-1.059-1.531H21
			c-1.656,0-3,1.343-3,3v19c0,1.657,1.344,3,3,3h19c1.656,0,3-1.343,3-3V27.477C43,26.571,41.531,26.303,41.531,26.303z
			 M27.545,34.465l1.971-0.297l-1.537-1.43L27.545,34.465z"/>
	</g>
</g>
<g>
	<g>
		<path fill-rule="evenodd" clip-rule="evenodd" fill="#FFFFFF" d="M126.674,19.645l-2.126-2.222c0,0-0.634-0.865-1.378-0.122
			l-1.701,1.775l3.568,3.479l1.662-1.656C126.699,20.9,127.392,20.362,126.674,19.645z M115.863,31.75l8.5-8.259l-3.777-3.576
			l-8.589,8.509l-1.319,3.317l1.688,1.844L115.863,31.75z M123.531,26.303c-1.375,0-1.531,1.174-1.531,1.174V40c0,0.553-0.447,1-1,1
			h-17c-0.553,0-1-0.447-1-1V23c0-0.553,0.447-1,1-1h12.405c0,0,1.147-0.5,1.147-1.469c0,0,0.066-1.531-1.059-1.531H103
			c-1.656,0-3,1.343-3,3v19c0,1.657,1.344,3,3,3h19c1.656,0,3-1.343,3-3V27.477C125,26.571,123.531,26.303,123.531,26.303z
			 M109.545,34.465l1.971-0.297l-1.537-1.43L109.545,34.465z"/>
	</g>
</g>
</svg>
