<?xml version="1.0" encoding="utf-8"?>
<!-- Generator: Adobe Illustrator 15.0.0, SVG Export Plug-In . SVG Version: 6.00 Build 0)  -->
<!DOCTYPE svg PUBLIC "-//W3C//DTD SVG 1.1//EN" "../../../../www.w3.org/Graphics/SVG/1.1/DTD/svg11.dtd">
<svg version="1.1" id="Layer_1" xmlns="http://www.w3.org/2000/svg" xmlns:xlink="../../../../www.w3.org/1999/xlink" x="0px" y="0px"
	 width="144px" height="66px" viewBox="0 0 144 66" enable-background="new 0 0 144 66" xml:space="preserve">
<path fill-rule="evenodd" clip-rule="evenodd" fill="#282828" d="M20.625,40.999l19.625-0.01c0,0,1.188,0.062,1.562-1.312
	l3.125-10.688c0,0,0.562-1.989-1.562-1.989c0,0-15.688,0-20.062,0c-0.598,0-1.188,0.864-1.188,0.864l-2.062,12.062
	C20.062,39.927,19.938,40.999,20.625,40.999z M18.752,41c0,0-0.877-0.136-0.877-1.073l-1.812-16.625c0,0-0.062,0.875-0.062-0.312
	S16.938,22,16.938,22h8c1.19,0,1,1.052,1,1.052c0,0.875,1.125,1,1.125,1L40.982,24c1,0,0.875,1.052,0.875,1.052
	c0,0.875-0.938,0.938-0.938,0.938H22.812c-2.312,0-2,2-2,2L18.752,41z"/>
<path fill-rule="evenodd" clip-rule="evenodd" fill="#FFFFFF" d="M102.625,40.999l19.625-0.01c0,0,1.188,0.062,1.562-1.312
	l3.125-10.688c0,0,0.562-1.989-1.562-1.989c0,0-15.688,0-20.062,0c-0.598,0-1.188,0.864-1.188,0.864l-2.062,12.062
	C102.062,39.927,101.938,40.999,102.625,40.999z M100.752,41c0,0-0.877-0.136-0.877-1.073l-1.812-16.625
	c0,0-0.062,0.875-0.062-0.312S98.938,22,98.938,22h8c1.189,0,1,1.052,1,1.052c0,0.875,1.125,1,1.125,1L122.982,24
	c1,0,0.875,1.052,0.875,1.052c0,0.875-0.938,0.938-0.938,0.938h-18.107c-2.312,0-2,2-2,2L100.752,41z"/>
</svg>
