<?xml version="1.0" encoding="utf-8"?>
<!-- Generator: Adobe Illustrator 15.0.0, SVG Export Plug-In . SVG Version: 6.00 Build 0)  -->
<!DOCTYPE svg PUBLIC "-//W3C//DTD SVG 1.1//EN" "../../../../www.w3.org/Graphics/SVG/1.1/DTD/svg11.dtd">
<svg version="1.1" id="Layer_1" xmlns="http://www.w3.org/2000/svg" xmlns:xlink="../../../../www.w3.org/1999/xlink" x="0px" y="0px"
	 width="144px" height="66px" viewBox="0 0 144 66" enable-background="new 0 0 144 66" xml:space="preserve">
<g>
	<g>
		<path fill-rule="evenodd" clip-rule="evenodd" fill="#282828" d="M39.75,39.176c-1.712-2.789,0.095-8.322,1.114-12.125
			s-4.684-5.461-4.684-5.461l-1.086-0.291c0,0-5.768-1.416-6.787,2.387s-2.222,9.499-5.098,11.058
			c-2.876,1.558-2.734,2.545-2.734,2.545l-0.243,0.905c0,0-0.347,0.812,0.86,1.137l18.269,4.75c1.208,0.324,1.313-0.553,1.313-0.553
			l0.243-0.906C40.917,42.621,41.462,41.963,39.75,39.176z M24.03,41.081c-0.533-0.144-1.225,0.707-1.225,0.707l-1.483,1.673
			c-0.143,0.533,0.174,1.082,0.707,1.225c0.533,0.144,1.225-0.707,1.225-0.707l1.483-1.673C24.88,41.772,24.564,41.225,24.03,41.081
			z M36.354,20.97c0.806,0.216,1.634-0.263,1.85-1.068s-0.262-1.634-1.068-1.85c-0.806-0.216-1.634,0.262-1.85,1.067
			C35.07,19.926,35.548,20.754,36.354,20.97z"/>
	</g>
</g>
<g>
	<g>
		<path fill-rule="evenodd" clip-rule="evenodd" fill="#FFFFFF" d="M121.75,39.176c-1.712-2.789,0.095-8.322,1.113-12.125
			c1.02-3.803-4.684-5.461-4.684-5.461l-1.086-0.291c0,0-5.768-1.416-6.787,2.387s-2.222,9.499-5.098,11.058
			c-2.877,1.558-2.734,2.545-2.734,2.545l-0.242,0.905c0,0-0.348,0.812,0.859,1.137l18.27,4.75c1.207,0.324,1.313-0.553,1.313-0.553
			l0.243-0.906C122.918,42.621,123.462,41.963,121.75,39.176z M106.03,41.081c-0.533-0.144-1.225,0.707-1.225,0.707l-1.483,1.673
			c-0.143,0.533,0.174,1.082,0.707,1.225c0.533,0.144,1.225-0.707,1.225-0.707l1.483-1.673
			C106.881,41.772,106.564,41.225,106.03,41.081z M118.354,20.97c0.807,0.216,1.635-0.263,1.85-1.068
			c0.217-0.806-0.262-1.634-1.067-1.85c-0.806-0.216-1.634,0.262-1.851,1.067C117.07,19.926,117.548,20.754,118.354,20.97z"/>
	</g>
</g>
</svg>
