<?xml version="1.0" encoding="utf-8"?>
<!-- Generator: Adobe Illustrator 15.0.0, SVG Export Plug-In . SVG Version: 6.00 Build 0)  -->
<!DOCTYPE svg PUBLIC "-//W3C//DTD SVG 1.1//EN" "../../../../www.w3.org/Graphics/SVG/1.1/DTD/svg11.dtd">
<svg version="1.1" id="Layer_1" xmlns="http://www.w3.org/2000/svg" xmlns:xlink="../../../../www.w3.org/1999/xlink" x="0px" y="0px"
	 width="144px" height="66px" viewBox="0 0 144 66" enable-background="new 0 0 144 66" xml:space="preserve">
<g>
	<g>
		<path fill-rule="evenodd" clip-rule="evenodd" fill="#282828" d="M32.01,18.938v-0.969c0,0,0.156-0.969-0.938-0.969
			c-1.031,0-0.988,1-0.988,1v0.938c-11.932-0.156-14.043,13.083-14.043,13.083c1.375-3.312,4.918-3.146,4.918-3.146
			c4.5,0,4.979,3.062,4.979,3.062c1.094-3.281,5.094-3,5.094-3C35.219,28.938,36,32,36,32s0.875-3.125,5.062-3.062
			c3.625,0,4.938,3,4.938,3v-0.064C46,19.313,32.01,18.938,32.01,18.938z M30.062,42.031c0,1.938-2,2-2,2c-2.094,0-2-2-2-2
			S26.094,41,25.094,41s-1.062,1-1.062,1c0,4.031,4,3.969,4,3.969c4,0,3.969-3.938,3.969-3.938V30h-1.938V42.031z"/>
	</g>
</g>
<g>
	<g>
		<path fill-rule="evenodd" clip-rule="evenodd" fill="#FFFFFF" d="M114.01,18.938v-0.969c0,0,0.156-0.969-0.938-0.969
			c-1.031,0-0.988,1-0.988,1v0.938c-11.932-0.156-14.043,13.083-14.043,13.083c1.375-3.312,4.918-3.146,4.918-3.146
			c4.5,0,4.979,3.062,4.979,3.062c1.094-3.281,5.094-3,5.094-3C117.219,28.938,118,32,118,32s0.875-3.125,5.062-3.062
			c3.625,0,4.938,3,4.938,3v-0.064C128,19.313,114.01,18.938,114.01,18.938z M112.062,42.031c0,1.938-2,2-2,2c-2.094,0-2-2-2-2
			S108.094,41,107.094,41s-1.062,1-1.062,1c0,4.031,4,3.969,4,3.969c4,0,3.969-3.938,3.969-3.938V30h-1.938V42.031z"/>
	</g>
</g>
</svg>
