<?xml version="1.0" encoding="utf-8"?>
<!-- Generator: Adobe Illustrator 15.0.0, SVG Export Plug-In . SVG Version: 6.00 Build 0)  -->
<!DOCTYPE svg PUBLIC "-//W3C//DTD SVG 1.1//EN" "../../../../www.w3.org/Graphics/SVG/1.1/DTD/svg11.dtd">
<svg version="1.1" id="Layer_1" xmlns="http://www.w3.org/2000/svg" xmlns:xlink="../../../../www.w3.org/1999/xlink" x="0px" y="0px"
	 width="144px" height="66px" viewBox="0 0 144 66" enable-background="new 0 0 144 66" xml:space="preserve">
<g>
	<g>
		<path fill-rule="evenodd" clip-rule="evenodd" fill="#282828" d="M40,27h-3.146c0,0-0.479-11-7.125-11c0,0-8.645,0.104-8.645,11
			H21c-1.104,0-2,0.896-2,2v16c0,1.104,0.896,2,2,2h19c1.104,0,2-0.896,2-2V29C42,27.896,41.104,27,40,27z M29.646,17.854
			c0,0,5.363-0.896,5.363,9.146H22.979C22.979,27,21.688,17.854,29.646,17.854z M41,45c0,0.553-0.447,1-1,1H21c-0.553,0-1-0.447-1-1
			v-2h21V45z M32.719,19.969C32.25,19.125,30.969,19,30.969,19C24,19,24,26,24,26h1.906C25.906,19,32.719,19.969,32.719,19.969z
			 M36.737,20.505l0.325,0.464c0.5,0.75,1.031,5.031,1.031,5.031L40,26.031c-0.875-7.031-3.969-7.062-3.969-7.062
			C36.406,19.219,36.737,20.505,36.737,20.505z"/>
	</g>
</g>
<g>
	<g>
		<path fill-rule="evenodd" clip-rule="evenodd" fill="#FFFFFF" d="M114.719,19.969c-0.469-0.844-1.75-0.969-1.75-0.969
			C106,19,106,26,106,26h1.906C107.906,19,114.719,19.969,114.719,19.969z M122,27h-3.146c0,0-0.479-11-7.125-11
			c0,0-8.645,0.104-8.645,11H103c-1.104,0-2,0.896-2,2v16c0,1.104,0.896,2,2,2h19c1.104,0,2-0.896,2-2V29
			C124,27.896,123.104,27,122,27z M111.646,17.854c0,0,5.363-0.896,5.363,9.146h-12.031C104.979,27,103.688,17.854,111.646,17.854z
			 M123,45c0,0.553-0.447,1-1,1h-19c-0.553,0-1-0.447-1-1v-2h21V45z M118.737,20.505l0.325,0.464c0.5,0.75,1.031,5.031,1.031,5.031
			L122,26.031c-0.875-7.031-3.969-7.062-3.969-7.062C118.406,19.219,118.737,20.505,118.737,20.505z"/>
	</g>
</g>
</svg>
