<?xml version="1.0" encoding="utf-8"?>
<!-- Generator: Adobe Illustrator 15.0.0, SVG Export Plug-In . SVG Version: 6.00 Build 0)  -->
<!DOCTYPE svg PUBLIC "-//W3C//DTD SVG 1.1//EN" "../../../../www.w3.org/Graphics/SVG/1.1/DTD/svg11.dtd">
<svg version="1.1" id="Layer_1" xmlns="http://www.w3.org/2000/svg" xmlns:xlink="../../../../www.w3.org/1999/xlink" x="0px" y="0px"
	 width="144px" height="66px" viewBox="0 0 144 66" enable-background="new 0 0 144 66" xml:space="preserve">
<g>
	<g>
		<path fill-rule="evenodd" clip-rule="evenodd" fill="#282828" d="M40.031,19.084c0.552,0,1,0.447,1,1s-0.448,1-1,1H40
			c-0.553,0-1-0.447-1-1s0.447-1,1-1H40.031l-17.92-0.065c0.506,0.049,0.906,0.462,0.906,0.982c0,0.552-0.447,0.999-1,0.999h-0.031
			c-0.553,0-1-0.447-1-0.999c0-0.503,0.376-0.901,0.859-0.973C21.37,19.065,20,19.312,20,20.97v21.171c0,0-0.002,1.396,0.957,1.859
			c0.278,0.135,0.051-0.927,1.092-0.927c0,0,0.947-0.031,0.938,0.97C26.53,44.043,39.031,44,39.031,44
			c0.062-0.97,0.938-1.051,1.062-0.988C41,43.073,41.012,44,41.012,44S42,43.086,42,42.137V21.115
			C42,21.115,42.031,19.084,40.031,19.084z M21.018,22.985c0-0.544,0.44-0.985,0.984-0.985s0.984,0.441,0.984,0.985v0.062
			c0,0.544-0.44,0.985-0.984,0.985s-0.984-0.441-0.984-0.985V22.985z M21.018,28.984c0-0.543,0.44-0.953,0.984-0.953
			s0.984,0.41,0.984,0.953v0.031c0,0.545-0.44,1.017-0.984,1.017s-0.984-0.472-0.984-1.017V28.984z M21.986,31c0.553,0,1,0.448,1,1
			c0,0.553-0.447,1-1,1s-1-0.447-1-1C20.986,31.448,21.434,31,21.986,31z M23.018,41.063c0,0.552-0.447,0.969-1,0.969
			s-1-0.417-1-0.969v-0.032c0-0.552,0.447-1,1-1s1,0.448,1,1V41.063z M22.033,39.032h-0.062c-0.544,0-0.984-0.473-0.984-1.016
			c0-0.544,0.44-0.984,0.984-0.984h0.062c0.544,0,0.984,0.44,0.984,0.984C23.018,38.56,22.577,39.032,22.033,39.032z M23.018,35.031
			c0,0.553-0.447,1.001-1,1.001h-0.031c-0.553,0-1-0.448-1-1.001v-0.03c0-0.553,0.447-0.969,1-0.969h0.031c0.553,0,1,0.416,1,0.969
			V35.031z M23.018,26.047c0,0.545-0.44,0.984-0.984,0.984s-0.984-0.439-0.984-0.984v-0.062c0-0.544,0.44-0.954,0.984-0.954
			s0.984,0.41,0.984,0.954V26.047z M39.031,22.985c0-0.544,0.44-0.985,0.984-0.985S41,22.441,41,22.985v0.062
			c0,0.544-0.44,0.985-0.984,0.985s-0.984-0.441-0.984-0.985V22.985z M39.031,28.984c0-0.543,0.44-0.953,0.984-0.953
			S41,28.441,41,28.984v0.031c0,0.545-0.44,1.017-0.984,1.017s-0.984-0.472-0.984-1.017V28.984z M40,31c0.553,0,1,0.448,1,1
			c0,0.553-0.447,1-1,1s-1-0.447-1-1C39,31.448,39.447,31,40,31z M24,22.031C24,21.479,24.465,21,25.018,21H37
			c0.552,0,1,0.479,1,1.031v8.021c0,0.553-0.448,1-1,1H25.018c-0.553,0-1.018-0.447-1.018-1V22.031z M38.031,41.104
			c0,0.553-0.448,0.938-1,0.938H24.986c-0.553,0-0.986-0.385-0.986-0.938v-8.083C24,32.469,24.434,32,24.986,32h12.045
			c0.552,0,1,0.469,1,1.021V41.104z M41.031,41.063c0,0.552-0.448,0.969-1,0.969c-0.553,0-1-0.417-1-0.969v-0.032
			c0-0.552,0.447-1,1-1c0.552,0,1,0.448,1,1V41.063z M40.047,39.032h-0.062C39.44,39.032,39,38.56,39,38.017
			c0-0.544,0.44-0.984,0.984-0.984h0.062c0.544,0,0.984,0.44,0.984,0.984C41.031,38.56,40.591,39.032,40.047,39.032z M41.031,35.031
			c0,0.553-0.448,1.001-1,1.001H40c-0.553,0-1-0.448-1-1.001v-0.03c0-0.553,0.447-0.969,1-0.969h0.031c0.552,0,1,0.416,1,0.969
			V35.031z M41.031,26.047c0,0.545-0.44,0.984-0.984,0.984s-0.984-0.439-0.984-0.984v-0.062c0-0.544,0.44-0.954,0.984-0.954
			s0.984,0.41,0.984,0.954V26.047z M22.111,19.019C22.079,19.016,22.051,19,22.018,19h-0.031c-0.05,0-0.093,0.021-0.141,0.028
			c0.099-0.008,0.172-0.01,0.172-0.01L22.111,19.019z"/>
	</g>
</g>
<g>
	<g>
		<path fill-rule="evenodd" clip-rule="evenodd" fill="#FFFFFF" d="M122.031,19.084c0.552,0,1,0.447,1,1s-0.448,1-1,1H122
			c-0.553,0-1-0.447-1-1s0.447-1,1-1H122.031l-17.92-0.065c0.506,0.049,0.906,0.462,0.906,0.982c0,0.552-0.447,0.999-1,0.999h-0.031
			c-0.553,0-1-0.447-1-0.999c0-0.503,0.376-0.901,0.859-0.973C103.37,19.065,102,19.312,102,20.97v21.171
			c0,0-0.002,1.396,0.957,1.859c0.278,0.135,0.051-0.927,1.092-0.927c0,0,0.947-0.031,0.938,0.97c3.544,0,16.045-0.043,16.045-0.043
			c0.062-0.97,0.938-1.051,1.062-0.988C123,43.073,123.012,44,123.012,44S124,43.086,124,42.137V21.115
			C124,21.115,124.031,19.084,122.031,19.084z M103.018,22.985c0-0.544,0.44-0.985,0.984-0.985s0.984,0.441,0.984,0.985v0.062
			c0,0.544-0.44,0.985-0.984,0.985s-0.984-0.441-0.984-0.985V22.985z M103.018,28.984c0-0.543,0.44-0.953,0.984-0.953
			s0.984,0.41,0.984,0.953v0.031c0,0.545-0.44,1.017-0.984,1.017s-0.984-0.472-0.984-1.017V28.984z M103.986,31c0.553,0,1,0.448,1,1
			c0,0.553-0.447,1-1,1s-1-0.447-1-1C102.986,31.448,103.434,31,103.986,31z M105.018,41.063c0,0.552-0.447,0.969-1,0.969
			s-1-0.417-1-0.969v-0.032c0-0.552,0.447-1,1-1s1,0.448,1,1V41.063z M104.033,39.032h-0.062c-0.544,0-0.984-0.473-0.984-1.016
			c0-0.544,0.44-0.984,0.984-0.984h0.062c0.544,0,0.984,0.44,0.984,0.984C105.018,38.56,104.577,39.032,104.033,39.032z
			 M105.018,35.031c0,0.553-0.447,1.001-1,1.001h-0.031c-0.553,0-1-0.448-1-1.001v-0.03c0-0.553,0.447-0.969,1-0.969h0.031
			c0.553,0,1,0.416,1,0.969V35.031z M105.018,26.047c0,0.545-0.44,0.984-0.984,0.984s-0.984-0.439-0.984-0.984v-0.062
			c0-0.544,0.44-0.954,0.984-0.954s0.984,0.41,0.984,0.954V26.047z M121.031,22.985c0-0.544,0.44-0.985,0.984-0.985
			S123,22.441,123,22.985v0.062c0,0.544-0.44,0.985-0.984,0.985s-0.984-0.441-0.984-0.985V22.985z M121.031,28.984
			c0-0.543,0.44-0.953,0.984-0.953S123,28.441,123,28.984v0.031c0,0.545-0.44,1.017-0.984,1.017s-0.984-0.472-0.984-1.017V28.984z
			 M122,31c0.553,0,1,0.448,1,1c0,0.553-0.447,1-1,1s-1-0.447-1-1C121,31.448,121.447,31,122,31z M106,22.031
			c0-0.552,0.465-1.031,1.018-1.031H119c0.552,0,1,0.479,1,1.031v8.021c0,0.553-0.448,1-1,1h-11.982c-0.553,0-1.018-0.447-1.018-1
			V22.031z M120.031,41.104c0,0.553-0.448,0.938-1,0.938h-12.045c-0.553,0-0.986-0.385-0.986-0.938v-8.083
			c0-0.553,0.434-1.021,0.986-1.021h12.045c0.552,0,1,0.469,1,1.021V41.104z M123.031,41.063c0,0.552-0.448,0.969-1,0.969
			c-0.553,0-1-0.417-1-0.969v-0.032c0-0.552,0.447-1,1-1c0.552,0,1,0.448,1,1V41.063z M122.047,39.032h-0.062
			c-0.544,0-0.984-0.473-0.984-1.016c0-0.544,0.44-0.984,0.984-0.984h0.062c0.544,0,0.984,0.44,0.984,0.984
			C123.031,38.56,122.591,39.032,122.047,39.032z M123.031,35.031c0,0.553-0.448,1.001-1,1.001H122c-0.553,0-1-0.448-1-1.001v-0.03
			c0-0.553,0.447-0.969,1-0.969h0.031c0.552,0,1,0.416,1,0.969V35.031z M123.031,26.047c0,0.545-0.44,0.984-0.984,0.984
			s-0.984-0.439-0.984-0.984v-0.062c0-0.544,0.44-0.954,0.984-0.954s0.984,0.41,0.984,0.954V26.047z M104.111,19.019
			c-0.032-0.003-0.061-0.019-0.094-0.019h-0.031c-0.05,0-0.093,0.021-0.141,0.028c0.099-0.008,0.172-0.01,0.172-0.01L104.111,19.019
			z"/>
	</g>
</g>
</svg>
