<?xml version="1.0" encoding="utf-8"?>
<!-- Generator: Adobe Illustrator 15.0.0, SVG Export Plug-In . SVG Version: 6.00 Build 0)  -->
<!DOCTYPE svg PUBLIC "-//W3C//DTD SVG 1.1//EN" "../../../../www.w3.org/Graphics/SVG/1.1/DTD/svg11.dtd">
<svg version="1.1" id="Layer_1" xmlns="http://www.w3.org/2000/svg" xmlns:xlink="../../../../www.w3.org/1999/xlink" x="0px" y="0px"
	 width="144px" height="66px" viewBox="0 0 144 66" enable-background="new 0 0 144 66" xml:space="preserve">
<g>
	<g>
		<path fill-rule="evenodd" clip-rule="evenodd" fill="#282828" d="M47,41.261l-0.009-14.133l-5.873,2.984l-1.158,0.028
			l-0.013-1.215c0,0,0.11-1.825-1.66-1.825l-0.243-0.941c0,0,0.358-6.159-5.97-6.159c0,0-5.611,0.256-5.611,6.105
			c0,0,0.238-6.297-5.852-6.058c0,0-5.569-0.341-5.569,5.987c0,0-0.103,2.429,1.991,3.992v11.095c0,0,0.306,1.878,1.965,1.878
			h19.234c0,0,1.768-0.007,1.768-1.611l-0.012-3.446l1.205,0.022L47,41.261z M18.046,26.172c0-1.708,1.196-3.154,2.904-3.154
			c1.707,0,3.064,1.353,3.064,3.061c0,0.469-0.04,0.527-0.224,0.922h5.374c-0.184-0.395-0.161-0.422-0.161-0.891
			c0-1.707,1.357-3.092,3.064-3.092c1.708,0,2.998,1.446,2.998,3.154c0,1.707-1.321,2.886-3.029,2.886
			c-0.516,0-1.349-0.049-1.349-0.049h-8.452c0,0-0.677,0.049-1.192,0.049C19.336,29.058,18.046,27.879,18.046,26.172z M24.533,39.07
			c-1.956,0-3.543-1.556-3.543-3.512c0-1.957,1.587-3.543,3.543-3.543c1.957,0,3.512,1.586,3.512,3.543
			C28.045,37.515,26.49,39.07,24.533,39.07z M33.533,39.07c-1.956,0-3.543-1.556-3.543-3.512c0-1.957,1.587-3.543,3.543-3.543
			c1.957,0,3.512,1.586,3.512,3.543C37.045,37.515,35.49,39.07,33.533,39.07z M33.533,34.982c-0.293,0-0.531,0.238-0.531,0.531
			s0.238,0.531,0.531,0.531s0.531-0.238,0.531-0.531S33.826,34.982,33.533,34.982z M24.533,34.982c-0.293,0-0.531,0.238-0.531,0.531
			s0.238,0.531,0.531,0.531s0.531-0.238,0.531-0.531S24.826,34.982,24.533,34.982z"/>
	</g>
</g>
<g>
	<g>
		<path fill-rule="evenodd" clip-rule="evenodd" fill="#FFFFFF" d="M129,41.261l-0.009-14.133l-5.873,2.984l-1.158,0.028
			l-0.013-1.215c0,0,0.11-1.825-1.66-1.825l-0.243-0.941c0,0,0.358-6.159-5.97-6.159c0,0-5.611,0.256-5.611,6.105
			c0,0,0.238-6.297-5.852-6.058c0,0-5.569-0.341-5.569,5.987c0,0-0.103,2.429,1.991,3.992v11.095c0,0,0.306,1.878,1.965,1.878
			h19.234c0,0,1.768-0.007,1.768-1.611l-0.012-3.446l1.205,0.022L129,41.261z M100.046,26.172c0-1.708,1.196-3.154,2.904-3.154
			c1.707,0,3.064,1.353,3.064,3.061c0,0.469-0.04,0.527-0.224,0.922h5.374c-0.184-0.395-0.161-0.422-0.161-0.891
			c0-1.707,1.357-3.092,3.064-3.092c1.708,0,2.998,1.446,2.998,3.154c0,1.707-1.321,2.886-3.029,2.886
			c-0.516,0-1.349-0.049-1.349-0.049h-8.452c0,0-0.677,0.049-1.192,0.049C101.336,29.058,100.046,27.879,100.046,26.172z
			 M106.533,39.07c-1.956,0-3.543-1.556-3.543-3.512c0-1.957,1.587-3.543,3.543-3.543c1.957,0,3.512,1.586,3.512,3.543
			C110.045,37.515,108.49,39.07,106.533,39.07z M115.533,39.07c-1.956,0-3.543-1.556-3.543-3.512c0-1.957,1.587-3.543,3.543-3.543
			c1.957,0,3.512,1.586,3.512,3.543C119.045,37.515,117.49,39.07,115.533,39.07z M115.533,34.982c-0.293,0-0.531,0.238-0.531,0.531
			s0.238,0.531,0.531,0.531s0.531-0.238,0.531-0.531S115.826,34.982,115.533,34.982z M106.533,34.982
			c-0.293,0-0.531,0.238-0.531,0.531s0.238,0.531,0.531,0.531s0.531-0.238,0.531-0.531S106.826,34.982,106.533,34.982z"/>
	</g>
</g>
</svg>
