<?xml version="1.0" encoding="utf-8"?>
<!-- Generator: Adobe Illustrator 15.0.0, SVG Export Plug-In . SVG Version: 6.00 Build 0)  -->
<!DOCTYPE svg PUBLIC "-//W3C//DTD SVG 1.1//EN" "../../../../www.w3.org/Graphics/SVG/1.1/DTD/svg11.dtd">
<svg version="1.1" id="Layer_1" xmlns="http://www.w3.org/2000/svg" xmlns:xlink="../../../../www.w3.org/1999/xlink" x="0px" y="0px"
	 width="144px" height="66px" viewBox="0 0 144 66" enable-background="new 0 0 144 66" xml:space="preserve">
<g>
	<g>
		<path fill-rule="evenodd" clip-rule="evenodd" fill="#282828" d="M38,27.008H22.969C22,27.008,22,27.977,22,27.977l17-0.031
			C39,27.195,38,27.008,38,27.008z M37,25H23.969C23,25,23,26,23,26l15-0.031C38,25.219,37,25,37,25z M40,23.008
			c0,0-0.814-1.008-2.002-1.008l-14.932,0.007c0,0-1.191,0.032-2.066,0.97c0,0-6,6.927-6,8.031V41c0,1.104,0.896,2,2,2h27
			c1.104,0,2-0.896,2-2v-9.992C46,29.903,40,23.008,40,23.008z M34.031,31.008c-0.938,0-1,0.938-1,0.938v2.062c0,0.875-1,1-1,1
			h-3.094c-1,0-1-1-1-1v-1.875c0-1.125-1-1.125-1-1.125h-9.062l4.094-6.062c0,0,0.54-0.954,1.062-0.945h15.031
			c0,0,0.5,0.227,0.938,0.945l4.062,6.062H34.031z M21.969,29C21,29,21,29.977,21,29.977l18.938-0.031c0-0.75-1-0.945-1-0.945
			H21.969z"/>
	</g>
</g>
<g>
	<g>
		<path fill-rule="evenodd" clip-rule="evenodd" fill="#FFFFFF" d="M120,27.008h-15.031c-0.969,0-0.969,0.969-0.969,0.969l17-0.031
			C121,27.195,120,27.008,120,27.008z M122,23.008c0,0-0.814-1.008-2.002-1.008l-14.932,0.007c0,0-1.191,0.032-2.066,0.97
			c0,0-6,6.927-6,8.031V41c0,1.104,0.896,2,2,2h27c1.104,0,2-0.896,2-2v-9.992C128,29.903,122,23.008,122,23.008z M116.031,31.008
			c-0.938,0-1,0.938-1,0.938v2.062c0,0.875-1,1-1,1h-3.094c-1,0-1-1-1-1v-1.875c0-1.125-1-1.125-1-1.125h-9.062l4.094-6.062
			c0,0,0.54-0.954,1.062-0.945h15.031c0,0,0.5,0.227,0.938,0.945l4.062,6.062H116.031z M119,25h-13.031C105,25,105,26,105,26
			l15-0.031C120,25.219,119,25,119,25z M103.969,29C103,29,103,29.977,103,29.977l18.938-0.031c0-0.75-1-0.945-1-0.945H103.969z"/>
	</g>
</g>
</svg>
