<?xml version="1.0" encoding="utf-8"?>
<!-- Generator: Adobe Illustrator 15.0.0, SVG Export Plug-In . SVG Version: 6.00 Build 0)  -->
<!DOCTYPE svg PUBLIC "-//W3C//DTD SVG 1.1//EN" "../../../../www.w3.org/Graphics/SVG/1.1/DTD/svg11.dtd">
<svg version="1.1" id="Layer_1" xmlns="http://www.w3.org/2000/svg" xmlns:xlink="../../../../www.w3.org/1999/xlink" x="0px" y="0px"
	 width="144px" height="66px" viewBox="0 0 144 66" enable-background="new 0 0 144 66" xml:space="preserve">
<path fill-rule="evenodd" clip-rule="evenodd" fill="#282828" d="M45.633,18.635c0,0-1.857-0.773-3.054,0.405l-6.738,5.262
	l-3.777-0.823l1.518-2.252c0.468-0.656-0.657-0.942-0.657-0.942c-0.781-0.344-1.35,0.67-1.35,0.67l-1.875,2.04l-4.14-0.543
	l1.363-1.832c0.719-0.969-0.209-1.441-0.209-1.441c-0.812-0.25-1.648,0.888-1.648,0.888l-1.889,2.156l-4.799-0.664
	c0,0-0.911-0.625-1.299,0.231c0,0-0.36,0.891,0.43,1.231c2.053,1.174,12.276,5.966,12.276,5.966l-8.925,8.557l-3.206-0.78
	c0,0-0.669-0.062-0.955,0.509c0,0-1.373,0.9-0.27,1.853c0.59,0.644,2.358,1.153,3.275,2.145c1.423,1.537,1.973,3.526,1.973,3.526
	C22.365,45.67,23.27,44.7,23.27,44.7l0.804-0.884l-0.711-2.929l9.979-8.875l6.062,13.83c0,0,1.518,1.081,1-2.429l-0.236-2.652
	l2.628-2.11c0,0,1.114-0.469,0.583-1.781c-0.347-0.613-1.36,0.01-1.36,0.01l-2.033,0.943l-0.256-3.816l2.574-1.633
	c0,0,1.194-1.062,0.49-1.954c-0.767-0.63-1.696,0.271-1.696,0.271l-1.808,0.763l-0.631-3.991l6.753-6.131
	C45.41,21.331,46.276,20.063,45.633,18.635z"/>
<path fill-rule="evenodd" clip-rule="evenodd" fill="#FFFFFF" d="M127.633,18.635c0,0-1.857-0.773-3.053,0.405l-6.738,5.262
	l-3.777-0.823l1.518-2.252c0.468-0.656-0.657-0.942-0.657-0.942c-0.781-0.344-1.351,0.67-1.351,0.67l-1.875,2.04l-4.14-0.543
	l1.362-1.832c0.719-0.969-0.209-1.441-0.209-1.441c-0.812-0.25-1.648,0.888-1.648,0.888l-1.889,2.156l-4.799-0.664
	c0,0-0.91-0.625-1.299,0.231c0,0-0.36,0.891,0.43,1.231c2.053,1.174,12.277,5.966,12.277,5.966l-8.926,8.557l-3.205-0.78
	c0,0-0.67-0.062-0.955,0.509c0,0-1.373,0.9-0.271,1.853c0.591,0.644,2.358,1.153,3.275,2.145c1.423,1.537,1.974,3.526,1.974,3.526
	c0.688,0.875,1.592-0.095,1.592-0.095l0.805-0.884l-0.712-2.929l9.979-8.875l6.062,13.83c0,0,1.518,1.081,1-2.429l-0.236-2.652
	l2.627-2.11c0,0,1.115-0.469,0.583-1.781c-0.347-0.613-1.36,0.01-1.36,0.01l-2.033,0.943l-0.256-3.816l2.574-1.633
	c0,0,1.194-1.062,0.49-1.954c-0.768-0.63-1.697,0.271-1.697,0.271l-1.808,0.763l-0.632-3.991l6.754-6.131
	C127.41,21.331,128.275,20.063,127.633,18.635z"/>
</svg>
