<?xml version="1.0" encoding="utf-8"?>
<!-- Generator: Adobe Illustrator 15.0.0, SVG Export Plug-In . SVG Version: 6.00 Build 0)  -->
<!DOCTYPE svg PUBLIC "-//W3C//DTD SVG 1.1//EN" "../../../../www.w3.org/Graphics/SVG/1.1/DTD/svg11.dtd">
<svg version="1.1" id="Layer_1" xmlns="http://www.w3.org/2000/svg" xmlns:xlink="../../../../www.w3.org/1999/xlink" x="0px" y="0px"
	 width="144px" height="66px" viewBox="0 0 144 66" enable-background="new 0 0 144 66" xml:space="preserve">
<g>
	<g>
		<path fill-rule="evenodd" clip-rule="evenodd" fill="#282828" d="M34.987,28.411h3.012l0.016,3.062c0,0,0.35,0.993,1.243,0.199
			l5.264-5.037c0,0,0.993-0.795,0.199-1.192l-5.828-5.577c0,0-0.795-0.695-0.795,0.099v3.512l-4.699,0.017
			c0,0-1.788,0.631-2.483,2.021l-6.952,9.534c0,0-1.191,1.462-1.788,1.462h-4.485c0,0-1.688,0.1-1.688,1.489v1.51
			c0,0-0.099,1.49,1.59,1.49h6.939c0,0,0.959-0.575,1.84-1.443l0.047-0.047c0.894-0.894,6.981-9.625,6.981-9.625
			S33.994,28.411,34.987,28.411z M16.069,27.51c0,1.292,1.688,1.49,1.688,1.49h4.767c0.795,0,1.391-0.009,1.391-0.009l1.688,1.39
			l1.888-3.178l-1.888-2.284C24.71,24.124,23.915,24,23.915,24h-6.622c-1.391,0-1.291,1.373-1.291,1.373L16.069,27.51z
			 M44.641,38.327l-5.168-4.672c-1.608-1.093-1.323,0.198-1.323,0.198v2.634h-3.11c-0.993,0-1.688-1.041-1.688-1.041l-0.695-1.489
			l-2.88,3.873l1.887,1.887c0.596,0.993,1.986,1.688,1.986,1.688h4.501v3.111c0,1.263,1.256-0.346,1.256-0.346l5.335-4.652
			C45.436,38.923,44.641,38.327,44.641,38.327z"/>
	</g>
</g>
<g>
	<g>
		<path fill-rule="evenodd" clip-rule="evenodd" fill="#FFFFFF" d="M116.987,28.411h3.012l0.016,3.062c0,0,0.35,0.993,1.243,0.199
			l5.264-5.037c0,0,0.993-0.795,0.199-1.192l-5.828-5.577c0,0-0.795-0.695-0.795,0.099v3.512l-4.699,0.017
			c0,0-1.788,0.631-2.483,2.021l-6.952,9.534c0,0-1.191,1.462-1.788,1.462h-4.485c0,0-1.688,0.1-1.688,1.489v1.51
			c0,0-0.099,1.49,1.59,1.49h6.939c0,0,0.959-0.575,1.84-1.443l0.047-0.047c0.894-0.894,6.981-9.625,6.981-9.625
			S115.994,28.411,116.987,28.411z M98.069,27.51c0,1.292,1.688,1.49,1.688,1.49h4.767c0.795,0,1.391-0.009,1.391-0.009l1.688,1.39
			l1.888-3.178l-1.888-2.284C106.71,24.124,105.915,24,105.915,24h-6.622c-1.391,0-1.291,1.373-1.291,1.373L98.069,27.51z
			 M126.641,38.327l-5.168-4.672c-1.608-1.093-1.323,0.198-1.323,0.198v2.634h-3.11c-0.993,0-1.688-1.041-1.688-1.041l-0.695-1.489
			l-2.88,3.873l1.887,1.887c0.596,0.993,1.986,1.688,1.986,1.688h4.501v3.111c0,1.263,1.256-0.346,1.256-0.346l5.335-4.652
			C127.436,38.923,126.641,38.327,126.641,38.327z"/>
	</g>
</g>
</svg>
