<?xml version="1.0" encoding="utf-8"?>
<!-- Generator: Adobe Illustrator 15.0.0, SVG Export Plug-In . SVG Version: 6.00 Build 0)  -->
<!DOCTYPE svg PUBLIC "-//W3C//DTD SVG 1.1//EN" "../../../../www.w3.org/Graphics/SVG/1.1/DTD/svg11.dtd">
<svg version="1.1" id="Layer_1" xmlns="http://www.w3.org/2000/svg" xmlns:xlink="../../../../www.w3.org/1999/xlink" x="0px" y="0px"
	 width="144px" height="66px" viewBox="0 0 144 66" enable-background="new 0 0 144 66" xml:space="preserve">
<g>
	<g>
		<path fill-rule="evenodd" clip-rule="evenodd" fill="#282828" d="M37.138,29.142c0-4.531-3.457-8.142-9.748-8.142
			C21.1,21,16,24.61,16,29.142c0,2.566,1.635,4.857,4.196,6.362c0.579,0.341,0.502,2.938-2.76,4.481c0,0,4.785,0.76,7.714-2.941
			c0.725,0.104,1.474,0.158,2.239,0.158C33.681,37.202,37.138,33.674,37.138,29.142z M40.869,38.11
			c2.561-1.504,4.355-3.795,4.355-6.361c0-3.875-3.845-7.477-8.892-8.439c4.551,7.23,0.58,16.178-9.269,14.914
			c1.662,1.176,3.896,1.89,6.61,1.89c0.767,0,1.515-0.214,2.239-0.317c2.929,3.701,7.714,1.984,7.714,1.984
			C40.366,40.237,40.289,38.451,40.869,38.11z"/>
	</g>
</g>
<g>
	<g>
		<path fill-rule="evenodd" clip-rule="evenodd" fill="#FFFFFF" d="M119.138,29.142c0-4.531-3.457-8.142-9.748-8.142
			C103.1,21,98,24.61,98,29.142c0,2.566,1.635,4.857,4.196,6.362c0.579,0.341,0.502,2.938-2.76,4.481c0,0,4.785,0.76,7.714-2.941
			c0.725,0.104,1.474,0.158,2.239,0.158C115.681,37.202,119.138,33.674,119.138,29.142z M122.869,38.11
			c2.561-1.504,4.355-3.795,4.355-6.361c0-3.875-3.845-7.477-8.892-8.439c4.551,7.23,0.58,16.178-9.269,14.914
			c1.662,1.176,3.896,1.89,6.61,1.89c0.767,0,1.515-0.214,2.239-0.317c2.929,3.701,7.714,1.984,7.714,1.984
			C122.366,40.237,122.289,38.451,122.869,38.11z"/>
	</g>
</g>
</svg>
