<?xml version="1.0" encoding="utf-8"?>
<!-- Generator: Adobe Illustrator 15.0.0, SVG Export Plug-In . SVG Version: 6.00 Build 0)  -->
<!DOCTYPE svg PUBLIC "-//W3C//DTD SVG 1.1//EN" "../../../../www.w3.org/Graphics/SVG/1.1/DTD/svg11.dtd">
<svg version="1.1" id="Layer_1" xmlns="http://www.w3.org/2000/svg" xmlns:xlink="../../../../www.w3.org/1999/xlink" x="0px" y="0px"
	 width="144px" height="66px" viewBox="0 0 144 66" enable-background="new 0 0 144 66" xml:space="preserve">
<g>
	<g>
		<path fill-rule="evenodd" clip-rule="evenodd" fill="#282828" d="M44.765,18.333c0,0-15.117-0.722-19.755,6.109
			c-3.138,5.08-3.655,10.154,0.649,14.677c0,0-1.75,5.339-6.457,4.118c0,0-1.942-0.299-0.896,0.896c0,0,4.129,3.635,8.448-3.985
			c0,0,9.712,5.528,14.643-1.195C46.328,32.229,44.765,18.333,44.765,18.333z M37.625,26.119l3.745,1.399
			c0,0-4.033-0.731-4.222-0.447l-2.498,3.425c0,0,3.164-0.382,5.394,0.951c0,0-5.942-0.388-6.689,0.359l-2.434,3.729
			c0,0,4.428-0.561,6.819,0.938c0,0-7.368-1.354-8.595,0.985l-1.494,1.793c0,0-1.494,0.747-1.345-0.149l2.241-2.988
			c0,0,1.733-3.644-0.598-8.219c0,0,2.724,1.213,1.828,7.339l3.287-4.482c0,0-0.333-3.753-1.827-6.144c0,0,2.689,1.779,2.54,5.08
			c0,0,2.241-2.092,2.241-3.586s0.031-3.937,0.031-3.937s0.98,2.73,0.831,3.328c0,0,3.023-2.529,4.667-2.529L37.625,26.119z"/>
	</g>
</g>
<g>
	<g>
		<path fill-rule="evenodd" clip-rule="evenodd" fill="#FFFFFF" d="M126.765,18.333c0,0-15.117-0.722-19.755,6.109
			c-3.138,5.08-3.654,10.154,0.649,14.677c0,0-1.75,5.339-6.456,4.118c0,0-1.943-0.299-0.896,0.896c0,0,4.129,3.635,8.447-3.985
			c0,0,9.713,5.528,14.643-1.195C128.328,32.229,126.765,18.333,126.765,18.333z M119.625,26.119l3.744,1.399
			c0,0-4.033-0.731-4.222-0.447l-2.497,3.425c0,0,3.163-0.382,5.393,0.951c0,0-5.941-0.388-6.689,0.359l-2.434,3.729
			c0,0,4.428-0.561,6.819,0.938c0,0-7.368-1.354-8.595,0.985l-1.494,1.793c0,0-1.494,0.747-1.345-0.149l2.241-2.988
			c0,0,1.732-3.644-0.598-8.219c0,0,2.725,1.213,1.828,7.339l3.287-4.482c0,0-0.334-3.753-1.828-6.144c0,0,2.689,1.779,2.541,5.08
			c0,0,2.24-2.092,2.24-3.586s0.031-3.937,0.031-3.937s0.98,2.73,0.831,3.328c0,0,3.022-2.529,4.667-2.529L119.625,26.119z"/>
	</g>
</g>
</svg>
