<?xml version="1.0" encoding="utf-8"?>
<!-- Generator: Adobe Illustrator 15.0.0, SVG Export Plug-In . SVG Version: 6.00 Build 0)  -->
<!DOCTYPE svg PUBLIC "-//W3C//DTD SVG 1.1//EN" "../../../../www.w3.org/Graphics/SVG/1.1/DTD/svg11.dtd">
<svg version="1.1" id="Layer_1" xmlns="http://www.w3.org/2000/svg" xmlns:xlink="../../../../www.w3.org/1999/xlink" x="0px" y="0px"
	 width="144px" height="66px" viewBox="0 0 144 66" enable-background="new 0 0 144 66" xml:space="preserve">
<g>
	<g>
		<path fill-rule="evenodd" clip-rule="evenodd" fill="#282828" d="M19,43c0,0.553,0.447,1,1,1s1-0.447,1-1v-6h-2V43z M21,20
			c0-0.553-0.447-1-1-1s-1,0.447-1,1v6h2V20z M22,27h-4c-0.553,0-1,0.447-1,1v7c0,0.553,0.447,1,1,1h4c0.553,0,1-0.447,1-1v-7
			C23,27.447,22.553,27,22,27z M30,43c0,0.553,0.447,1,1,1s1-0.447,1-1v-2h-2V43z M32,20c0-0.553-0.447-1-1-1s-1,0.447-1,1v10h2V20z
			 M33,31h-4c-0.553,0-1,0.447-1,1v7c0,0.553,0.447,1,1,1h4c0.553,0,1-0.447,1-1v-7C34,31.447,33.553,31,33,31z M41,43
			c0,0.553,0.447,1,1,1s1-0.447,1-1V33h-2V43z M43,20c0-0.553-0.447-1-1-1s-1,0.447-1,1v2h2V20z M44,23h-4c-0.553,0-1,0.447-1,1v7
			c0,0.553,0.447,1,1,1h4c0.553,0,1-0.447,1-1v-7C45,23.447,44.553,23,44,23z"/>
	</g>
</g>
<g>
	<g>
		<path fill-rule="evenodd" clip-rule="evenodd" fill="#FFFFFF" d="M103,20c0-0.553-0.447-1-1-1s-1,0.447-1,1v6h2V20z M101,43
			c0,0.553,0.447,1,1,1s1-0.447,1-1v-6h-2V43z M104,27h-4c-0.553,0-1,0.447-1,1v7c0,0.553,0.447,1,1,1h4c0.553,0,1-0.447,1-1v-7
			C105,27.447,104.553,27,104,27z M112,43c0,0.553,0.447,1,1,1s1-0.447,1-1v-2h-2V43z M114,20c0-0.553-0.447-1-1-1s-1,0.447-1,1v10
			h2V20z M115,31h-4c-0.553,0-1,0.447-1,1v7c0,0.553,0.447,1,1,1h4c0.553,0,1-0.447,1-1v-7C116,31.447,115.553,31,115,31z M123,43
			c0,0.553,0.447,1,1,1s1-0.447,1-1V33h-2V43z M125,20c0-0.553-0.447-1-1-1s-1,0.447-1,1v2h2V20z M126,23h-4c-0.553,0-1,0.447-1,1v7
			c0,0.553,0.447,1,1,1h4c0.553,0,1-0.447,1-1v-7C127,23.447,126.553,23,126,23z"/>
	</g>
</g>
</svg>
