<?xml version="1.0" encoding="utf-8"?>
<!-- Generator: Adobe Illustrator 15.0.0, SVG Export Plug-In . SVG Version: 6.00 Build 0)  -->
<!DOCTYPE svg PUBLIC "-//W3C//DTD SVG 1.1//EN" "../../../../www.w3.org/Graphics/SVG/1.1/DTD/svg11.dtd">
<svg version="1.1" id="Layer_1" xmlns="http://www.w3.org/2000/svg" xmlns:xlink="../../../../www.w3.org/1999/xlink" x="0px" y="0px"
	 width="144px" height="66px" viewBox="0 0 144 66" enable-background="new 0 0 144 66" xml:space="preserve">
<g>
	<g>
		<path fill-rule="evenodd" clip-rule="evenodd" fill="#282828" d="M41,19H21c-1.657,0-3,1.343-3,3v20c0,1.657,1.343,3,3,3h20
			c1.657,0,3-1.343,3-3V22C44,20.343,42.657,19,41,19z M41,41c0,0.553-0.447,1-1,1H22c-0.553,0-1-0.447-1-1V23c0-0.552,0.447-1,1-1
			h18c0.553,0,1,0.448,1,1V41z M26.479,25.5l1.5-1.5L23,24.011v4.938l1.802-1.698l4.031,4.062L24.989,35h9v-8.875l-3.427,3.438
			L26.479,25.5z"/>
	</g>
</g>
<g>
	<g>
		<path fill-rule="evenodd" clip-rule="evenodd" fill="#FFFFFF" d="M123,19h-20c-1.657,0-3,1.343-3,3v20c0,1.657,1.343,3,3,3h20
			c1.657,0,3-1.343,3-3V22C126,20.343,124.657,19,123,19z M123,41c0,0.553-0.447,1-1,1h-18c-0.553,0-1-0.447-1-1V23
			c0-0.552,0.447-1,1-1h18c0.553,0,1,0.448,1,1V41z M108.479,25.5l1.5-1.5L105,24.011v4.938l1.802-1.698l4.031,4.062L106.989,35h9
			v-8.875l-3.427,3.438L108.479,25.5z"/>
	</g>
</g>
</svg>
