<?xml version="1.0" encoding="utf-8"?>
<!-- Generator: Adobe Illustrator 15.0.0, SVG Export Plug-In . SVG Version: 6.00 Build 0)  -->
<!DOCTYPE svg PUBLIC "-//W3C//DTD SVG 1.1//EN" "../../../../www.w3.org/Graphics/SVG/1.1/DTD/svg11.dtd">
<svg version="1.1" id="Layer_1" xmlns="http://www.w3.org/2000/svg" xmlns:xlink="../../../../www.w3.org/1999/xlink" x="0px" y="0px"
	 width="144px" height="66px" viewBox="0 0 144 66" enable-background="new 0 0 144 66" xml:space="preserve">
<g>
	<g>
		<path fill-rule="evenodd" clip-rule="evenodd" fill="#282828" d="M37.941,41l-5.042-6.938v-6.021l0.938,0.026c0,0,1.164,0,1.164-1
			v-1c0,0,0-1-1-1c-0.774,0-4.993,0.03-5.997,0.015S27,26.021,27,26.021v1.042c0,0,0,0.911,1,0.958s1,0,1,0v6.104l-5.143,6.959
			c0,0-4.281,4.854,0.156,4.916h13.865C37.878,46,42,46.006,37.941,41z M30.404,23.125c0.319,0,0.578-0.259,0.578-0.578
			s-0.259-0.578-0.578-0.578s-0.578,0.259-0.578,0.578S30.085,23.125,30.404,23.125z M27.42,21.062c0.863,0,1.562-0.7,1.562-1.562
			s-0.7-1.562-1.562-1.562s-1.562,0.7-1.562,1.562S26.557,21.062,27.42,21.062z M33.357,20c1.381,0,2.5-1.119,2.5-2.5
			s-1.119-2.5-2.5-2.5s-2.5,1.119-2.5,2.5S31.977,20,33.357,20z"/>
	</g>
</g>
<g>
	<g>
		<path fill-rule="evenodd" clip-rule="evenodd" fill="#FFFFFF" d="M119.941,41l-5.043-6.938v-6.021l0.938,0.026
			c0,0,1.164,0,1.164-1v-1c0,0,0-1-1-1c-0.773,0-4.993,0.03-5.996,0.015C109,25.068,109,26.021,109,26.021v1.042
			c0,0,0,0.911,1,0.958s1,0,1,0v6.104l-5.143,6.959c0,0-4.281,4.854,0.156,4.916h13.865C119.879,46,124,46.006,119.941,41z
			 M112.404,23.125c0.319,0,0.578-0.259,0.578-0.578s-0.259-0.578-0.578-0.578s-0.578,0.259-0.578,0.578
			S112.085,23.125,112.404,23.125z M109.42,21.062c0.863,0,1.562-0.7,1.562-1.562s-0.699-1.562-1.562-1.562s-1.562,0.7-1.562,1.562
			S108.557,21.062,109.42,21.062z M115.357,20c1.381,0,2.5-1.119,2.5-2.5s-1.119-2.5-2.5-2.5s-2.5,1.119-2.5,2.5
			S113.977,20,115.357,20z"/>
	</g>
</g>
</svg>
