<?xml version="1.0" encoding="utf-8"?>
<!-- Generator: Adobe Illustrator 15.0.0, SVG Export Plug-In . SVG Version: 6.00 Build 0)  -->
<!DOCTYPE svg PUBLIC "-//W3C//DTD SVG 1.1//EN" "../../../../www.w3.org/Graphics/SVG/1.1/DTD/svg11.dtd">
<svg version="1.1" id="Layer_1" xmlns="http://www.w3.org/2000/svg" xmlns:xlink="../../../../www.w3.org/1999/xlink" x="0px" y="0px"
	 width="144px" height="66px" viewBox="0 0 144 66" enable-background="new 0 0 144 66" xml:space="preserve">
<g>
	<g>
		<path fill-rule="evenodd" clip-rule="evenodd" fill="#282828" d="M32.75,32.062c0,0,7.808-6.323,9.628-8.185
			C39.769,20.441,36.224,19,32.562,19C25.625,19,20,24.625,20,31.562c0,6.938,5.625,12.562,12.562,12.562
			c3.691,0,7.699-2.029,9.997-5.002C41.269,38.143,32.75,32.062,32.75,32.062z M34.484,22.938c0.854,0,1.547,0.692,1.547,1.547
			s-0.692,1.547-1.547,1.547s-1.547-0.692-1.547-1.547S33.63,22.938,34.484,22.938z"/>
	</g>
</g>
<g>
	<g>
		<path fill-rule="evenodd" clip-rule="evenodd" fill="#FFFFFF" d="M114.75,32.062c0,0,7.808-6.323,9.628-8.185
			C121.77,20.441,118.224,19,114.562,19C107.625,19,102,24.625,102,31.562c0,6.938,5.625,12.562,12.562,12.562
			c3.691,0,7.699-2.029,9.997-5.002C123.269,38.143,114.75,32.062,114.75,32.062z M116.484,22.938c0.854,0,1.547,0.692,1.547,1.547
			s-0.692,1.547-1.547,1.547s-1.547-0.692-1.547-1.547S115.63,22.938,116.484,22.938z"/>
	</g>
</g>
</svg>
