<?xml version="1.0" encoding="utf-8"?>
<!-- Generator: Adobe Illustrator 15.0.0, SVG Export Plug-In . SVG Version: 6.00 Build 0)  -->
<!DOCTYPE svg PUBLIC "-//W3C//DTD SVG 1.1//EN" "../../../../www.w3.org/Graphics/SVG/1.1/DTD/svg11.dtd">
<svg version="1.1" id="Layer_1" xmlns="http://www.w3.org/2000/svg" xmlns:xlink="../../../../www.w3.org/1999/xlink" x="0px" y="0px"
	 width="144px" height="66px" viewBox="0 0 144 66" enable-background="new 0 0 144 66" xml:space="preserve">
<g>
	<g>
		<path fill-rule="evenodd" clip-rule="evenodd" fill="#282828" d="M26.714,26.069c0,0,0.966,0.817,1.634-0.148l2.869-3.15
			l-2.63-3.734l-3.603,4.201c0,0-0.445,0.742,0.224,1.337L26.714,26.069z M34.354,25.223l-1.978,1.606c0,0-0.743,0.445-0.074,0.668
			l6.016,0.661c0,0,0.669,0.52,0.892-0.445l1.755-4.58c0,0,0-1.337-0.521-0.966l-2.042,0.985l-3.268-4.43c0,0,0.223-0.52-0.668-0.52
			l-3.548,0.009c0,0-1.485-0.074-0.743,0.891L34.354,25.223z M38.253,32.751L39.852,37h4.567l-2.038-6.129
			c0,0-0.353-0.874-1.223-0.668l-2.089,1.125C39.069,31.328,37.846,31.65,38.253,32.751z M43.703,38H36v-2.327
			c0,0,0.175-0.863-0.392-0.444l-4.015,4.432c0,0-0.81,0.249-0.146,0.985l3.681,3.765c0,0,0.878,1.018,0.872,0.379V42h5.168
			l0.81-0.165l2.028-2.41C44.006,39.425,44.919,37.946,43.703,38z M28.691,38.111L24.274,38L22,42h6.606c0,0,0.865,0.051,1.068-0.82
			l-0.072-1.704C29.603,39.476,29.858,38.236,28.691,38.111z M26.735,34.739c0,0,0.746,0.439,0.622-0.254l-1.597-5.65
			c0,0,0.22-1.753-0.734-1.487l-5.642,1.613c0,0-1.174,0.639-0.6,0.918l1.842,1.324l-2.331,4.986c0,0-0.562,0.053-0.137,0.836
			l1.703,3.111c0,0,0.644,1.341,1.137,0.227l3.38-6.594L26.735,34.739z"/>
	</g>
</g>
<g>
	<g>
		<path fill-rule="evenodd" clip-rule="evenodd" fill="#FFFFFF" d="M108.714,26.069c0,0,0.966,0.817,1.634-0.148l2.869-3.15
			l-2.63-3.734l-3.603,4.201c0,0-0.445,0.742,0.224,1.337L108.714,26.069z M116.354,25.223l-1.978,1.606
			c0,0-0.743,0.445-0.074,0.668l6.016,0.661c0,0,0.669,0.52,0.892-0.445l1.755-4.58c0,0,0-1.337-0.521-0.966l-2.042,0.985
			l-3.268-4.43c0,0,0.223-0.52-0.668-0.52l-3.548,0.009c0,0-1.485-0.074-0.743,0.891L116.354,25.223z M120.253,32.751L121.852,37
			h4.567l-2.038-6.129c0,0-0.353-0.874-1.223-0.668l-2.089,1.125C121.069,31.328,119.846,31.65,120.253,32.751z M125.703,38H118
			v-2.327c0,0,0.175-0.863-0.392-0.444l-4.015,4.432c0,0-0.81,0.249-0.146,0.985l3.681,3.765c0,0,0.878,1.018,0.872,0.379V42h5.168
			l0.81-0.165l2.028-2.41C126.006,39.425,126.919,37.946,125.703,38z M110.691,38.111L106.274,38L104,42h6.606
			c0,0,0.865,0.051,1.068-0.82l-0.072-1.704C111.603,39.476,111.858,38.236,110.691,38.111z M108.735,34.739
			c0,0,0.746,0.439,0.622-0.254l-1.597-5.65c0,0,0.22-1.753-0.734-1.487l-5.642,1.613c0,0-1.174,0.639-0.6,0.918l1.842,1.324
			l-2.331,4.986c0,0-0.562,0.053-0.137,0.836l1.703,3.111c0,0,0.644,1.341,1.137,0.227l3.38-6.594L108.735,34.739z"/>
	</g>
</g>
</svg>
