<?xml version="1.0" encoding="utf-8"?>
<!-- Generator: Adobe Illustrator 15.0.0, SVG Export Plug-In . SVG Version: 6.00 Build 0)  -->
<!DOCTYPE svg PUBLIC "-//W3C//DTD SVG 1.1//EN" "../../../../www.w3.org/Graphics/SVG/1.1/DTD/svg11.dtd">
<svg version="1.1" id="Layer_1" xmlns="http://www.w3.org/2000/svg" xmlns:xlink="../../../../www.w3.org/1999/xlink" x="0px" y="0px"
	 width="144px" height="66px" viewBox="0 0 144 66" enable-background="new 0 0 144 66" xml:space="preserve">
<g>
	<g>
		<path fill-rule="evenodd" clip-rule="evenodd" fill="#282828" d="M36.99,39.969c-1.121,0-2.031,0.878-2.031,2S35.869,44,36.99,44
			c1.122,0,2.031-0.909,2.031-2.031S38.112,39.969,36.99,39.969z M25.928,39.969c-1.122,0-1.97,0.847-1.97,1.969
			s0.848,2.031,1.97,2.031c1.122,0,2.031-0.909,2.031-2.031S27.05,39.969,25.928,39.969z M44,31.981l-0.022-6.939
			c0,0-0.101-2.042-1.913-2.042H22.874l-0.423-1.045c0,0-0.429-3.049-2.491-3.049c0,0-2.492,0-2.492,3.003l2.089-0.003
			c0,0,2.559,14.622,2.559,15.062c0,0.553,0.447,2,0.999,2H41.99c0.553,0,1-0.947,1-1.5S42.543,36,41.99,36h-17.5l-0.497-2.025
			l18.051-0.08C42.044,33.895,44,33.918,44,31.981z M25.99,30.969c0,0.553-0.448,1-1,1h-0.031c-0.552,0-1-0.447-1-1v-1
			c0-0.553,0.448-1,1-1h0.031c0.552,0,1,0.447,1,1V30.969z M25.99,26.969c0,0.553-0.448,1-1,1h-1c-0.552,0-1-0.447-1-1v-1
			c0-0.553,0.448-1,1-1h1c0.552,0,1,0.447,1,1V26.969z M29.99,30.969c0,0.553-0.448,1-1,1h-1c-0.552,0-1-0.447-1-1v-1
			c0-0.553,0.448-1,1-1h1c0.552,0,1,0.447,1,1V30.969z M29.99,26.969c0,0.553-0.448,1-1,1h-1c-0.552,0-1-0.447-1-1v-1
			c0-0.553,0.448-1,1-1h1c0.552,0,1,0.447,1,1V26.969z M33.99,30.969c0,0.553-0.448,1-1,1h-1c-0.552,0-1-0.447-1-1v-1
			c0-0.553,0.448-1,1-1h1c0.552,0,1,0.447,1,1V30.969z M33.99,26.969c0,0.553-0.448,1-1,1h-1c-0.552,0-1-0.447-1-1v-1
			c0-0.553,0.448-1,1-1h1c0.552,0,1,0.447,1,1V26.969z M37.99,30.969c0,0.553-0.448,1-1,1h-1c-0.552,0-1-0.447-1-1v-1
			c0-0.553,0.448-1,1-1h1c0.552,0,1,0.447,1,1V30.969z M37.99,26.969c0,0.553-0.448,1-1,1h-1c-0.552,0-1-0.447-1-1v-1
			c0-0.553,0.448-1,1-1h1c0.552,0,1,0.447,1,1V26.969z M41.99,30.969c0,0.553-0.448,1-1,1h-1c-0.552,0-1-0.447-1-1v-1
			c0-0.553,0.448-1,1-1h1c0.552,0,1,0.447,1,1V30.969z M41.99,26.969c0,0.553-0.448,1-1,1h-1c-0.552,0-1-0.447-1-1v-1
			c0-0.553,0.448-1,1-1h1c0.552,0,1,0.447,1,1V26.969z"/>
	</g>
</g>
<g>
	<g>
		<path fill-rule="evenodd" clip-rule="evenodd" fill="#FFFFFF" d="M107.928,39.969c-1.121,0-1.969,0.847-1.969,1.969
			s0.848,2.031,1.969,2.031c1.122,0,2.031-0.909,2.031-2.031S109.05,39.969,107.928,39.969z M118.99,39.969
			c-1.121,0-2.031,0.878-2.031,2S117.869,44,118.99,44s2.031-0.909,2.031-2.031S120.111,39.969,118.99,39.969z M126,31.981
			l-0.021-6.939c0,0-0.102-2.042-1.914-2.042h-19.191l-0.422-1.045c0,0-0.43-3.049-2.492-3.049c0,0-2.491,0-2.491,3.003l2.089-0.003
			c0,0,2.559,14.622,2.559,15.062c0,0.553,0.447,2,1,2h18.875c0.553,0,1-0.947,1-1.5s-0.447-1.469-1-1.469h-17.5l-0.497-2.025
			l18.051-0.08C124.044,33.895,126,33.918,126,31.981z M107.99,30.969c0,0.553-0.447,1-1,1h-0.031c-0.553,0-1-0.447-1-1v-1
			c0-0.553,0.447-1,1-1h0.031c0.553,0,1,0.447,1,1V30.969z M107.99,26.969c0,0.553-0.447,1-1,1h-1c-0.553,0-1-0.447-1-1v-1
			c0-0.553,0.447-1,1-1h1c0.553,0,1,0.447,1,1V26.969z M111.99,30.969c0,0.553-0.447,1-1,1h-1c-0.553,0-1-0.447-1-1v-1
			c0-0.553,0.447-1,1-1h1c0.553,0,1,0.447,1,1V30.969z M111.99,26.969c0,0.553-0.447,1-1,1h-1c-0.553,0-1-0.447-1-1v-1
			c0-0.553,0.447-1,1-1h1c0.553,0,1,0.447,1,1V26.969z M115.99,30.969c0,0.553-0.447,1-1,1h-1c-0.553,0-1-0.447-1-1v-1
			c0-0.553,0.447-1,1-1h1c0.553,0,1,0.447,1,1V30.969z M115.99,26.969c0,0.553-0.447,1-1,1h-1c-0.553,0-1-0.447-1-1v-1
			c0-0.553,0.447-1,1-1h1c0.553,0,1,0.447,1,1V26.969z M119.99,30.969c0,0.553-0.447,1-1,1h-1c-0.553,0-1-0.447-1-1v-1
			c0-0.553,0.447-1,1-1h1c0.553,0,1,0.447,1,1V30.969z M119.99,26.969c0,0.553-0.447,1-1,1h-1c-0.553,0-1-0.447-1-1v-1
			c0-0.553,0.447-1,1-1h1c0.553,0,1,0.447,1,1V26.969z M123.99,30.969c0,0.553-0.447,1-1,1h-1c-0.553,0-1-0.447-1-1v-1
			c0-0.553,0.447-1,1-1h1c0.553,0,1,0.447,1,1V30.969z M123.99,26.969c0,0.553-0.447,1-1,1h-1c-0.553,0-1-0.447-1-1v-1
			c0-0.553,0.447-1,1-1h1c0.553,0,1,0.447,1,1V26.969z"/>
	</g>
</g>
</svg>
