<?xml version="1.0" encoding="utf-8"?>
<!-- Generator: Adobe Illustrator 15.0.0, SVG Export Plug-In . SVG Version: 6.00 Build 0)  -->
<!DOCTYPE svg PUBLIC "-//W3C//DTD SVG 1.1//EN" "../../../../www.w3.org/Graphics/SVG/1.1/DTD/svg11.dtd">
<svg version="1.1" id="Layer_1" xmlns="http://www.w3.org/2000/svg" xmlns:xlink="../../../../www.w3.org/1999/xlink" x="0px" y="0px"
	 width="144px" height="66px" viewBox="0 0 144 66" enable-background="new 0 0 144 66" xml:space="preserve">
<path fill-rule="evenodd" clip-rule="evenodd" fill="#282828" d="M19.897,28.537c-4.322-4.376,0.092-7.811,0.092-7.811
	c3.746-3.25,7.088-0.914,7.088-0.914L41.28,34.911c3.373,3.579-0.625,8.604-0.625,8.604c-3.676,3.385-7.576,1.435-7.576,1.435
	L21.515,34.066c-1.003-0.825-0.655-1.921-0.655-1.921c0.997-0.938,1.97,0.09,1.97,0.09l10.332,10.032
	c3.417,3.083,6.054-0.127,6.054-0.127c2.5-2.25,0.737-5.514,0.737-5.514l-13.5-14.48c-2.604-2.364-4.873,0.37-4.873,0.37
	c-2.801,2.027-0.646,4.073-0.646,4.073l8.966,8.79c1.657,2.553,3.659,0.75,3.659,0.75c1.293-1.229-0.791-3.084-0.791-3.084
	l-5.688-5.639c-0.917-0.833-0.468-1.377-0.312-1.611c0.916-0.75,1.697,0.086,1.697,0.086s5.807,5.934,6.219,6.164
	c0,0,3.209,2.583,0.209,5.333c0,0-3.125,2.833-5.959-0.084L19.897,28.537z"/>
<path fill-rule="evenodd" clip-rule="evenodd" fill="#FFFFFF" d="M101.897,28.537c-4.322-4.376,0.092-7.811,0.092-7.811
	c3.746-3.25,7.088-0.914,7.088-0.914l14.203,15.099c3.373,3.579-0.625,8.604-0.625,8.604c-3.676,3.385-7.576,1.435-7.576,1.435
	l-11.564-10.884c-1.003-0.825-0.655-1.921-0.655-1.921c0.997-0.938,1.97,0.09,1.97,0.09l10.332,10.032
	c3.417,3.083,6.054-0.127,6.054-0.127c2.5-2.25,0.737-5.514,0.737-5.514l-13.5-14.48c-2.604-2.364-4.873,0.37-4.873,0.37
	c-2.801,2.027-0.646,4.073-0.646,4.073l8.966,8.79c1.657,2.553,3.659,0.75,3.659,0.75c1.293-1.229-0.791-3.084-0.791-3.084
	l-5.688-5.639c-0.917-0.833-0.468-1.377-0.312-1.611c0.916-0.75,1.697,0.086,1.697,0.086s5.807,5.934,6.219,6.164
	c0,0,3.209,2.583,0.209,5.333c0,0-3.125,2.833-5.959-0.084L101.897,28.537z"/>
</svg>
