<?xml version="1.0" encoding="utf-8"?>
<!-- Generator: Adobe Illustrator 15.0.0, SVG Export Plug-In . SVG Version: 6.00 Build 0)  -->
<!DOCTYPE svg PUBLIC "-//W3C//DTD SVG 1.1//EN" "../../../../www.w3.org/Graphics/SVG/1.1/DTD/svg11.dtd">
<svg version="1.1" id="Layer_1" xmlns="http://www.w3.org/2000/svg" xmlns:xlink="../../../../www.w3.org/1999/xlink" x="0px" y="0px"
	 width="144px" height="66px" viewBox="0 0 144 66" enable-background="new 0 0 144 66" xml:space="preserve">
<g>
	<g>
		<path fill-rule="evenodd" clip-rule="evenodd" fill="#282828" d="M31,18.886L17,32h2l12-11l12,10.938h2L31,18.886z M21,32v12h8
			v-6.052c0,0,0.036-1.011,1-1.011c1.279,0,0.548,0,1.938,0c1.145,0,1.073,1,1.073,1L33,43.969h8V32l-10-9.062L21,32z M30,32h-2v-2
			h2V32z M30,29h-2v-2h2V29z M32,27h2v2h-2V27z M32,30h2v2h-2V30z M41,26v-6h-3l0.062,3.5L41,26z"/>
	</g>
</g>
<g>
	<g>
		<path fill-rule="evenodd" clip-rule="evenodd" fill="#FFFFFF" d="M113,18.886L99,32h2l12-11l12,10.938h2L113,18.886z M103,32v12h8
			v-6.052c0,0,0.035-1.011,1-1.011c1.279,0,0.549,0,1.938,0c1.145,0,1.072,1,1.072,1L115,43.969h8V32l-10-9.062L103,32z M112,32h-2
			v-2h2V32z M112,29h-2v-2h2V29z M114,27h2v2h-2V27z M114,30h2v2h-2V30z M123,26v-6h-3l0.062,3.5L123,26z"/>
	</g>
</g>
</svg>
