<?xml version="1.0" encoding="utf-8"?>
<!-- Generator: Adobe Illustrator 15.0.0, SVG Export Plug-In . SVG Version: 6.00 Build 0)  -->
<!DOCTYPE svg PUBLIC "-//W3C//DTD SVG 1.1//EN" "../../../../www.w3.org/Graphics/SVG/1.1/DTD/svg11.dtd">
<svg version="1.1" id="Layer_1" xmlns="http://www.w3.org/2000/svg" xmlns:xlink="../../../../www.w3.org/1999/xlink" x="0px" y="0px"
	 width="144px" height="66px" viewBox="0 0 144 66" enable-background="new 0 0 144 66" xml:space="preserve">
<g>
	<g>
		<path fill-rule="evenodd" clip-rule="evenodd" fill="#282828" d="M23,32.029c-0.553,0-1,0.447-1,1v7c0,0.553,0.447,1,1,1
			s1-0.447,1-1v-7C24,32.477,23.553,32.029,23,32.029z M45.009,32.081l-0.096-0.427C44.37,25.098,38.004,19,31.417,19
			c-6.617,0-12.896,6.153-13.378,12.744l0.02,0.324C16.889,32.277,16,33.299,16,34.529v4c0,1.381,1.119,2.5,2.5,2.5
			s2.5-1.119,2.5-2.5v-4l-0.031-1.974c0-5.304,5.143-10.687,10.446-10.687c5.303,0,10.603,5.383,10.603,10.687
			c0,0.522-0.018,1.974-0.018,1.974v4c0,1.381,1.119,2.5,2.5,2.5s2.5-1.119,2.5-2.5v-4C47,33.322,46.146,32.316,45.009,32.081z
			 M40,32.029c-0.553,0-1,0.447-1,1v7c0,0.553,0.447,1,1,1s1-0.447,1-1v-7C41,32.477,40.553,32.029,40,32.029z"/>
	</g>
</g>
<g>
	<g>
		<path fill-rule="evenodd" clip-rule="evenodd" fill="#FFFFFF" d="M105,32.029c-0.553,0-1,0.447-1,1v7c0,0.553,0.447,1,1,1
			s1-0.447,1-1v-7C106,32.477,105.553,32.029,105,32.029z M127.009,32.081l-0.096-0.427C126.37,25.098,120.004,19,113.417,19
			c-6.617,0-12.896,6.153-13.378,12.744l0.02,0.324C98.889,32.277,98,33.299,98,34.529v4c0,1.381,1.119,2.5,2.5,2.5
			s2.5-1.119,2.5-2.5v-4l-0.031-1.974c0-5.304,5.143-10.687,10.446-10.687c5.303,0,10.603,5.383,10.603,10.687
			c0,0.522-0.018,1.974-0.018,1.974v4c0,1.381,1.119,2.5,2.5,2.5s2.5-1.119,2.5-2.5v-4C129,33.322,128.146,32.316,127.009,32.081z
			 M122,32.029c-0.553,0-1,0.447-1,1v7c0,0.553,0.447,1,1,1s1-0.447,1-1v-7C123,32.477,122.553,32.029,122,32.029z"/>
	</g>
</g>
</svg>
