<?xml version="1.0" encoding="utf-8"?>
<!-- Generator: Adobe Illustrator 15.0.0, SVG Export Plug-In . SVG Version: 6.00 Build 0)  -->
<!DOCTYPE svg PUBLIC "-//W3C//DTD SVG 1.1//EN" "../../../../www.w3.org/Graphics/SVG/1.1/DTD/svg11.dtd">
<svg version="1.1" id="Layer_1" xmlns="http://www.w3.org/2000/svg" xmlns:xlink="../../../../www.w3.org/1999/xlink" x="0px" y="0px"
	 width="144px" height="66px" viewBox="0 0 144 66" enable-background="new 0 0 144 66" xml:space="preserve">
<g>
	<g>
		<path fill-rule="evenodd" clip-rule="evenodd" fill="#282828" d="M35,17h-9v7h9V17z M29,23h-2v-1h2V23z M34,23h-2v-1h2V23z
			 M26.76,36.98l-0.542-0.009C26.34,36.988,26.466,37,26.599,37C26.659,37,26.703,36.983,26.76,36.98z M36,25H24.938
			c0,0-1.938,0-1.938,2v17c0,1.657,1.343,3,3,3h9c1.657,0,3-1.343,3-3V27.031C38,25.374,36,25,36,25z M36,35.011h-0.984L35.036,37
			H31l0.036,2.062h-0.257c0.683,0.141,1.195,0.745,1.195,1.469c0,0.829-0.671,1.5-1.5,1.5c-0.828,0-1.5-0.671-1.5-1.5
			c0-0.724,0.513-1.328,1.195-1.469h-0.195l0.031-1.031L26,38l0.036-1.031l0.182,0.003c-0.705-0.099-1.213-0.488-1.213-1.253
			c0-0.897,0.603-1.625,1.5-1.625s1.531,0.728,1.531,1.625c0,0.838-0.484,1.213-1.276,1.262L28,37h2v-4l-1.047,0.011l1.511-2.042
			l1.614,2.062h-1.073L31,36h3v-0.938h-1.089v-2.135H36V35.011z M30.169,39.062h0.61c-0.099-0.021-0.201-0.031-0.305-0.031
			S30.268,39.042,30.169,39.062z"/>
	</g>
</g>
<g>
	<g>
		<path fill-rule="evenodd" clip-rule="evenodd" fill="#FFFFFF" d="M117,17h-9v7h9V17z M111,23h-2v-1h2V23z M116,23h-2v-1h2V23z
			 M108.76,36.98l-0.542-0.009c0.122,0.017,0.248,0.028,0.381,0.028C108.658,37,108.703,36.983,108.76,36.98z M118,25h-11.062
			c0,0-1.938,0-1.938,2v17c0,1.657,1.343,3,3,3h9c1.657,0,3-1.343,3-3V27.031C120,25.374,118,25,118,25z M118,35.011h-0.984
			L117.036,37H113l0.036,2.062h-0.258c0.683,0.141,1.195,0.745,1.195,1.469c0,0.829-0.671,1.5-1.5,1.5c-0.828,0-1.5-0.671-1.5-1.5
			c0-0.724,0.514-1.328,1.195-1.469h-0.195l0.031-1.031L108,38l0.036-1.031l0.182,0.003c-0.705-0.099-1.213-0.488-1.213-1.253
			c0-0.897,0.603-1.625,1.5-1.625s1.531,0.728,1.531,1.625c0,0.838-0.484,1.213-1.276,1.262L110,37h2v-4l-1.047,0.011l1.511-2.042
			l1.614,2.062h-1.073L113,36h3v-0.938h-1.089v-2.135H118V35.011z M112.169,39.062h0.609c-0.099-0.021-0.2-0.031-0.305-0.031
			S112.268,39.042,112.169,39.062z"/>
	</g>
</g>
</svg>
