<?xml version="1.0" encoding="utf-8"?>
<!-- Generator: Adobe Illustrator 15.0.0, SVG Export Plug-In . SVG Version: 6.00 Build 0)  -->
<!DOCTYPE svg PUBLIC "-//W3C//DTD SVG 1.1//EN" "../../../../www.w3.org/Graphics/SVG/1.1/DTD/svg11.dtd">
<svg version="1.1" id="Layer_1" xmlns="http://www.w3.org/2000/svg" xmlns:xlink="../../../../www.w3.org/1999/xlink" x="0px" y="0px"
	 width="144px" height="66px" viewBox="0 0 144 66" enable-background="new 0 0 144 66" xml:space="preserve">
<g>
	<g>
		<path fill-rule="evenodd" clip-rule="evenodd" fill="#282828" d="M32.841,37.587c-3.815-0.562-2.764-2.516-2.79-2.635
			c0.007-0.3,0.14-1.571,0.14-1.571s1.479-1.022,2.063-2.689c0.921-0.581,1.271-0.662,1.424-1.332c0,0,0.311-2.531-0.678-2.531
			c0,0-0.412,0.066-0.28-0.527s0.088-2.509,0.022-3.168s0.126-2.543-1.258-2.807c-0.945-0.176-1.055,0.091-1.516,0.025
			c-0.461-0.066-1.011-1.262-1.868-1.262l-1.78,0.286c-0.857,0-0.725,0.264-1.187,0.329c-0.461,0.066,0.094-0.065-1.291,0.197
			c-1.384,0.265-1.873,2.044-1.939,2.703s-0.145,2.575-0.101,3.563c0.132,0.594-0.329,0.594-0.329,0.594
			c-0.83-0.054-0.457,2.531-0.457,2.531c0.12,0.637-0.042,0.954,1.186,1.447c0.585,1.667,2.386,2.508,2.386,2.508
			s0.074,1.068,0.097,1.83c-0.125-0.062,0.462,1.945-3.353,2.508c-3.815,0.562-4.108,1.799-4.828,2.487
			C15.787,40.762,15.841,44,15.841,44H38.91c0,0-0.156-3.238-0.875-3.926C37.315,39.386,36.657,38.149,32.841,37.587z
			 M47.329,41.168c-0.551-0.527-1.056-1.475-3.98-1.906c-2.924-0.431-2.347-1.928-2.367-2.019c0.005-0.229,0.107-1.204,0.107-1.204
			s1.196-0.784,1.644-2.062c0.706-0.445,0.974-0.507,1.091-1.021c0,0,0.051-1.94-0.707-1.94c0,0-0.316,0.051-0.215-0.404
			c0.101-0.454,0.067-1.922,0.017-2.427c-0.051-0.506,0.097-1.949-0.964-2.151c-0.724-0.135-0.621,0.069-0.974,0.02
			c-0.354-0.051-0.775-0.967-1.432-0.967l-1.364,0.219c-0.657,0-0.556,0.202-0.909,0.253c-0.354,0.05,0.072-0.051-0.989,0.151
			s-1.248,1.565-1.298,2.071c-0.051,0.505-0.111,1.973-0.078,2.73c0.101,0.455-0.44,0.455-0.44,0.455
			c-0.636-0.041-0.35,1.939-0.35,1.939c0.092,0.488-0.033,0.731,0.909,1.109c0.448,1.277,1.828,1.922,1.828,1.922
			s0.057,0.882,0.075,1.465c1.135,0.667,1.941,1.438,2.515,2.29c0.791,2.225,0.783,4.297,0.783,4.297c3.812,0,7.77,0,7.77,0
			S47.88,41.695,47.329,41.168z"/>
	</g>
</g>
<g>
	<g>
		<path fill-rule="evenodd" clip-rule="evenodd" fill="#FFFFFF" d="M114.842,37.587c-3.815-0.562-2.764-2.516-2.791-2.635
			c0.008-0.3,0.141-1.571,0.141-1.571s1.479-1.022,2.063-2.689c0.921-0.581,1.271-0.662,1.424-1.332c0,0,0.311-2.531-0.679-2.531
			c0,0-0.412,0.066-0.279-0.527c0.131-0.594,0.088-2.509,0.021-3.168s0.127-2.543-1.258-2.807c-0.945-0.176-1.055,0.091-1.516,0.025
			c-0.462-0.066-1.012-1.262-1.868-1.262l-1.78,0.286c-0.856,0-0.725,0.264-1.186,0.329c-0.462,0.066,0.094-0.065-1.291,0.197
			c-1.385,0.265-1.873,2.044-1.939,2.703s-0.145,2.575-0.102,3.563c0.133,0.594-0.328,0.594-0.328,0.594
			c-0.83-0.054-0.457,2.531-0.457,2.531c0.119,0.637-0.043,0.954,1.186,1.447c0.584,1.667,2.386,2.508,2.386,2.508
			s0.073,1.068,0.097,1.83c-0.125-0.062,0.463,1.945-3.352,2.508c-3.816,0.562-4.109,1.799-4.828,2.487
			C97.787,40.762,97.842,44,97.842,44h23.068c0,0-0.156-3.238-0.875-3.926C119.315,39.386,118.656,38.149,114.842,37.587z
			 M129.329,41.168c-0.552-0.527-1.056-1.475-3.979-1.906c-2.924-0.431-2.348-1.928-2.367-2.019
			c0.005-0.229,0.107-1.204,0.107-1.204s1.195-0.784,1.644-2.062c0.706-0.445,0.974-0.507,1.091-1.021c0,0,0.051-1.94-0.707-1.94
			c0,0-0.316,0.051-0.215-0.404c0.102-0.454,0.067-1.922,0.018-2.427c-0.051-0.506,0.096-1.949-0.965-2.151
			c-0.725-0.135-0.621,0.069-0.975,0.02c-0.354-0.051-0.774-0.967-1.432-0.967l-1.363,0.219c-0.656,0-0.556,0.202-0.909,0.253
			c-0.354,0.05,0.071-0.051-0.989,0.151s-1.248,1.565-1.299,2.071c-0.051,0.505-0.111,1.973-0.077,2.73
			c0.101,0.455-0.44,0.455-0.44,0.455c-0.635-0.041-0.35,1.939-0.35,1.939c0.092,0.488-0.033,0.731,0.908,1.109
			c0.449,1.277,1.828,1.922,1.828,1.922s0.058,0.882,0.075,1.465c1.136,0.667,1.941,1.438,2.515,2.29
			c0.791,2.225,0.783,4.297,0.783,4.297c3.811,0,7.77,0,7.77,0S129.88,41.695,129.329,41.168z"/>
	</g>
</g>
</svg>
