<?xml version="1.0" encoding="utf-8"?>
<!-- Generator: Adobe Illustrator 15.0.0, SVG Export Plug-In . SVG Version: 6.00 Build 0)  -->
<!DOCTYPE svg PUBLIC "-//W3C//DTD SVG 1.1//EN" "../../../../www.w3.org/Graphics/SVG/1.1/DTD/svg11.dtd">
<svg version="1.1" id="Layer_1" xmlns="http://www.w3.org/2000/svg" xmlns:xlink="../../../../www.w3.org/1999/xlink" x="0px" y="0px"
	 width="144px" height="66px" viewBox="0 0 144 66" enable-background="new 0 0 144 66" xml:space="preserve">
<g>
	<g>
		<path fill-rule="evenodd" clip-rule="evenodd" fill="#282828" d="M31.338,38.725c-2.602-0.384-2.173-3.318-2.259-3.275
			s0.021-0.618,0.021-0.618c1.498-0.839,1.961-3.171,1.961-3.171v-2.958c0,0-0.554-3.177-2.944-3.177l-2.06-0.719
			c-2.66,0-2.965,3.896-2.965,3.896s0.021,1.076,0,2.719c-0.021,1.642,1.862,3.462,1.862,3.462s0.106,0.661,0.021,0.618
			c-0.085-0.043,0.703,2.84-1.899,3.224c-2.602,0.384-4.756,1.991-5.246,2.46C16.981,42.283,17.009,45,17.009,45h20.118
			c0,0-0.277-3.346-0.767-3.815C35.869,40.716,33.939,39.108,31.338,38.725z M38.942,17.945c-4.385,0-7.814,2.436-7.814,5.595
			c0,1.788,1.015,3.198,2.8,4.247c0.404,0.237,0.35,2.137-1.924,3.213c0,0,3.336,0.44,5.377-2.14c0.505,0.072,1.027,0.11,1.561,0.11
			c4.385,0,7.058-2.272,7.058-5.431C46,20.381,43.327,17.945,38.942,17.945z"/>
	</g>
</g>
<g>
	<g>
		<path fill-rule="evenodd" clip-rule="evenodd" fill="#FFFFFF" d="M113.338,38.725c-2.602-0.384-2.174-3.318-2.259-3.275
			s0.021-0.618,0.021-0.618c1.498-0.839,1.961-3.171,1.961-3.171v-2.958c0,0-0.554-3.177-2.944-3.177l-2.06-0.719
			c-2.659,0-2.965,3.896-2.965,3.896s0.021,1.076,0,2.719c-0.021,1.642,1.862,3.462,1.862,3.462s0.106,0.661,0.021,0.618
			c-0.086-0.043,0.703,2.84-1.899,3.224c-2.602,0.384-4.756,1.991-5.246,2.46C98.98,42.283,99.009,45,99.009,45h20.118
			c0,0-0.277-3.346-0.768-3.815C117.869,40.716,115.939,39.108,113.338,38.725z M120.941,17.945c-4.385,0-7.814,2.436-7.814,5.595
			c0,1.788,1.016,3.198,2.801,4.247c0.404,0.237,0.35,2.137-1.924,3.213c0,0,3.336,0.44,5.377-2.14
			c0.505,0.072,1.027,0.11,1.561,0.11c4.386,0,7.059-2.272,7.059-5.431C128,20.381,125.327,17.945,120.941,17.945z"/>
	</g>
</g>
</svg>
