<?xml version="1.0" encoding="utf-8"?>
<!-- Generator: Adobe Illustrator 15.0.0, SVG Export Plug-In . SVG Version: 6.00 Build 0)  -->
<!DOCTYPE svg PUBLIC "-//W3C//DTD SVG 1.1//EN" "../../../../www.w3.org/Graphics/SVG/1.1/DTD/svg11.dtd">
<svg version="1.1" id="Layer_1" xmlns="http://www.w3.org/2000/svg" xmlns:xlink="../../../../www.w3.org/1999/xlink" x="0px" y="0px"
	 width="144px" height="66px" viewBox="0 0 144 66" enable-background="new 0 0 144 66" xml:space="preserve">
<g>
	<g>
		<path fill-rule="evenodd" clip-rule="evenodd" fill="#282828" d="M31.023,27.106c-2.687,0-4.863,2.177-4.863,4.864
			c0,2.686,2.177,4.863,4.863,4.863c2.686,0,4.863-2.178,4.863-4.863C35.887,29.283,33.709,27.106,31.023,27.106z M30.945,34.861
			c-1.64,0-2.97-1.329-2.97-2.969s1.33-2.97,2.97-2.97c1.641,0,2.971,1.33,2.971,2.97S32.586,34.861,30.945,34.861z M31.026,18.946
			C23.832,18.946,18,24.778,18,31.973C18,39.168,23.832,45,31.026,45s13.027-5.832,13.027-13.027
			C44.054,24.778,38.221,18.946,31.026,18.946z M31.027,43.083c-6.137,0-11.109-4.975-11.109-11.11
			c0-6.136,4.973-11.11,11.109-11.11c6.135,0,11.109,4.974,11.109,11.11C42.137,38.108,37.162,43.083,31.027,43.083z M30.943,23.046
			c-4.93,0-8.927,3.997-8.927,8.927s3.997,8.927,8.927,8.927s8.927-3.997,8.927-8.927S35.873,23.046,30.943,23.046z M31.025,38.97
			c-3.865,0-6.999-3.134-6.999-6.999s3.134-6.998,6.999-6.998c3.864,0,6.998,3.133,6.998,6.998S34.89,38.97,31.025,38.97z"/>
	</g>
</g>
<g>
	<g>
		<path fill-rule="evenodd" clip-rule="evenodd" fill="#FFFFFF" d="M113.023,27.106c-2.687,0-4.863,2.177-4.863,4.864
			c0,2.686,2.177,4.863,4.863,4.863c2.686,0,4.863-2.178,4.863-4.863C117.887,29.283,115.709,27.106,113.023,27.106z
			 M112.945,34.861c-1.64,0-2.97-1.329-2.97-2.969s1.33-2.97,2.97-2.97c1.641,0,2.971,1.33,2.971,2.97
			S114.586,34.861,112.945,34.861z M112.943,23.046c-4.93,0-8.927,3.997-8.927,8.927s3.997,8.927,8.927,8.927
			s8.927-3.997,8.927-8.927S117.873,23.046,112.943,23.046z M113.025,38.97c-3.865,0-6.999-3.134-6.999-6.999
			s3.134-6.998,6.999-6.998c3.864,0,6.998,3.133,6.998,6.998S116.89,38.97,113.025,38.97z M113.026,18.946
			c-7.194,0-13.026,5.833-13.026,13.027C100,39.168,105.832,45,113.026,45s13.027-5.832,13.027-13.027
			C126.054,24.778,120.221,18.946,113.026,18.946z M113.027,43.083c-6.137,0-11.109-4.975-11.109-11.11
			c0-6.136,4.973-11.11,11.109-11.11c6.135,0,11.109,4.974,11.109,11.11C124.137,38.108,119.162,43.083,113.027,43.083z"/>
	</g>
</g>
</svg>
