<?xml version="1.0" encoding="utf-8"?>
<!-- Generator: Adobe Illustrator 15.0.0, SVG Export Plug-In . SVG Version: 6.00 Build 0)  -->
<!DOCTYPE svg PUBLIC "-//W3C//DTD SVG 1.1//EN" "../../../../www.w3.org/Graphics/SVG/1.1/DTD/svg11.dtd">
<svg version="1.1" id="Layer_1" xmlns="http://www.w3.org/2000/svg" xmlns:xlink="../../../../www.w3.org/1999/xlink" x="0px" y="0px"
	 width="144px" height="66px" viewBox="0 0 144 66" enable-background="new 0 0 144 66" xml:space="preserve">
<g>
	<g>
		<path fill-rule="evenodd" clip-rule="evenodd" fill="#282828" d="M33.03,34.964l11.937-9.953c0-2-1.875-2.011-1.875-2.011H18.845
			c-1.881,0-1.802,1.98-1.802,1.98l12.052,9.984C31.345,37.214,33.03,34.964,33.03,34.964z M39.24,30.952l3.802,7.993l-5.062-6.91
			l-3.959,3.403c-1.562,1.875-3.083,1.625-3.083,1.625c-1.812,0-3-1.688-3-1.688l-3.907-3.349l-5.013,6.891l3.938-7.812L17,26v13
			c0,2,1.875,2,1.875,2H43c1.812,0,2-1.938,2-1.938V26L39.24,30.952z"/>
	</g>
</g>
<g>
	<g>
		<path fill-rule="evenodd" clip-rule="evenodd" fill="#FFFFFF" d="M115.03,34.964l11.937-9.953c0-2-1.874-2.011-1.874-2.011
			h-24.248c-1.881,0-1.802,1.98-1.802,1.98l12.052,9.984C113.345,37.214,115.03,34.964,115.03,34.964z M121.24,30.952l3.801,7.993
			l-5.061-6.91l-3.959,3.403c-1.562,1.875-3.084,1.625-3.084,1.625c-1.812,0-3-1.688-3-1.688l-3.906-3.349l-5.014,6.891l3.938-7.812
			L99,26v13c0,2,1.875,2,1.875,2H125c1.812,0,2-1.938,2-1.938V26L121.24,30.952z"/>
	</g>
</g>
</svg>
