<?xml version="1.0" encoding="utf-8"?>
<!-- Generator: Adobe Illustrator 15.0.0, SVG Export Plug-In . SVG Version: 6.00 Build 0)  -->
<!DOCTYPE svg PUBLIC "-//W3C//DTD SVG 1.1//EN" "../../../../www.w3.org/Graphics/SVG/1.1/DTD/svg11.dtd">
<svg version="1.1" id="Layer_1" xmlns="http://www.w3.org/2000/svg" xmlns:xlink="../../../../www.w3.org/1999/xlink" x="0px" y="0px"
	 width="144px" height="66px" viewBox="0 0 144 66" enable-background="new 0 0 144 66" xml:space="preserve">
<g>
	<g>
		<path fill-rule="evenodd" clip-rule="evenodd" fill="#282828" d="M41.938,19.25C37.062,26.25,27,26,27,26
			c-1.188,0-1,0.938-1,0.938v8.125C26,36,27.062,36,27.062,36c11.25,0,15.021,6.729,15.021,6.729s0.854,1.021,0.791-0.042v-6.625
			l0.062-16.938C42.938,18,41.938,19.25,41.938,19.25z M23.938,26h-3.875c0,0-3.062,0.125-3.062,2.938v3.875
			c0,0-0.062,3.25,2.938,3.25c0,0,1.062,0.625,1.062,1.812v7c0,0-0.188,1.125,1,1.125h1.875c0,0,1.125-0.25,1.125-1.062
			c0,0-0.125-3.875-0.875-3.875c0,0,1.812-2.062-0.188-3c0,0,1-1.312,1-2.062L25,27.062C25,27.062,25.188,26,23.938,26z M45,18
			c-0.553,0-1,0.447-1,1v24c0,0.553,0.447,1,1,1s1-0.447,1-1V19C46,18.447,45.553,18,45,18z"/>
	</g>
</g>
<g>
	<g>
		<path fill-rule="evenodd" clip-rule="evenodd" fill="#FFFFFF" d="M123.938,19.25C119.062,26.25,109,26,109,26
			c-1.188,0-1,0.938-1,0.938v8.125C108,36,109.062,36,109.062,36c11.25,0,15.021,6.729,15.021,6.729s0.854,1.021,0.791-0.042v-6.625
			l0.062-16.938C124.938,18,123.938,19.25,123.938,19.25z M105.938,26h-3.875c0,0-3.062,0.125-3.062,2.938v3.875
			c0,0-0.062,3.25,2.938,3.25c0,0,1.062,0.625,1.062,1.812v7c0,0-0.188,1.125,1,1.125h1.875c0,0,1.125-0.25,1.125-1.062
			c0,0-0.125-3.875-0.875-3.875c0,0,1.812-2.062-0.188-3c0,0,1-1.312,1-2.062L107,27.062C107,27.062,107.188,26,105.938,26z M127,18
			c-0.553,0-1,0.447-1,1v24c0,0.553,0.447,1,1,1s1-0.447,1-1V19C128,18.447,127.553,18,127,18z"/>
	</g>
</g>
</svg>
