<?xml version="1.0" encoding="utf-8"?>
<!-- Generator: Adobe Illustrator 15.0.0, SVG Export Plug-In . SVG Version: 6.00 Build 0)  -->
<!DOCTYPE svg PUBLIC "-//W3C//DTD SVG 1.1//EN" "../../../../www.w3.org/Graphics/SVG/1.1/DTD/svg11.dtd">
<svg version="1.1" id="Layer_1" xmlns="http://www.w3.org/2000/svg" xmlns:xlink="../../../../www.w3.org/1999/xlink" x="0px" y="0px"
	 width="144px" height="66px" viewBox="0 0 144 66" enable-background="new 0 0 144 66" xml:space="preserve">
<g>
	<g>
		<path fill-rule="evenodd" clip-rule="evenodd" fill="#282828" d="M42.768,23c0,0-8.581,0-14.727,0l0.015-0.972
			c0-0.549-0.445-0.993-0.993-0.993H22.22c-0.549,0-1.076,0.444-1.076,0.993L21.072,23h-1.964c-1.371,0-3.045,0.949-3.045,2.319
			v14.198c0,1.371,1.111,2.482,2.482,2.482h24.222C44.139,42,45,40.889,45,39.518V25.382C45,24.011,44.139,23,42.768,23z
			 M19.067,40.975c0,0-2.067-0.547-2.067-1.5v-14c0-0.828,1.239-1.5,2.067-1.5V40.975z M26.884,27.308
			c-0.677,0-1.226-0.549-1.226-1.226s0.549-1.226,1.226-1.226s1.226,0.549,1.226,1.226S27.561,27.308,26.884,27.308z M33.526,39.997
			c-3.039,0-5.503-2.464-5.503-5.504c0-3.039,2.464-5.503,5.503-5.503c3.04,0,5.504,2.464,5.504,5.503
			C39.03,37.533,36.566,39.997,33.526,39.997z M42.997,27.494c0,0.548,0.052,0.496-0.496,0.496h-4.522
			c-0.548,0-0.993-0.444-0.993-0.993v-1.568c0-0.548-0.052-0.496,0.497-0.496h4.522c0.548,0,0.992,0.444,0.992,0.993V27.494z
			 M33.562,30.852c-1.946,0-3.523,1.578-3.523,3.523c0,1.946,1.577,3.523,3.523,3.523s3.523-1.577,3.523-3.523
			C37.086,32.43,35.509,30.852,33.562,30.852z"/>
	</g>
</g>
<g>
	<g>
		<path fill-rule="evenodd" clip-rule="evenodd" fill="#FFFFFF" d="M124.768,23c0,0-8.581,0-14.727,0l0.015-0.972
			c0-0.549-0.445-0.993-0.993-0.993h-4.843c-0.549,0-1.076,0.444-1.076,0.993L103.072,23h-1.964c-1.371,0-3.045,0.949-3.045,2.319
			v14.198c0,1.371,1.111,2.482,2.482,2.482h24.222c1.371,0,2.232-1.111,2.232-2.482V25.382C127,24.011,126.139,23,124.768,23z
			 M101.067,40.975c0,0-2.067-0.547-2.067-1.5v-14c0-0.828,1.239-1.5,2.067-1.5V40.975z M108.884,27.308
			c-0.677,0-1.226-0.549-1.226-1.226s0.549-1.226,1.226-1.226s1.226,0.549,1.226,1.226S109.561,27.308,108.884,27.308z
			 M115.526,39.997c-3.039,0-5.503-2.464-5.503-5.504c0-3.039,2.464-5.503,5.503-5.503c3.04,0,5.504,2.464,5.504,5.503
			C121.03,37.533,118.566,39.997,115.526,39.997z M124.997,27.494c0,0.548,0.052,0.496-0.496,0.496h-4.522
			c-0.548,0-0.993-0.444-0.993-0.993v-1.568c0-0.548-0.052-0.496,0.497-0.496h4.522c0.548,0,0.992,0.444,0.992,0.993V27.494z
			 M115.562,30.852c-1.946,0-3.523,1.578-3.523,3.523c0,1.946,1.577,3.523,3.523,3.523s3.523-1.577,3.523-3.523
			C119.086,32.43,117.509,30.852,115.562,30.852z"/>
	</g>
</g>
</svg>
