<?xml version="1.0" encoding="utf-8"?>
<!-- Generator: Adobe Illustrator 15.0.0, SVG Export Plug-In . SVG Version: 6.00 Build 0)  -->
<!DOCTYPE svg PUBLIC "-//W3C//DTD SVG 1.1//EN" "../../../../www.w3.org/Graphics/SVG/1.1/DTD/svg11.dtd">
<svg version="1.1" id="Layer_1" xmlns="http://www.w3.org/2000/svg" xmlns:xlink="../../../../www.w3.org/1999/xlink" x="0px" y="0px"
	 width="144px" height="66px" viewBox="0 0 144 66" enable-background="new 0 0 144 66" xml:space="preserve">
<g>
	<g>
		<path fill-rule="evenodd" clip-rule="evenodd" fill="#282828" d="M20.947,32.708c0,0,1.934-0.001,1.934-1.418
			c0-4.976,3.84-8.712,8.816-8.712c4.514,0,5.752,2.097,5.858,1.988l-3.173,2.67C32.932,28.688,34.573,29,34.573,29h8.593
			l0.808-1.115l-0.063-8.792c-0.021-1.501-1.473-0.035-1.473-0.035l-2.275,2.887c0,0-3.48-3.319-8.465-3.236
			c-6.949,0-12.75,5.634-12.75,12.583C18.947,31.291,18.947,32.708,20.947,32.708z M41.947,30c0,0-1.947,0-1.934,1.126
			c0,4.976-3.84,8.712-8.816,8.712c-4.514,0-5.752-2.097-5.858-1.987l3.173-2.671C30,34,28.321,34,28.321,34h-8.593L19,34.531v8.792
			c0.021,1.501,1.457,0.035,1.457,0.035l2.275-2.887c0,0,3.48,3.32,8.465,3.236c6.949,0,12.667-5.634,12.667-12.583
			C43.864,31.125,43.947,30,41.947,30z"/>
	</g>
</g>
<g>
	<g>
		<path fill-rule="evenodd" clip-rule="evenodd" fill="#FFFFFF" d="M102.947,32.708c0,0,1.934-0.001,1.934-1.418
			c0-4.976,3.84-8.712,8.816-8.712c4.514,0,5.752,2.097,5.858,1.988l-3.173,2.67c-1.451,1.452,0.19,1.764,0.19,1.764h8.593
			l0.808-1.115l-0.063-8.792c-0.021-1.501-1.473-0.035-1.473-0.035l-2.275,2.887c0,0-3.48-3.319-8.465-3.236
			c-6.949,0-12.75,5.634-12.75,12.583C100.947,31.291,100.947,32.708,102.947,32.708z M123.947,30c0,0-1.947,0-1.934,1.126
			c0,4.976-3.84,8.712-8.816,8.712c-4.514,0-5.752-2.097-5.858-1.987l3.173-2.671C112,34,110.321,34,110.321,34h-8.593L101,34.531
			v8.792c0.021,1.501,1.457,0.035,1.457,0.035l2.275-2.887c0,0,3.48,3.32,8.465,3.236c6.949,0,12.667-5.634,12.667-12.583
			C125.864,31.125,125.947,30,123.947,30z"/>
	</g>
</g>
</svg>
