<?xml version="1.0" encoding="utf-8"?>
<!-- Generator: Adobe Illustrator 15.0.0, SVG Export Plug-In . SVG Version: 6.00 Build 0)  -->
<!DOCTYPE svg PUBLIC "-//W3C//DTD SVG 1.1//EN" "../../../../www.w3.org/Graphics/SVG/1.1/DTD/svg11.dtd">
<svg version="1.1" id="Layer_1" xmlns="http://www.w3.org/2000/svg" xmlns:xlink="../../../../www.w3.org/1999/xlink" x="0px" y="0px"
	 width="144px" height="66px" viewBox="0 0 144 66" enable-background="new 0 0 144 66" xml:space="preserve">
<path fill-rule="evenodd" clip-rule="evenodd" fill="#282828" d="M23,40.021c-3.866,0-7-3.196-7-7.062
	c0-3.866,2.603-6.907,6.469-6.907c0,0-0.484,0.606-0.468,3.897c0.516-1.993,1.063-2.956,1.063-2.956
	C25.079,23.009,27.528,22,30.5,22c2.933,0,6.257,1.78,6.596,4.835c0.344,1.719-0.031,3.465-0.031,3.465
	c1.5-1.531,0.607-4.709,0.607-4.709C38.144,25.186,38.885,25,39.5,25c3.728,0,6.594,3.397,6.594,7.125
	c0,3.728-2.804,7.875-8.813,7.875c-2.344,0.156-2.888-1.303-8.073-0.921C26.763,40.27,23,40.021,23,40.021z"/>
<path fill-rule="evenodd" clip-rule="evenodd" fill="#FFFFFF" d="M105,40.021c-3.865,0-7-3.196-7-7.062
	c0-3.866,2.604-6.907,6.469-6.907c0,0-0.484,0.606-0.468,3.897c0.517-1.993,1.063-2.956,1.063-2.956
	C107.078,23.009,109.527,22,112.5,22c2.933,0,6.258,1.78,6.596,4.835c0.344,1.719-0.031,3.465-0.031,3.465
	c1.5-1.531,0.607-4.709,0.607-4.709c0.473-0.404,1.213-0.59,1.828-0.59c3.729,0,6.594,3.397,6.594,7.125
	c0,3.728-2.803,7.875-8.812,7.875c-2.344,0.156-2.889-1.303-8.072-0.921C108.763,40.27,105,40.021,105,40.021z"/>
</svg>
