<?xml version="1.0" encoding="utf-8"?>
<!-- Generator: Adobe Illustrator 15.0.0, SVG Export Plug-In . SVG Version: 6.00 Build 0)  -->
<!DOCTYPE svg PUBLIC "-//W3C//DTD SVG 1.1//EN" "../../../../www.w3.org/Graphics/SVG/1.1/DTD/svg11.dtd">
<svg version="1.1" id="Layer_1" xmlns="http://www.w3.org/2000/svg" xmlns:xlink="../../../../www.w3.org/1999/xlink" x="0px" y="0px"
	 width="144px" height="66px" viewBox="0 0 144 66" enable-background="new 0 0 144 66" xml:space="preserve">
<g>
	<g>
		<path fill-rule="evenodd" clip-rule="evenodd" fill="#282828" d="M44,38V23.917c0,0-0.093-1.851-1.843-1.851L19.9,22
			c0,0-1.9,0-1.9,2v14h-2.91L15,40c0,0-0.053,2,1.833,2h28.25c1.803,0,1.834-2,1.834-2v-2H44z M20,24h22v13H20V24z M35,41h-7
			c-0.553,0-1-0.261-1-0.583s0.447-0.584,1-0.584h7c0.552,0,1,0.262,1,0.584S35.552,41,35,41z M44.5,41h-2
			c-0.276,0-0.5-0.224-0.5-0.5s0.224-0.5,0.5-0.5h2c0.276,0,0.5,0.224,0.5,0.5S44.776,41,44.5,41z"/>
	</g>
</g>
<g>
	<g>
		<path fill-rule="evenodd" clip-rule="evenodd" fill="#FFFFFF" d="M126,38V23.917c0,0-0.093-1.851-1.843-1.851L101.9,22
			c0,0-1.9,0-1.9,2v14h-2.91L97,40c0,0-0.053,2,1.833,2h28.25c1.803,0,1.834-2,1.834-2v-2H126z M102,24h22v13h-22V24z M117,41h-7
			c-0.553,0-1-0.261-1-0.583s0.447-0.584,1-0.584h7c0.552,0,1,0.262,1,0.584S117.552,41,117,41z M126.5,41h-2
			c-0.276,0-0.5-0.224-0.5-0.5s0.224-0.5,0.5-0.5h2c0.276,0,0.5,0.224,0.5,0.5S126.776,41,126.5,41z"/>
	</g>
</g>
</svg>
