<?xml version="1.0" encoding="utf-8"?>
<!-- Generator: Adobe Illustrator 15.0.0, SVG Export Plug-In . SVG Version: 6.00 Build 0)  -->
<!DOCTYPE svg PUBLIC "-//W3C//DTD SVG 1.1//EN" "../../../../www.w3.org/Graphics/SVG/1.1/DTD/svg11.dtd">
<svg version="1.1" id="Layer_1" xmlns="http://www.w3.org/2000/svg" xmlns:xlink="../../../../www.w3.org/1999/xlink" x="0px" y="0px"
	 width="144px" height="66px" viewBox="0 0 144 66" enable-background="new 0 0 144 66" xml:space="preserve">
<g>
	<g>
		<path fill-rule="evenodd" clip-rule="evenodd" fill="#282828" d="M38.863,21.033c-0.572,0-1.878,0.051-2.328,1.203L36,23.396
			C35.918,19.541,33.731,18,31,18c-2.769,0-4.809,1.328-6.395,5.543c0,0-1.291-0.634-0.506-1.827
			c-4.144-0.077-6.131,3.032-6.131,6.633s2.919,6.578,6.52,6.578l11.684-0.02c5.598,0,8.209-3.862,8.209-7.335
			C44.457,22.16,42.336,21.033,38.863,21.033z M36.125,35.875l-2,4.062l2.062,0.125L34.062,47L38,38.938h-2L36.125,35.875z
			 M26.99,35.875l0.125,2.104h-2l2.875,4.938l-1.062-3.938l2.062-0.125L26.99,35.875z"/>
	</g>
</g>
<g>
	<g>
		<path fill-rule="evenodd" clip-rule="evenodd" fill="#FFFFFF" d="M120.863,21.033c-0.572,0-1.878,0.051-2.328,1.203L118,23.396
			c-0.082-3.854-2.269-5.396-5-5.396c-2.769,0-4.809,1.328-6.395,5.543c0,0-1.291-0.634-0.506-1.827
			c-4.144-0.077-6.131,3.032-6.131,6.633s2.919,6.578,6.52,6.578l11.684-0.02c5.598,0,8.209-3.862,8.209-7.335
			C126.457,22.16,124.336,21.033,120.863,21.033z M118.125,35.875l-2,4.062l2.062,0.125L116.062,47L120,38.938h-2L118.125,35.875z
			 M108.99,35.875l0.125,2.104h-2l2.875,4.938l-1.062-3.938l2.062-0.125L108.99,35.875z"/>
	</g>
</g>
</svg>
