<?xml version="1.0" encoding="utf-8"?>
<!-- Generator: Adobe Illustrator 15.0.0, SVG Export Plug-In . SVG Version: 6.00 Build 0)  -->
<!DOCTYPE svg PUBLIC "-//W3C//DTD SVG 1.1//EN" "../../../../www.w3.org/Graphics/SVG/1.1/DTD/svg11.dtd">
<svg version="1.1" id="Layer_1" xmlns="http://www.w3.org/2000/svg" xmlns:xlink="../../../../www.w3.org/1999/xlink" x="0px" y="0px"
	 width="144px" height="66px" viewBox="0 0 144 66" enable-background="new 0 0 144 66" xml:space="preserve">
<g>
	<g>
		<path fill-rule="evenodd" clip-rule="evenodd" fill="#282828" d="M37.969,17H24c0,0-2-0.031-2,2.062l0.031,24.886
			c0,0-0.188,2.052,1.906,2.052h14.125c0,0,1.938,0.031,1.938-1.969V19.062C40,19.062,40.062,17,37.969,17z M29,18h4v1h-4V18z
			 M27.5,18c0.276,0,0.5,0.225,0.5,0.5c0,0.276-0.224,0.5-0.5,0.5S27,18.776,27,18.5C27,18.225,27.224,18,27.5,18z M31,44
			c-0.553,0-1-0.447-1-1s0.447-1,1-1s1,0.447,1,1S31.553,44,31,44z M38,40H24V20h14V40z"/>
	</g>
</g>
<g>
	<g>
		<path fill-rule="evenodd" clip-rule="evenodd" fill="#FFFFFF" d="M119.969,17H106c0,0-2-0.031-2,2.062l0.031,24.886
			c0,0-0.188,2.052,1.906,2.052h14.125c0,0,1.938,0.031,1.938-1.969V19.062C122,19.062,122.062,17,119.969,17z M111,18h4v1h-4V18z
			 M109.5,18c0.276,0,0.5,0.225,0.5,0.5c0,0.276-0.224,0.5-0.5,0.5s-0.5-0.224-0.5-0.5C109,18.225,109.224,18,109.5,18z M113,44
			c-0.553,0-1-0.447-1-1s0.447-1,1-1s1,0.447,1,1S113.553,44,113,44z M120,40h-14V20h14V40z"/>
	</g>
</g>
</svg>
