<?xml version="1.0" encoding="utf-8"?>
<!-- Generator: Adobe Illustrator 15.0.0, SVG Export Plug-In . SVG Version: 6.00 Build 0)  -->
<!DOCTYPE svg PUBLIC "-//W3C//DTD SVG 1.1//EN" "../../../../www.w3.org/Graphics/SVG/1.1/DTD/svg11.dtd">
<svg version="1.1" id="Layer_1" xmlns="http://www.w3.org/2000/svg" xmlns:xlink="../../../../www.w3.org/1999/xlink" x="0px" y="0px"
	 width="144px" height="66px" viewBox="0 0 144 66" enable-background="new 0 0 144 66" xml:space="preserve">
<g>
	<g>
		<path fill-rule="evenodd" clip-rule="evenodd" fill="#282828" d="M40.897,28.973c0.63-0.633,2.257-2.424,1.646-3.482l-0.306-0.53
			c-0.812-1.407-3.451-0.474-3.92-0.294c0.297-0.839,0.964-3.123-0.289-3.846l-0.531-0.307c-1.072-0.619-2.894,1.058-3.504,1.669
			c-0.156-0.856-0.716-3.202-2.177-3.202h-0.612c-1.236,0-1.977,2.362-2.2,3.197c-0.568-0.668-2.225-2.414-3.486-1.686l-0.53,0.307
			c-1.083,0.625-0.525,3.062-0.306,3.869c-0.825-0.294-3.134-0.978-3.862,0.283l-0.307,0.531c-0.619,1.073,1.061,2.896,1.67,3.504
			c-0.858,0.156-3.204,0.716-3.204,2.175v0.613c0,1.275,2.507,2.021,3.265,2.217c-0.676,0.577-2.399,2.224-1.675,3.478l0.306,0.531
			c0.607,1.052,2.929,0.554,3.802,0.323c-0.226,0.846-0.756,3.241,0.31,3.856l0.53,0.307c1.346,0.777,3.072-1.141,3.496-1.65
			C29.245,41.692,29.98,44,31.205,44h0.612c1.554,0,2.091-2.521,2.204-3.175c0.637,0.633,2.422,2.251,3.477,1.642l0.531-0.307
			c1.346-0.777,0.549-3.229,0.32-3.852c0.868,0.229,3.223,0.739,3.833-0.316l0.307-0.531c0.777-1.346-1.142-3.072-1.65-3.496
			c0.864-0.233,3.162-0.97,3.162-2.19v-0.613C44,29.656,41.637,29.107,40.897,28.973z M28.916,40.595
			c0.013,0.004,0.025,0.01,0.039,0.014c0.001,0.003,0.002,0.009,0.003,0.013L28.916,40.595z M31.49,36.99
			c-3.037,0-5.5-2.463-5.5-5.5s2.463-5.5,5.5-5.5s5.5,2.463,5.5,5.5S34.527,36.99,31.49,36.99z M38.272,24.793
			c0.002-0.006,0.005-0.014,0.008-0.021l0.028,0.053C38.297,24.813,38.283,24.804,38.272,24.793z M31.584,29.053
			c-1.381,0-2.5,1.119-2.5,2.5s1.119,2.5,2.5,2.5s2.5-1.119,2.5-2.5S32.965,29.053,31.584,29.053z"/>
	</g>
</g>
<g>
	<g>
		<path fill-rule="evenodd" clip-rule="evenodd" fill="#FFFFFF" d="M122.897,28.973c0.63-0.633,2.257-2.424,1.646-3.482l-0.306-0.53
			c-0.812-1.407-3.451-0.474-3.92-0.294c0.297-0.839,0.964-3.123-0.289-3.846l-0.531-0.307c-1.072-0.619-2.895,1.059-3.504,1.669
			c-0.155-0.855-0.716-3.202-2.177-3.202h-0.612c-1.236,0-1.977,2.361-2.2,3.197c-0.568-0.668-2.226-2.414-3.486-1.686l-0.53,0.307
			c-1.083,0.625-0.524,3.062-0.306,3.869c-0.824-0.294-3.134-0.978-3.862,0.283l-0.307,0.531c-0.619,1.073,1.061,2.896,1.67,3.504
			c-0.856,0.156-3.203,0.715-3.203,2.175v0.613c0,1.275,2.507,2.021,3.265,2.217c-0.676,0.577-2.399,2.224-1.675,3.478l0.306,0.531
			c0.607,1.052,2.93,0.554,3.803,0.323c-0.227,0.846-0.757,3.241,0.31,3.856l0.53,0.307c1.346,0.777,3.072-1.141,3.496-1.65
			c0.23,0.854,0.966,3.162,2.19,3.162h0.612c1.554,0,2.091-2.521,2.204-3.175c0.637,0.633,2.422,2.251,3.477,1.642l0.531-0.307
			c1.346-0.777,0.549-3.229,0.32-3.852c0.867,0.229,3.223,0.739,3.832-0.316l0.307-0.531c0.777-1.346-1.142-3.072-1.65-3.496
			c0.863-0.233,3.162-0.97,3.162-2.19v-0.613C126,29.656,123.637,29.107,122.897,28.973z M110.916,40.595
			c0.014,0.004,0.025,0.01,0.039,0.014c0.001,0.003,0.002,0.009,0.003,0.013L110.916,40.595z M113.49,36.99
			c-3.037,0-5.5-2.463-5.5-5.5s2.463-5.5,5.5-5.5s5.5,2.463,5.5,5.5S116.527,36.99,113.49,36.99z M120.272,24.792
			c0.002-0.006,0.005-0.014,0.007-0.02l0.028,0.052C120.297,24.813,120.283,24.804,120.272,24.792z M113.584,29.053
			c-1.381,0-2.5,1.119-2.5,2.5s1.119,2.5,2.5,2.5s2.5-1.119,2.5-2.5S114.965,29.053,113.584,29.053z"/>
	</g>
</g>
</svg>
