<?xml version="1.0" encoding="utf-8"?>
<!-- Generator: Adobe Illustrator 15.0.0, SVG Export Plug-In . SVG Version: 6.00 Build 0)  -->
<!DOCTYPE svg PUBLIC "-//W3C//DTD SVG 1.1//EN" "../../../../www.w3.org/Graphics/SVG/1.1/DTD/svg11.dtd">
<svg version="1.1" id="Layer_1" xmlns="http://www.w3.org/2000/svg" xmlns:xlink="../../../../www.w3.org/1999/xlink" x="0px" y="0px"
	 width="144px" height="66px" viewBox="0 0 144 66" enable-background="new 0 0 144 66" xml:space="preserve">
<g>
	<g>
		<path fill-rule="evenodd" clip-rule="evenodd" fill="#282828" d="M33.031,35h-3.094c-1,0-1-1-1-1H19v7h25v-7h-9.969
			C34.031,34,34.031,35,33.031,35z M35,38c0,0.553-0.447,1-1,1h-5c-0.553,0-1-0.447-1-1s0.447-1,1-1h5C34.553,37,35,37.447,35,38z
			 M40,20c0,0-0.814-1-2.002-1H25.066c0,0-1.191,0.031-2.066,0.969c0,0-7,3.927-7,5.031v17c0,1.104,0.896,2,2,2h27
			c1.104,0,2-0.896,2-2V25C47,23.896,40,20,40,20z M45,41c0,0.553-0.447,1-1,1H19c-0.553,0-1-0.447-1-1V26c0-0.552,0.447-1,1-1h25
			c0.553,0,1,1,1,1V41z M33.031,27h-3.094c-1,0-1-1-1-1H19v7h25v-7h-9.969C34.031,26,34.031,27,33.031,27z M35,30
			c0,0.552-0.447,1-1,1h-5c-0.553,0-1-0.448-1-1c0-0.553,0.447-1,1-1h5C34.553,29,35,29.447,35,30z"/>
	</g>
</g>
<g>
	<g>
		<path fill-rule="evenodd" clip-rule="evenodd" fill="#FFFFFF" d="M115.031,35h-3.094c-1,0-1-1-1-1H101v7h25v-7h-9.969
			C116.031,34,116.031,35,115.031,35z M117,38c0,0.553-0.447,1-1,1h-5c-0.553,0-1-0.447-1-1s0.447-1,1-1h5
			C116.553,37,117,37.447,117,38z M122,20c0,0-0.814-1-2.002-1h-12.932c0,0-1.191,0.031-2.066,0.969c0,0-7,3.927-7,5.031v17
			c0,1.104,0.896,2,2,2h27c1.104,0,2-0.896,2-2V25C129,23.896,122,20,122,20z M127,41c0,0.553-0.447,1-1,1h-25c-0.553,0-1-0.447-1-1
			V26c0-0.552,0.447-1,1-1h25c0.553,0,1,1,1,1V41z M115.031,27h-3.094c-1,0-1-1-1-1H101v7h25v-7h-9.969
			C116.031,26,116.031,27,115.031,27z M117,30c0,0.552-0.447,1-1,1h-5c-0.553,0-1-0.448-1-1c0-0.553,0.447-1,1-1h5
			C116.553,29,117,29.447,117,30z"/>
	</g>
</g>
</svg>
