<?xml version="1.0" encoding="utf-8"?>
<!-- Generator: Adobe Illustrator 15.0.0, SVG Export Plug-In . SVG Version: 6.00 Build 0)  -->
<!DOCTYPE svg PUBLIC "-//W3C//DTD SVG 1.1//EN" "../../../../www.w3.org/Graphics/SVG/1.1/DTD/svg11.dtd">
<svg version="1.1" id="Layer_1" xmlns="http://www.w3.org/2000/svg" xmlns:xlink="../../../../www.w3.org/1999/xlink" x="0px" y="0px"
	 width="144px" height="66px" viewBox="0 0 144 66" enable-background="new 0 0 144 66" xml:space="preserve">
<path fill-rule="evenodd" clip-rule="evenodd" fill="#282828" d="M36.083,16.416c0,0-0.75,1.583-0.917,2.25
	c0,0-3.917,0.583-3.5,3.25c0,0,0.583,2.334-0.333,2.75c0,0-8.583,2.334-8.583,8.834c0,0-0.583,3.583,0.833,6.5c0,0-0.083,1-0.833,1
	c0,0-1.917,1.166-0.833,4.166c0,0,0.833,2.834,5.167,2.834c0,0,4-0.084,5-1c0,0,0.917-0.75,0.417-1.084
	c-0.5-0.333-0.75-0.833-1.167-0.5c0,0-2.75,0.917-3.917,0.917c0,0-4.333,0-3.667-3.333c0,0,0.583-1.084,1.083-0.584
	c0,0,0.333,0.5,1.083,0.5h7.75c0,0,1-0.167,0.833-0.916c0,0,0.083-0.584-0.833-0.834c0,0-1.167,0.167-1.083-0.916
	c0.083-1.084,0.667-2.25,1.167-1.917s0.917,0.666,0.917,1c0,0.333,0.083,2.75,1.75,2.75c0,0,2.25,0.333,2.25-1.167
	S37.417,40,37.417,40s-0.833-0.167-0.833-3.084c0,0-0.833-1.416,0.5-3.75c1-1.666,1.583-3.5,1.667-6.333
	c-0.833-3.417,0.5-3.917,0.5-3.917s2.667-0.416,1.417-1.666s-2.833-1.917-2.917-2.417C37.667,18.333,37.833,14.833,36.083,16.416z"
	/>
<path fill-rule="evenodd" clip-rule="evenodd" fill="#FFFFFF" d="M118.083,16.416c0,0-0.75,1.583-0.917,2.25
	c0,0-3.916,0.583-3.5,3.25c0,0,0.584,2.334-0.333,2.75c0,0-8.583,2.334-8.583,8.834c0,0-0.584,3.583,0.833,6.5c0,0-0.083,1-0.833,1
	c0,0-1.917,1.166-0.834,4.166c0,0,0.834,2.834,5.167,2.834c0,0,4-0.084,5-1c0,0,0.917-0.75,0.417-1.084
	c-0.5-0.333-0.75-0.833-1.167-0.5c0,0-2.75,0.917-3.917,0.917c0,0-4.333,0-3.666-3.333c0,0,0.583-1.084,1.083-0.584
	c0,0,0.333,0.5,1.083,0.5h7.75c0,0,1-0.167,0.834-0.916c0,0,0.083-0.584-0.834-0.834c0,0-1.166,0.167-1.083-0.916
	c0.083-1.084,0.667-2.25,1.167-1.917s0.916,0.666,0.916,1c0,0.333,0.084,2.75,1.75,2.75c0,0,2.25,0.333,2.25-1.167
	S119.416,40,119.416,40s-0.833-0.167-0.833-3.084c0,0-0.833-1.416,0.5-3.75c1-1.666,1.583-3.5,1.667-6.333
	c-0.834-3.417,0.5-3.917,0.5-3.917s2.666-0.416,1.416-1.666s-2.833-1.917-2.916-2.417C119.666,18.333,119.833,14.833,118.083,16.416
	z"/>
</svg>
