<?xml version="1.0" encoding="utf-8"?>
<!-- Generator: Adobe Illustrator 15.0.0, SVG Export Plug-In . SVG Version: 6.00 Build 0)  -->
<!DOCTYPE svg PUBLIC "-//W3C//DTD SVG 1.1//EN" "../../../../www.w3.org/Graphics/SVG/1.1/DTD/svg11.dtd">
<svg version="1.1" id="Layer_1" xmlns="http://www.w3.org/2000/svg" xmlns:xlink="../../../../www.w3.org/1999/xlink" x="0px" y="0px"
	 width="144px" height="66px" viewBox="0 0 144 66" enable-background="new 0 0 144 66" xml:space="preserve">
<g>
	<g>
		<path fill-rule="evenodd" clip-rule="evenodd" fill="#282828" d="M44,34.084l-3.167-4c0,0-0.583-1.084-1.833-1.084H24
			c0,0-1.5-0.021-2,1.062l-3.083,4.021c0,0-0.834,0.333-0.917,1.749v3.188c0,0-0.31,1.979,1.857,1.979h5.124l0.008-2.011
			c0-1,1.077-0.989,1.077-0.989h11.902c1,0,1.012,1.041,1.012,1.041L39,40.99h3.917c0,0,2.083-0.053,2.083-1.97V36
			C45,36,44.917,35.083,44,34.084z M27,28h10v-5.062L32.969,19H28c-1.104,0-1,1-1,1V28z M32.688,20.344l2.844,2.844
			c0,0,1.094,0.812-0.375,0.781h-2.219c0,0-0.938,0-0.938-0.969v-2C32,21,31.812,19.469,32.688,20.344z M26.969,39l-2,4h14.094
			L37,39H26.969z M39.5,44h-15c-0.276,0-0.5,0.224-0.5,0.5s0.224,0.5,0.5,0.5h15c0.276,0,0.5-0.224,0.5-0.5S39.776,44,39.5,44z"/>
	</g>
</g>
<g>
	<g>
		<path fill-rule="evenodd" clip-rule="evenodd" fill="#FFFFFF" d="M109,28h10v-5.062L114.969,19H110c-1.104,0-1,1-1,1V28z
			 M114.688,20.344l2.844,2.844c0,0,1.094,0.812-0.375,0.781h-2.219c0,0-0.938,0-0.938-0.969v-2
			C114,21,113.812,19.469,114.688,20.344z M126,34.084l-3.167-4c0,0-0.583-1.084-1.833-1.084h-15c0,0-1.5-0.021-2,1.062
			l-3.083,4.021c0,0-0.834,0.333-0.917,1.749v3.188c0,0-0.31,1.979,1.857,1.979h5.124l0.008-2.011c0-1,1.077-0.989,1.077-0.989
			h11.902c1,0,1.012,1.041,1.012,1.041L121,40.99h3.917c0,0,2.083-0.053,2.083-1.97V36C127,36,126.917,35.083,126,34.084z
			 M108.969,39l-2,4h14.094L119,39H108.969z M121.5,44h-15c-0.276,0-0.5,0.224-0.5,0.5s0.224,0.5,0.5,0.5h15
			c0.276,0,0.5-0.224,0.5-0.5S121.776,44,121.5,44z"/>
	</g>
</g>
</svg>
