<?xml version="1.0" encoding="utf-8"?>
<!-- Generator: Adobe Illustrator 15.0.0, SVG Export Plug-In . SVG Version: 6.00 Build 0)  -->
<!DOCTYPE svg PUBLIC "-//W3C//DTD SVG 1.1//EN" "../../../../www.w3.org/Graphics/SVG/1.1/DTD/svg11.dtd">
<svg version="1.1" id="Layer_1" xmlns="http://www.w3.org/2000/svg" xmlns:xlink="../../../../www.w3.org/1999/xlink" x="0px" y="0px"
	 width="144px" height="66px" viewBox="0 0 144 66" enable-background="new 0 0 144 66" xml:space="preserve">
<g>
	<g>
		<path fill-rule="evenodd" clip-rule="evenodd" fill="#282828" d="M43,25H20c-0.552,0-1,0.448-1,1v14c0,0.553,0.448,1,1,1h10v2
			l-1.917,2.917h6.833L33,43.083V41h10c0.552,0,1-0.447,1-1V26C44,25.448,43.552,25,43,25z M41,38H22V28h19V38z M36,20.083l-3,0.75
			V16h-4v4.75L26,20l4.917,4.167L36,20.083z"/>
	</g>
</g>
<g>
	<g>
		<path fill-rule="evenodd" clip-rule="evenodd" fill="#FFFFFF" d="M125,25h-23c-0.553,0-1,0.448-1,1v14c0,0.553,0.447,1,1,1h10v2
			l-1.916,2.917h6.832L115,43.083V41h10c0.553,0,1-0.447,1-1V26C126,25.448,125.553,25,125,25z M123,38h-19V28h19V38z M118,20.083
			l-3,0.75V16h-4v4.75L108,20l4.916,4.167L118,20.083z"/>
	</g>
</g>
</svg>
