<?xml version="1.0" encoding="utf-8"?>
<!-- Generator: Adobe Illustrator 15.0.0, SVG Export Plug-In . SVG Version: 6.00 Build 0)  -->
<!DOCTYPE svg PUBLIC "-//W3C//DTD SVG 1.1//EN" "../../../../www.w3.org/Graphics/SVG/1.1/DTD/svg11.dtd">
<svg version="1.1" id="Layer_1" xmlns="http://www.w3.org/2000/svg" xmlns:xlink="../../../../www.w3.org/1999/xlink" x="0px" y="0px"
	 width="144px" height="66px" viewBox="0 0 144 66" enable-background="new 0 0 144 66" xml:space="preserve">
<g>
	<g>
		<path fill-rule="evenodd" clip-rule="evenodd" fill="#282828" d="M16.084,38.083L25,40.917V24.083l-8.916-3V38.083z
			 M22.552,35.067h1.124c0.276,0,0.5,0.224,0.5,0.5s-0.224,0.5-0.5,0.5h-1.124c-0.276,0-0.5-0.224-0.5-0.5
			S22.275,35.067,22.552,35.067z M20.116,32.22c0.195-0.195,0.512-0.195,0.707,0l1.082,1.082c0.195,0.195,0.195,0.512,0,0.707
			s-0.512,0.195-0.707,0l-1.082-1.082C19.921,32.731,19.921,32.415,20.116,32.22z M17.116,29.22c0.195-0.195,0.512-0.195,0.707,0
			l1.082,1.082c0.195,0.195,0.195,0.512,0,0.707s-0.512,0.195-0.707,0l-1.082-1.082C16.921,29.731,16.921,29.415,17.116,29.22z
			 M36.198,34.009l-1.082-1.082c-0.195-0.195-0.195-0.512,0-0.707s0.512-0.195,0.707,0l1.082,1.082
			c0.042,0.042,0.071,0.092,0.095,0.143v-9.424l-2.896-3l-0.062,17.062L37,41.146v-7.279c-0.024,0.051-0.053,0.101-0.095,0.143
			C36.71,34.204,36.394,34.204,36.198,34.009z M38.084,24.104v16.917l7.896-2.229L46,22.021L38.084,24.104z M40.905,31.958
			l-1.082,1.082c-0.195,0.195-0.512,0.195-0.707,0s-0.195-0.512,0-0.707l1.082-1.082c0.195-0.195,0.512-0.195,0.707,0
			S40.905,31.958,40.905,31.958z M43.905,28.958l-1.082,1.082c-0.195,0.195-0.512,0.195-0.707,0s-0.195-0.512,0-0.707l1.082-1.082
			c0.195-0.195,0.512-0.195,0.707,0S43.905,28.958,43.905,28.958z M26,41.083l6.959-3.166L33,21l-7,3.125V41.083z M30.116,32.333
			l1.082-1.082c0.195-0.195,0.512-0.195,0.707,0s0,0.707,0,0.707l-1.082,1.082c-0.195,0.195-0.512,0.195-0.707,0
			S29.921,32.528,30.116,32.333z M27.116,35.333l1.082-1.082c0.195-0.195,0.512-0.195,0.707,0s0,0.707,0,0.707l-1.082,1.082
			c-0.195,0.195-0.512,0.195-0.707,0S26.921,35.528,27.116,35.333z M37,33.866c0.063-0.134,0.063-0.288,0-0.422V33.866z"/>
	</g>
</g>
<g>
	<g>
		<path fill-rule="evenodd" clip-rule="evenodd" fill="#FFFFFF" d="M98.084,38.083L107,40.917V24.083l-8.916-3V38.083z
			 M104.552,35.067h1.124c0.276,0,0.5,0.224,0.5,0.5s-0.224,0.5-0.5,0.5h-1.124c-0.276,0-0.5-0.224-0.5-0.5
			S104.275,35.067,104.552,35.067z M102.116,32.22c0.195-0.195,0.512-0.195,0.707,0l1.082,1.082c0.195,0.195,0.195,0.512,0,0.707
			s-0.512,0.195-0.707,0l-1.082-1.082C101.921,32.731,101.921,32.415,102.116,32.22z M99.116,29.22c0.195-0.195,0.512-0.195,0.707,0
			l1.082,1.082c0.195,0.195,0.195,0.512,0,0.707s-0.512,0.195-0.707,0l-1.082-1.082C98.921,29.731,98.921,29.415,99.116,29.22z
			 M118.198,34.009l-1.082-1.082c-0.195-0.195-0.195-0.512,0-0.707s0.512-0.195,0.707,0l1.082,1.082
			c0.042,0.042,0.071,0.092,0.095,0.143v-9.424l-2.896-3l-0.062,17.062L119,41.146v-7.279c-0.023,0.051-0.053,0.101-0.095,0.143
			C118.71,34.204,118.394,34.204,118.198,34.009z M120.084,24.104v16.917l7.896-2.229L128,22.021L120.084,24.104z M122.905,31.958
			l-1.082,1.082c-0.195,0.195-0.512,0.195-0.707,0s-0.195-0.512,0-0.707l1.082-1.082c0.195-0.195,0.512-0.195,0.707,0
			S122.905,31.958,122.905,31.958z M125.905,28.958l-1.082,1.082c-0.195,0.195-0.512,0.195-0.707,0s-0.195-0.512,0-0.707
			l1.082-1.082c0.195-0.195,0.512-0.195,0.707,0S125.905,28.958,125.905,28.958z M108,41.083l6.959-3.166L115,21l-7,3.125V41.083z
			 M112.116,32.333l1.082-1.082c0.195-0.195,0.512-0.195,0.707,0s0,0.707,0,0.707l-1.082,1.082c-0.195,0.195-0.512,0.195-0.707,0
			S111.921,32.528,112.116,32.333z M109.116,35.333l1.082-1.082c0.195-0.195,0.512-0.195,0.707,0s0,0.707,0,0.707l-1.082,1.082
			c-0.195,0.195-0.512,0.195-0.707,0S108.921,35.528,109.116,35.333z M119,33.866c0.063-0.134,0.063-0.288,0-0.422V33.866z"/>
	</g>
</g>
</svg>
