<?xml version="1.0" encoding="utf-8"?>
<!-- Generator: Adobe Illustrator 15.0.0, SVG Export Plug-In . SVG Version: 6.00 Build 0)  -->
<!DOCTYPE svg PUBLIC "-//W3C//DTD SVG 1.1//EN" "../../../../www.w3.org/Graphics/SVG/1.1/DTD/svg11.dtd">
<svg version="1.1" id="Layer_1" xmlns="http://www.w3.org/2000/svg" xmlns:xlink="../../../../www.w3.org/1999/xlink" x="0px" y="0px"
	 width="144px" height="66px" viewBox="0 0 144 66" enable-background="new 0 0 144 66" xml:space="preserve">
<g>
	<g>
		<path fill-rule="evenodd" clip-rule="evenodd" fill="#282828" d="M45,26.043h-2l3.951-8.031c0,0-0.148-2.312-1.773,0.062
			l-3.8,6.092l-4.354-6.08c0,0-1.774-2.293-2.087-0.043l4.875,8H18c-1.104,0-2,0.896-2,2v16c0,1.104,0.896,2,2,2
			c0,0-0.125,0.938,1,0.938L43.998,47c0,0,1.002-0.02,1.002-0.957c1.104,0,2-1.896,2-3v-15C47,26.938,46.104,26.043,45,26.043z
			 M38,40.043c0,1.657-1.344,3-3,3H22c-1.657,0-3-1.343-3-3v-8C19,30.387,20.343,29,22,29h13c1.656,0,3,1.387,3,3.043V40.043z
			 M42.375,29.043c0.828,0,1.5,0.672,1.5,1.5s-0.672,1.5-1.5,1.5s-1.5-0.672-1.5-1.5S41.547,29.043,42.375,29.043z M44,34.543
			c0,0.828-0.672,1.5-1.5,1.5s-1.5-0.672-1.5-1.5s0.672-1.5,1.5-1.5S44,33.715,44,34.543z M44.5,43.043h-4
			c-0.276,0-0.5-0.224-0.5-0.5s0.224-0.5,0.5-0.5h4c0.276,0,0.5,0.224,0.5,0.5S44.776,43.043,44.5,43.043z M44.5,41.043h-4
			c-0.276,0-0.5-0.224-0.5-0.5c0-0.275,0.224-0.5,0.5-0.5h4c0.276,0,0.5,0.225,0.5,0.5C45,40.819,44.776,41.043,44.5,41.043z
			 M44.5,39.043h-4c-0.276,0-0.5-0.224-0.5-0.5s0.224-0.5,0.5-0.5h4c0.276,0,0.5,0.224,0.5,0.5S44.776,39.043,44.5,39.043z"/>
	</g>
</g>
<g>
	<g>
		<path fill-rule="evenodd" clip-rule="evenodd" fill="#FFFFFF" d="M127,26.043h-2l3.951-8.031c0,0-0.148-2.312-1.773,0.062
			l-3.8,6.092l-4.354-6.08c0,0-1.774-2.293-2.087-0.043l4.875,8H100c-1.104,0-2,0.896-2,2v16c0,1.104,0.896,2,2,2
			c0,0-0.125,0.938,1,0.938L125.998,47c0,0,1.002-0.02,1.002-0.957c1.104,0,2-1.896,2-3v-15C129,26.938,128.104,26.043,127,26.043z
			 M120,40.043c0,1.657-1.344,3-3,3h-13c-1.657,0-3-1.343-3-3v-8c0-1.656,1.343-3.043,3-3.043h13c1.656,0,3,1.387,3,3.043V40.043z
			 M124.375,29.043c0.828,0,1.5,0.672,1.5,1.5s-0.672,1.5-1.5,1.5s-1.5-0.672-1.5-1.5S123.547,29.043,124.375,29.043z M126,34.543
			c0,0.828-0.672,1.5-1.5,1.5s-1.5-0.672-1.5-1.5s0.672-1.5,1.5-1.5S126,33.715,126,34.543z M126.5,43.043h-4
			c-0.276,0-0.5-0.224-0.5-0.5s0.224-0.5,0.5-0.5h4c0.276,0,0.5,0.224,0.5,0.5S126.776,43.043,126.5,43.043z M126.5,41.043h-4
			c-0.276,0-0.5-0.224-0.5-0.5c0-0.275,0.224-0.5,0.5-0.5h4c0.276,0,0.5,0.225,0.5,0.5C127,40.819,126.776,41.043,126.5,41.043z
			 M126.5,39.043h-4c-0.276,0-0.5-0.224-0.5-0.5s0.224-0.5,0.5-0.5h4c0.276,0,0.5,0.224,0.5,0.5S126.776,39.043,126.5,39.043z"/>
	</g>
</g>
</svg>
