<?xml version="1.0" encoding="utf-8"?>
<!-- Generator: Adobe Illustrator 15.0.0, SVG Export Plug-In . SVG Version: 6.00 Build 0)  -->
<!DOCTYPE svg PUBLIC "-//W3C//DTD SVG 1.1//EN" "../../../../www.w3.org/Graphics/SVG/1.1/DTD/svg11.dtd">
<svg version="1.1" id="Layer_1" xmlns="http://www.w3.org/2000/svg" xmlns:xlink="../../../../www.w3.org/1999/xlink" x="0px" y="0px"
	 width="144px" height="66px" viewBox="0 0 144 66" enable-background="new 0 0 144 66" xml:space="preserve">
<g>
	<g>
		<path fill-rule="evenodd" clip-rule="evenodd" fill="#282828" d="M40.277,22.153l1.345-1.59l0.594,0.469l0.969-0.969l-2.531-2.094
			l-0.945,1.031l0.727,0.664l-1.484,1.484c-1.901-1.072-3.271-1.969-5.985-2.217l0.001-2.963h1c1,0,1.062-0.969,1.062-0.969
			c0-0.969-1.062-1.001-1.062-1.001h-4.844c-1.125,0-1,1.126-1,1.126c0,0.844,0.938,0.812,0.938,0.812h0.998v2.998
			c-5.793,0-12.065,6.249-12.065,13.525C17.992,39.938,24.054,46,31.53,46C39.008,46,45,39.938,45,32.462
			C45,28.333,43.173,24.636,40.277,22.153z M39.931,38.88c-0.086,0.113-1.536-0.961-1.536-0.961L37.8,38.766
			c0,0,1.368,1.008,1.199,1.176c-1.805,1.798-4.267,2.941-7.005,3.058c-0.073,0.003-0.019-2.047-0.019-2.047l-0.938-0.006
			c0,0-0.051,1.308-0.043,2.049c-2.248-0.113-4.312-0.919-5.976-2.211c-0.343-0.267-0.67-0.554-0.978-0.859
			c-0.115-0.115,1.11-1.205,1.11-1.205l-0.751-0.812c0,0-0.852,0.621-1.314,0.923c-1.25-1.646-2.023-3.676-2.113-5.892
			c-0.003-0.056,2.003,0.023,2.003,0.023l0.019-0.997c0,0-1.152,0.013-2.02,0.035c0.098-2.128,0.982-4.401,2.158-6.015
			c0.061-0.084,1.178,1.091,1.178,1.091l0.787-1.064c0,0-0.928-0.742-1.084-0.932c1.917-1.934,4.58-3.16,7.523-3.16
			c2.902,0,5.586,1.226,7.489,3.112c-0.338,0.224-1.279,1.092-1.279,1.092l0.718,0.871c0,0,1.332-1.064,1.408-0.966
			c1.277,1.647,2.075,3.686,2.189,5.91c-0.428,0.028-2.109,0.025-2.109,0.025l0.036,1.011c0,0,2.082-0.102,2.078-0.008
			C41.972,35.194,41.19,37.231,39.931,38.88z M31.997,31.907c0-1.97,0-8.438,0-8.438c0-0.276-0.225-0.5-0.5-0.5S31,23.193,31,23.47
			c0,0,0,6.537,0,8.469c0,0-1.034,0.078-1.034,1.547c0,0.854,0.63,1.484,1.484,1.484s1.547-0.63,1.547-1.484
			C32.997,32.048,31.997,31.907,31.997,31.907z"/>
	</g>
</g>
<g>
	<g>
		<path fill-rule="evenodd" clip-rule="evenodd" fill="#FFFFFF" d="M122.277,22.153l1.345-1.59l0.594,0.469l0.969-0.969
			l-2.531-2.094l-0.945,1.031l0.727,0.664l-1.484,1.484c-1.901-1.072-3.271-1.969-5.985-2.217l0.001-2.963h1
			c1,0,1.062-0.969,1.062-0.969c0-0.969-1.062-1.001-1.062-1.001h-4.844c-1.125,0-1,1.126-1,1.126c0,0.844,0.938,0.812,0.938,0.812
			h0.998v2.998c-5.793,0-12.065,6.249-12.065,13.525c0,7.477,6.062,13.538,13.538,13.538c7.478,0,13.47-6.062,13.47-13.538
			C127,28.333,125.173,24.636,122.277,22.153z M121.931,38.88c-0.086,0.113-1.536-0.961-1.536-0.961l-0.595,0.847
			c0,0,1.368,1.008,1.199,1.176c-1.805,1.798-4.267,2.941-7.005,3.058c-0.073,0.003-0.019-2.047-0.019-2.047l-0.938-0.006
			c0,0-0.051,1.308-0.043,2.049c-2.248-0.113-4.312-0.919-5.976-2.211c-0.343-0.267-0.67-0.554-0.978-0.859
			c-0.115-0.115,1.11-1.205,1.11-1.205l-0.751-0.812c0,0-0.852,0.621-1.314,0.923c-1.25-1.646-2.023-3.676-2.113-5.892
			c-0.003-0.056,2.003,0.023,2.003,0.023l0.019-0.997c0,0-1.152,0.013-2.02,0.035c0.098-2.128,0.982-4.401,2.158-6.015
			c0.061-0.084,1.178,1.091,1.178,1.091l0.787-1.064c0,0-0.928-0.742-1.084-0.932c1.917-1.934,4.58-3.16,7.523-3.16
			c2.902,0,5.586,1.226,7.489,3.112c-0.338,0.224-1.279,1.092-1.279,1.092l0.718,0.871c0,0,1.332-1.064,1.408-0.966
			c1.277,1.647,2.075,3.686,2.189,5.91c-0.428,0.028-2.109,0.025-2.109,0.025l0.036,1.011c0,0,2.082-0.102,2.078-0.008
			C123.972,35.194,123.19,37.231,121.931,38.88z M113.997,31.907c0-1.97,0-8.438,0-8.438c0-0.276-0.225-0.5-0.5-0.5
			S113,23.193,113,23.47c0,0,0,6.537,0,8.469c0,0-1.034,0.078-1.034,1.547c0,0.854,0.63,1.484,1.484,1.484s1.547-0.63,1.547-1.484
			C114.997,32.048,113.997,31.907,113.997,31.907z"/>
	</g>
</g>
</svg>
