<?xml version="1.0" encoding="utf-8"?>
<!-- Generator: Adobe Illustrator 15.0.0, SVG Export Plug-In . SVG Version: 6.00 Build 0)  -->
<!DOCTYPE svg PUBLIC "-//W3C//DTD SVG 1.1//EN" "../../../../www.w3.org/Graphics/SVG/1.1/DTD/svg11.dtd">
<svg version="1.1" id="Layer_1" xmlns="http://www.w3.org/2000/svg" xmlns:xlink="../../../../www.w3.org/1999/xlink" x="0px" y="0px"
	 width="144px" height="66px" viewBox="0 0 144 66" enable-background="new 0 0 144 66" xml:space="preserve">
<g>
	<g>
		<path fill-rule="evenodd" clip-rule="evenodd" fill="#282828" d="M43.461,40.515l-7.407-6.953c1.15-1.498,1.833-3.882,1.833-6.068
			c0-5.273-4.275-9.409-9.548-9.409S19,22.221,19,27.494s4.065,9.548,9.339,9.548c1.468,0,3.324-0.31,4.48-0.86l7.484,7.491
			c0.436,0.437,1.143,0.437,1.579,0l1.579-1.579C43.897,41.658,43.897,40.951,43.461,40.515z M28.461,33.256
			c-3.123,0-5.653-2.531-5.653-5.653s2.531-5.653,5.653-5.653s5.654,2.531,5.654,5.653S31.583,33.256,28.461,33.256z"/>
	</g>
</g>
<g>
	<g>
		<path fill-rule="evenodd" clip-rule="evenodd" fill="#FFFFFF" d="M125.461,40.515l-7.406-6.953
			c1.149-1.498,1.832-3.882,1.832-6.068c0-5.273-4.274-9.409-9.548-9.409S101,22.221,101,27.494s4.065,9.548,9.339,9.548
			c1.468,0,3.323-0.31,4.479-0.86l7.484,7.491c0.437,0.437,1.144,0.437,1.58,0l1.578-1.579
			C125.897,41.658,125.897,40.951,125.461,40.515z M110.461,33.256c-3.123,0-5.653-2.531-5.653-5.653s2.53-5.653,5.653-5.653
			s5.654,2.531,5.654,5.653S113.584,33.256,110.461,33.256z"/>
	</g>
</g>
</svg>
