<?xml version="1.0" encoding="utf-8"?>
<!-- Generator: Adobe Illustrator 15.0.0, SVG Export Plug-In . SVG Version: 6.00 Build 0)  -->
<!DOCTYPE svg PUBLIC "-//W3C//DTD SVG 1.1//EN" "../../../../www.w3.org/Graphics/SVG/1.1/DTD/svg11.dtd">
<svg version="1.1" id="Layer_1" xmlns="http://www.w3.org/2000/svg" xmlns:xlink="../../../../www.w3.org/1999/xlink" x="0px" y="0px"
	 width="144px" height="66px" viewBox="0 0 144 66" enable-background="new 0 0 144 66" xml:space="preserve">
<g>
	<g>
		<path fill-rule="evenodd" clip-rule="evenodd" fill="#282828" d="M23.812,26h18.107c0,0,0.938-0.052,0.938-0.927
			c0,0,0.125-1.062-0.875-1.062l-13.919,0.062c0,0-1.125-0.125-1.125-1c0,0,0.19-1.062-1-1.062h-8c0,0-0.938-0.188-0.938,1
			s0.062,0.312,0.062,0.312l1.812,17.625c0,0.938,0.877,1.052,0.877,1.052l2.06-13.989C21.812,28.011,21.5,26,23.812,26z M44.375,27
			c0,0-15.688,0-20.062,0c-0.598,0-1.188,0.886-1.188,0.886l-2.062,13.062c0,0-0.125,1.052,0.562,1.052H41.25
			c0,0,1.215-0.365,1.562-1.302l3.125-11.688C45.938,29.011,46.5,27,44.375,27z M37.898,40h-9.922c0,0-0.176-2.254,0.166-2.581
			c0.152-0.146,0.614-0.364,1.078-0.563c0.578-0.247,1.162-0.464,1.162-0.464s1.519-0.964,1.578-0.934
			c0.06,0.029,0.048-1.649,0.048-1.649s-1.038-0.269-1.023-1.413c0.015-1.144,0-2.113,0-2.113s0.07-1.42,1.422-1.494l1.206,0.406
			c1.353,0.074,1.408,1.088,1.408,1.088v2.125c0,0,0.067,0.816-0.977,1.401c0,0-0.074,1.46-0.015,1.431
			c0.06-0.029-0.141,0.885,1.672,1.152c0.813,0.268,1.626,0.575,2.156,1.09C38.199,37.809,37.898,40,37.898,40z"/>
	</g>
</g>
<g>
	<g>
		<path fill-rule="evenodd" clip-rule="evenodd" fill="#FFFFFF" d="M105.812,26h18.107c0,0,0.938-0.052,0.938-0.927
			c0,0,0.125-1.062-0.875-1.062l-13.92,0.062c0,0-1.125-0.125-1.125-1c0,0,0.189-1.062-1-1.062h-8c0,0-0.938-0.188-0.938,1
			s0.062,0.312,0.062,0.312l1.812,17.625c0,0.938,0.877,1.052,0.877,1.052l2.061-13.989C103.812,28.011,103.5,26,105.812,26z
			 M126.375,27c0,0-15.688,0-20.062,0c-0.598,0-1.188,0.886-1.188,0.886l-2.062,13.062c0,0-0.125,1.052,0.562,1.052h19.625
			c0,0,1.215-0.365,1.562-1.302l3.125-11.688C127.938,29.011,128.5,27,126.375,27z M119.898,40h-9.922c0,0-0.176-2.254,0.166-2.581
			c0.152-0.146,0.613-0.364,1.078-0.563c0.578-0.247,1.162-0.464,1.162-0.464s1.519-0.964,1.578-0.934
			c0.059,0.029,0.047-1.649,0.047-1.649s-1.037-0.269-1.022-1.413c0.015-1.144,0-2.113,0-2.113s0.069-1.42,1.423-1.494l1.205,0.406
			c1.353,0.074,1.408,1.088,1.408,1.088v2.125c0,0,0.066,0.816-0.978,1.401c0,0-0.074,1.46-0.015,1.431
			c0.059-0.029-0.142,0.885,1.672,1.152c0.812,0.268,1.627,0.575,2.156,1.09C120.199,37.809,119.898,40,119.898,40z"/>
	</g>
</g>
</svg>
