<?xml version="1.0" encoding="utf-8"?>
<!-- Generator: Adobe Illustrator 15.0.0, SVG Export Plug-In . SVG Version: 6.00 Build 0)  -->
<!DOCTYPE svg PUBLIC "-//W3C//DTD SVG 1.1//EN" "../../../../www.w3.org/Graphics/SVG/1.1/DTD/svg11.dtd">
<svg version="1.1" id="Layer_1" xmlns="http://www.w3.org/2000/svg" xmlns:xlink="../../../../www.w3.org/1999/xlink" x="0px" y="0px"
	 width="144px" height="66px" viewBox="0 0 144 66" enable-background="new 0 0 144 66" xml:space="preserve">
<g>
	<g>
		<path fill-rule="evenodd" clip-rule="evenodd" fill="#282828" d="M41,18H23c-1.104,0-2,0.896-2,2v24c0,1.104,0.896,2,2,2h13.969
			L43,40.062V20C43,18.896,42.104,18,41,18z M29.65,34.261c-0.44,0.88-2.708,3.698-2.708,3.698
			c-0.968,1.056-2.259,0.949-2.259,0.949c-1.121-0.436-0.686-1.319-0.51-1.76c0.176-0.439,3.235-2.198,3.235-2.198
			c-0.352,0.528-2.022,2.462-2.022,2.462c-0.703,0.968,0.352,0.528,0.352,0.528c0.439-0.176,1.407-1.583,1.407-1.583
			c2.286-3.254,4.032-8.609,4.032-8.609c-0.176-0.352-0.356-2.537-0.269-4.031c0.088-1.496,1.75-0.528,1.75-0.528
			c0.439,0.616-0.177,2.902-0.177,2.902l-0.176-1.056c0.176-0.615-0.176-1.407-0.176-1.407c-0.176-0.703-0.527,0.089-0.439,0.88
			s0.703,3.078,0.703,3.078c0.991,2.857,2.522,4,3.75,4.627c-0.286-0.294-0.496-0.582-0.496-0.582s3.342,0.416,4.046,0.681
			c0.704,0.264,1.583,0.703,1.144,1.055s-0.352,0.089-0.968-0.264c-0.519-0.296-1.658-0.28-2.374-0.268
			c0.062,0.031,0.123,0.061,0.176,0.092c1.055,0.615,2.708,0.875,3.147,1.139s-0.51,0.972-0.51,0.972s-0.352-0.615-1.143-0.791
			c-0.792-0.176-3.343-1.398-3.343-1.398C31.076,33.729,29.65,34.261,29.65,34.261z M41.531,39.812l-4.844,4.844
			C35.812,45.531,36,44,36,44v-4c0-0.969,0.938-1,0.938-1h4.219C42.625,38.969,41.531,39.812,41.531,39.812z M30.09,33.127
			c0,0,3.046-1.051,3.749-1.139c0,0-1.712-1.699-1.889-2.578L30.09,33.127z M37.496,32.835c-0.349-0.173-0.821-0.351-1.352-0.622
			c0.3,0.31,0.684,0.626,0.999,0.626C37.24,32.84,37.363,32.838,37.496,32.835z"/>
	</g>
</g>
<g>
	<g>
		<path fill-rule="evenodd" clip-rule="evenodd" fill="#FFFFFF" d="M123,18h-18c-1.104,0-2,0.896-2,2v24c0,1.104,0.896,2,2,2h13.969
			L125,40.062V20C125,18.896,124.104,18,123,18z M111.65,34.261c-0.44,0.88-2.708,3.698-2.708,3.698
			c-0.968,1.056-2.259,0.949-2.259,0.949c-1.121-0.436-0.686-1.319-0.51-1.76c0.176-0.439,3.235-2.198,3.235-2.198
			c-0.352,0.528-2.022,2.462-2.022,2.462c-0.703,0.968,0.352,0.528,0.352,0.528c0.439-0.176,1.407-1.583,1.407-1.583
			c2.286-3.254,4.032-8.609,4.032-8.609c-0.176-0.352-0.356-2.537-0.269-4.031c0.088-1.496,1.75-0.528,1.75-0.528
			c0.439,0.616-0.177,2.902-0.177,2.902l-0.176-1.056c0.176-0.615-0.176-1.407-0.176-1.407c-0.176-0.703-0.527,0.089-0.439,0.88
			s0.703,3.078,0.703,3.078c0.991,2.857,2.521,4,3.75,4.627c-0.285-0.294-0.496-0.582-0.496-0.582s3.342,0.416,4.046,0.681
			c0.704,0.264,1.583,0.703,1.144,1.055s-0.352,0.089-0.968-0.264c-0.519-0.296-1.658-0.28-2.374-0.268
			c0.062,0.031,0.122,0.061,0.176,0.092c1.055,0.615,2.708,0.875,3.147,1.139s-0.51,0.972-0.51,0.972s-0.352-0.615-1.143-0.791
			c-0.792-0.176-3.343-1.398-3.343-1.398C113.076,33.729,111.65,34.261,111.65,34.261z M123.531,39.812l-4.844,4.844
			C117.812,45.531,118,44,118,44v-4c0-0.969,0.938-1,0.938-1h4.219C124.625,38.969,123.531,39.812,123.531,39.812z M112.09,33.127
			c0,0,3.046-1.051,3.749-1.139c0,0-1.712-1.699-1.889-2.578L112.09,33.127z M119.496,32.835c-0.349-0.173-0.821-0.351-1.352-0.622
			c0.3,0.31,0.684,0.626,0.999,0.626C119.24,32.84,119.363,32.838,119.496,32.835z"/>
	</g>
</g>
</svg>
