<?xml version="1.0" encoding="utf-8"?>
<!-- Generator: Adobe Illustrator 15.0.0, SVG Export Plug-In . SVG Version: 6.00 Build 0)  -->
<!DOCTYPE svg PUBLIC "-//W3C//DTD SVG 1.1//EN" "../../../../www.w3.org/Graphics/SVG/1.1/DTD/svg11.dtd">
<svg version="1.1" id="Layer_1" xmlns="http://www.w3.org/2000/svg" xmlns:xlink="../../../../www.w3.org/1999/xlink" x="0px" y="0px"
	 width="144px" height="66px" viewBox="0 0 144 66" enable-background="new 0 0 144 66" xml:space="preserve">
<g>
	<g>
		<path fill-rule="evenodd" clip-rule="evenodd" fill="#282828" d="M23,23h-4c-1.104,0-2,0.896-2,2v4c0,1.104,0.896,2,2,2h4
			c1.104,0,2-0.896,2-2v-4C25,23.896,24.104,23,23,23z M23,33h-4c-1.104,0-2,0.896-2,2v4c0,1.104,0.896,2,2,2h4c1.104,0,2-0.896,2-2
			v-4C25,33.896,24.104,33,23,33z M28,25h15c0.553,0,1-0.447,1-1s-0.447-1-1-1H28c-0.553,0-1,0.447-1,1S27.447,25,28,25z M43,28H28
			c-0.553,0-1,0.447-1,1s0.447,1,1,1h15c0.553,0,1-0.447,1-1S43.553,28,43,28z M43,33H28c-0.553,0-1,0.447-1,1s0.447,1,1,1h15
			c0.553,0,1-0.447,1-1S43.553,33,43,33z M43,38H28c-0.553,0-1,0.447-1,1s0.447,1,1,1h15c0.553,0,1-0.447,1-1S43.553,38,43,38z"/>
	</g>
</g>
<g>
	<g>
		<path fill-rule="evenodd" clip-rule="evenodd" fill="#FFFFFF" d="M105,23h-4c-1.104,0-2,0.896-2,2v4c0,1.104,0.896,2,2,2h4
			c1.104,0,2-0.896,2-2v-4C107,23.896,106.104,23,105,23z M105,33h-4c-1.104,0-2,0.896-2,2v4c0,1.104,0.896,2,2,2h4
			c1.104,0,2-0.896,2-2v-4C107,33.896,106.104,33,105,33z M110,25h15c0.553,0,1-0.447,1-1s-0.447-1-1-1h-15c-0.553,0-1,0.447-1,1
			S109.447,25,110,25z M125,28h-15c-0.553,0-1,0.447-1,1s0.447,1,1,1h15c0.553,0,1-0.447,1-1S125.553,28,125,28z M125,33h-15
			c-0.553,0-1,0.447-1,1s0.447,1,1,1h15c0.553,0,1-0.447,1-1S125.553,33,125,33z M125,38h-15c-0.553,0-1,0.447-1,1s0.447,1,1,1h15
			c0.553,0,1-0.447,1-1S125.553,38,125,38z"/>
	</g>
</g>
</svg>
