<?xml version="1.0" encoding="utf-8"?>
<!-- Generator: Adobe Illustrator 15.0.0, SVG Export Plug-In . SVG Version: 6.00 Build 0)  -->
<!DOCTYPE svg PUBLIC "-//W3C//DTD SVG 1.1//EN" "../../../../www.w3.org/Graphics/SVG/1.1/DTD/svg11.dtd">
<svg version="1.1" id="Layer_1" xmlns="http://www.w3.org/2000/svg" xmlns:xlink="../../../../www.w3.org/1999/xlink" x="0px" y="0px"
	 width="144px" height="66px" viewBox="0 0 144 66" enable-background="new 0 0 144 66" xml:space="preserve">
<g>
	<g>
		<path fill-rule="evenodd" clip-rule="evenodd" fill="#282828" d="M38,19H23c0,0-7,3.896-7,5v20c0,1.104,0.896,2,2,2h25
			c1.104,0,2-0.896,2-2V24C45,22.896,38,19,38,19z M43,43c0,0.553-0.447,1-1,1H19c-0.553,0-1-0.447-1-1V25c0-0.552,0.447-1,1-1h23
			c0.553,0,1,1,1,1V43z M19,43h23V25H19V43z M29.294,38.617l3.216-1.688l3.353,1.516C32.895,41.884,29.294,38.617,29.294,38.617z
			 M33.969,31C37.344,32.406,37,35.969,37,35.969l-3.031-2V31z M31.031,31v2.969l-3.031,2C28,35.969,27.656,32.406,31.031,31z
			 M25.786,38.066l5.928-3L32,34.5v-6c0-0.276,0.225-0.5,0.5-0.5c0.276,0,0.5,0.224,0.5,0.5v6l0.286,0.566l5.928,3
			c0.239,0.139,0.321,0.444,0.183,0.684c-0.137,0.239-0.443,0.321-0.683,0.184l-5.928-3h-0.572l-5.928,3
			c-0.239,0.138-0.545,0.056-0.683-0.184C25.465,38.511,25.547,38.205,25.786,38.066z M20,30c0-0.552,0.447-1,1-1s1,0.448,1,1v9
			c0,0.553-0.447,1-1,1s-1-0.447-1-1V30z"/>
	</g>
</g>
<g>
	<g>
		<path fill-rule="evenodd" clip-rule="evenodd" fill="#FFFFFF" d="M120,19h-15c0,0-7,3.896-7,5v20c0,1.104,0.896,2,2,2h25
			c1.104,0,2-0.896,2-2V24C127,22.896,120,19,120,19z M125,43c0,0.553-0.447,1-1,1h-23c-0.553,0-1-0.447-1-1V25c0-0.552,0.447-1,1-1
			h23c0.553,0,1,1,1,1V43z M101,43h23V25h-23V43z M111.294,38.617l3.216-1.688l3.353,1.516
			C114.895,41.884,111.294,38.617,111.294,38.617z M115.969,31c3.375,1.406,3.031,4.969,3.031,4.969l-3.031-2V31z M113.031,31v2.969
			l-3.031,2C110,35.969,109.656,32.406,113.031,31z M107.786,38.066l5.928-3L114,34.5v-6c0-0.276,0.225-0.5,0.5-0.5
			c0.276,0,0.5,0.224,0.5,0.5v6l0.286,0.566l5.928,3c0.239,0.139,0.321,0.444,0.183,0.684c-0.137,0.239-0.443,0.321-0.683,0.184
			l-5.928-3h-0.572l-5.928,3c-0.239,0.138-0.545,0.056-0.683-0.184C107.465,38.511,107.547,38.205,107.786,38.066z M102,30
			c0-0.552,0.447-1,1-1s1,0.448,1,1v9c0,0.553-0.447,1-1,1s-1-0.447-1-1V30z"/>
	</g>
</g>
</svg>
