<?xml version="1.0" encoding="utf-8"?>
<!-- Generator: Adobe Illustrator 15.0.0, SVG Export Plug-In . SVG Version: 6.00 Build 0)  -->
<!DOCTYPE svg PUBLIC "-//W3C//DTD SVG 1.1//EN" "../../../../www.w3.org/Graphics/SVG/1.1/DTD/svg11.dtd">
<svg version="1.1" id="Layer_1" xmlns="http://www.w3.org/2000/svg" xmlns:xlink="../../../../www.w3.org/1999/xlink" x="0px" y="0px"
	 width="144px" height="66px" viewBox="0 0 144 66" enable-background="new 0 0 144 66" xml:space="preserve">
<g>
	<g>
		<path fill-rule="evenodd" clip-rule="evenodd" fill="#282828" d="M36.453,23.864c-1.769-0.537-3.604,1.104-5.609,1.104
			c-2.036,0-4.062-1.633-5.818-1.08C19.697,25.564,16,29.517,16,34.125c0,6.127,6.535,11.094,14.75,11.094
			s15.125-4.967,15.125-11.094C45.875,29.494,41.928,25.526,36.453,23.864z M38.875,27.062l3.312,5H36L38.875,27.062z
			 M33.938,32.031l-2.969,4l-3.094-4H33.938z M22.875,27.25l3.25,4.781H20L22.875,27.25z M32.875,43.094v-2.031H29v1.969
			c0,0-9.375-2.625-9.938-8c0,0,0.562-0.25,0.875,0c0,0,1.938,2.188,5,2.188V39H29v-1.062c0,0,1.125,0.5,2,0.5
			c0,0,0.812,0,2.062-0.562V39h3.875v-1.844c0,0,2.812,0.125,5-2.062c0.938-0.438,0.938,0.625,0.938,0.625
			S38.688,43.094,32.875,43.094z M31,24.031c0,0,1-0.094,1-0.969v-1.969c0,0,0.125-1.344,1-2.062S33.562,18,33,18s-3,0.344-3,5.031
			C30,23.031,30,24.031,31,24.031z"/>
	</g>
</g>
<g>
	<g>
		<path fill-rule="evenodd" clip-rule="evenodd" fill="#FFFFFF" d="M118.453,23.864c-1.77-0.537-3.604,1.104-5.609,1.104
			c-2.036,0-4.062-1.633-5.818-1.08C101.697,25.564,98,29.517,98,34.125c0,6.127,6.535,11.094,14.75,11.094
			s15.125-4.967,15.125-11.094C127.875,29.494,123.928,25.526,118.453,23.864z M120.875,27.062l3.312,5H118L120.875,27.062z
			 M115.938,32.031l-2.969,4l-3.094-4H115.938z M104.875,27.25l3.25,4.781H102L104.875,27.25z M114.875,43.094v-2.031H111v1.969
			c0,0-9.375-2.625-9.938-8c0,0,0.562-0.25,0.875,0c0,0,1.938,2.188,5,2.188V39H111v-1.062c0,0,1.125,0.5,2,0.5
			c0,0,0.812,0,2.062-0.562V39h3.875v-1.844c0,0,2.812,0.125,5-2.062c0.938-0.438,0.938,0.625,0.938,0.625
			S120.688,43.094,114.875,43.094z M113,24.031c0,0,1-0.094,1-0.969v-1.969c0,0,0.125-1.344,1-2.062S115.562,18,115,18
			s-3,0.344-3,5.031C112,23.031,112,24.031,113,24.031z"/>
	</g>
</g>
</svg>
