<?xml version="1.0" encoding="utf-8"?>
<!-- Generator: Adobe Illustrator 15.0.0, SVG Export Plug-In . SVG Version: 6.00 Build 0)  -->
<!DOCTYPE svg PUBLIC "-//W3C//DTD SVG 1.1//EN" "../../../../www.w3.org/Graphics/SVG/1.1/DTD/svg11.dtd">
<svg version="1.1" id="Layer_1" xmlns="http://www.w3.org/2000/svg" xmlns:xlink="../../../../www.w3.org/1999/xlink" x="0px" y="0px"
	 width="144px" height="66px" viewBox="0 0 144 66" enable-background="new 0 0 144 66" xml:space="preserve">
<g>
	<g>
		<path fill-rule="evenodd" clip-rule="evenodd" fill="#282828" d="M26.629,38.604c-1.719,1.533-2.857,1.44-4.02,0.278l-1.33-1.423
			c-1.161-1.161-1.161-3.044,0-4.205l5.692-5.692c1.161-1.162,3.044-1.162,4.205,0l1.051,1.051c0.897,0.897,1.102,2.225,0.613,3.317
			l2.541,1.939c1.742-1.742,1.742-4.566,0-6.308l-3.154-3.154c-1.741-1.742-4.565-1.742-6.308,0l-7.794,7.794
			c-1.742,1.742-1.742,4.566,0,6.308l3.153,3.154c1.742,1.741,4.566,1.741,6.309,0l3.008-3.103l-2.148-2.056L26.629,38.604z
			 M45.896,25.46l-3.154-3.154c-1.742-1.742-4.566-1.742-6.309,0c0,0,0.125-0.031-1.707,1.801l2.094,2.001l0.932-1.024
			c1.161-1.161,3.044-1.161,4.205,0l1.051,1.051c1.162,1.161,1.162,3.044,0,4.206l-5.135,5.32c-1.16,1.161-3.043,1.161-4.205,0
			l-0.865-1.424c-1.822-1.357-1.263-1.682-1.108-2.599l-2.312-2.282c-1.741,1.742-1.741,4.566,0,6.309l3.154,3.153
			c1.742,1.742,4.566,1.742,6.308,0l7.052-7.051C48.38,28.911,45.896,25.46,45.896,25.46z"/>
	</g>
</g>
<g>
	<g>
		<path fill-rule="evenodd" clip-rule="evenodd" fill="#FFFFFF" d="M108.629,38.604c-1.719,1.533-2.857,1.44-4.02,0.278l-1.33-1.423
			c-1.161-1.161-1.161-3.044,0-4.205l5.692-5.692c1.161-1.162,3.044-1.162,4.205,0l1.051,1.051c0.897,0.897,1.102,2.225,0.613,3.317
			l2.541,1.939c1.742-1.742,1.742-4.566,0-6.308l-3.154-3.154c-1.741-1.742-4.565-1.742-6.308,0l-7.794,7.794
			c-1.742,1.742-1.742,4.566,0,6.308l3.153,3.154c1.742,1.741,4.566,1.741,6.309,0l3.008-3.103l-2.148-2.056L108.629,38.604z
			 M127.896,25.46l-3.154-3.154c-1.742-1.742-4.566-1.742-6.309,0c0,0,0.125-0.031-1.707,1.801l2.094,2.001l0.932-1.024
			c1.161-1.161,3.044-1.161,4.205,0l1.051,1.051c1.162,1.161,1.162,3.044,0,4.206l-5.135,5.32c-1.16,1.161-3.043,1.161-4.205,0
			l-0.865-1.424c-1.822-1.357-1.263-1.682-1.108-2.599l-2.312-2.282c-1.741,1.742-1.741,4.566,0,6.309l3.154,3.153
			c1.742,1.742,4.566,1.742,6.308,0l7.052-7.051C130.38,28.911,127.896,25.46,127.896,25.46z"/>
	</g>
</g>
</svg>
