<?xml version="1.0" encoding="utf-8"?>
<!-- Generator: Adobe Illustrator 15.0.0, SVG Export Plug-In . SVG Version: 6.00 Build 0)  -->
<!DOCTYPE svg PUBLIC "-//W3C//DTD SVG 1.1//EN" "../../../../www.w3.org/Graphics/SVG/1.1/DTD/svg11.dtd">
<svg version="1.1" id="Layer_1" xmlns="http://www.w3.org/2000/svg" xmlns:xlink="../../../../www.w3.org/1999/xlink" x="0px" y="0px"
	 width="144px" height="66px" viewBox="0 0 144 66" enable-background="new 0 0 144 66" xml:space="preserve">
<g>
	<g>
		<path fill-rule="evenodd" clip-rule="evenodd" fill="#282828" d="M43,19H18c-1.657,0-3,1.343-3,3v15c0,1.657,1.343,3,3,3h25
			c1.656,0,3-1.343,3-3V22C46,20.343,44.656,19,43,19z M31.637,38.604c-0.177,0.205-0.408,0.362-0.672,0.448
			c-0.146,0.048-0.334-0.239-0.496-0.239c-0.271,0-0.494,0.24-0.713,0.115c-0.451-0.259-0.818-0.62-0.818-1.459
			c0-0.721,0.134-1.512,0.969-1.343c0.101-0.021,0.299,0.499,0.406,0.499c0.183,0,0.546-0.467,0.708-0.407
			c0.148,0.056,0.411,0.102,0.534,0.198c0.152,0.121,0.507,0.462,0.366,0.561c-0.429-0.031-0.952,0.032-0.952,0.492
			c0,0.845,0.993,0.569,0.993,0.569S31.73,38.495,31.637,38.604z M30.406,36c0-0.312,0.625-0.781,0.625-0.781
			C31.406,35.812,30.406,36,30.406,36z M44,32.969C44,34.073,43.104,35,42,35H19c-1.104,0-2-0.927-2-2.031V23c0-1.104,0.896-2,2-2
			h23c1.104,0,2,0.896,2,2V32.969z M34.917,44.917L35,41l-9,0.084V45l-1.917,0.979c0,0-0.416,1,0.667,1H36
			c0,0,1.333-0.417,0.917-0.834C36.5,45.729,34.917,44.917,34.917,44.917z"/>
	</g>
</g>
<g>
	<g>
		<path fill-rule="evenodd" clip-rule="evenodd" fill="#FFFFFF" d="M125,19h-25c-1.657,0-3,1.343-3,3v15c0,1.657,1.343,3,3,3h25
			c1.656,0,3-1.343,3-3V22C128,20.343,126.656,19,125,19z M113.637,38.604c-0.177,0.205-0.408,0.362-0.672,0.448
			c-0.146,0.048-0.334-0.239-0.496-0.239c-0.271,0-0.494,0.24-0.713,0.115c-0.451-0.259-0.818-0.62-0.818-1.459
			c0-0.721,0.134-1.512,0.969-1.343c0.101-0.021,0.299,0.499,0.406,0.499c0.183,0,0.546-0.467,0.708-0.407
			c0.148,0.056,0.411,0.102,0.534,0.198c0.152,0.121,0.507,0.462,0.366,0.561c-0.429-0.031-0.952,0.032-0.952,0.492
			c0,0.845,0.993,0.569,0.993,0.569S113.73,38.495,113.637,38.604z M112.406,36c0-0.312,0.625-0.781,0.625-0.781
			C113.406,35.812,112.406,36,112.406,36z M126,32.969c0,1.104-0.896,2.031-2,2.031h-23c-1.104,0-2-0.927-2-2.031V23
			c0-1.104,0.896-2,2-2h23c1.104,0,2,0.896,2,2V32.969z M116.917,44.917L117,41l-9,0.084V45l-1.917,0.979c0,0-0.416,1,0.667,1H118
			c0,0,1.333-0.417,0.917-0.834C118.5,45.729,116.917,44.917,116.917,44.917z"/>
	</g>
</g>
</svg>
