<?xml version="1.0" encoding="utf-8"?>
<!-- Generator: Adobe Illustrator 15.0.0, SVG Export Plug-In . SVG Version: 6.00 Build 0)  -->
<!DOCTYPE svg PUBLIC "-//W3C//DTD SVG 1.1//EN" "../../../../www.w3.org/Graphics/SVG/1.1/DTD/svg11.dtd">
<svg version="1.1" id="Layer_1" xmlns="http://www.w3.org/2000/svg" xmlns:xlink="../../../../www.w3.org/1999/xlink" x="0px" y="0px"
	 width="144px" height="66px" viewBox="0 0 144 66" enable-background="new 0 0 144 66" xml:space="preserve">
<g>
	<g>
		<path fill-rule="evenodd" clip-rule="evenodd" fill="#282828" d="M46.79,42.038l-9.802-10.021c-0.461-0.461-1.207-0.461-1.668,0
			l-0.719,0.719l-1.691-1.711c0,0,2.704-2.784,2.844-2.725c2.884,1.282,4.926,0.706,7.27-1.575c2.066-2.067,2.502-5.05,1.429-7.391
			l-4.045,3.975c-0.407,0.407-1.069,0.407-1.478,0l-1.723-1.724c-0.408-0.408-0.408-1.069,0-1.478l3.865-3.84
			c-2.22-0.707-4.852-0.098-6.728,1.778c-3.062,2.937-2.593,5.033-1.531,7.371c0.045,0.099-2.713,2.857-2.713,2.857l-0.18-0.002
			l-8.861-8.923c0,0,0.39-1.167-0.277-1.834l-1.433-1.37l-2.712,2.713l1.433,1.369c0,0,1.093,0.665,1.878,0.283l8.643,8.748
			l0.173,0.305L17.446,39.877l-1.478,1.478c-1.292,1.291-1.292,3.386,0,4.678c1.292,1.291,3.387,1.291,4.678,0l1.478-1.478
			c0,0,6.645-8.586,9.549-12.052l1.559,1.572l-0.853,0.979c-0.461,0.46-0.461,1.207,0,1.667l9.739,9.833
			c0.46,0.461,1.207,0.461,1.667,0l3.005-2.849C47.251,43.245,47.251,42.498,46.79,42.038z M19.743,43.798
			c-0.459,0.459-1.203,0.459-1.662,0s-0.459-1.203,0-1.662s1.203-0.459,1.662,0S20.202,43.339,19.743,43.798z M43.438,45.078
			c-0.195,0.195-0.512,0.195-0.707,0l-8.728-9.165c-0.195-0.195-0.195-0.512,0-0.707s0.512-0.195,0.707,0l8.728,9.165
			C43.633,44.566,43.633,44.883,43.438,45.078z M45.25,43.266c-0.195,0.195-0.512,0.195-0.707,0l-8.728-9.165
			c-0.195-0.195-0.195-0.512,0-0.707s0.512-0.195,0.707,0l8.728,9.165C45.445,42.754,45.445,43.07,45.25,43.266z"/>
	</g>
</g>
<g>
	<g>
		<path fill-rule="evenodd" clip-rule="evenodd" fill="#FFFFFF" d="M128.79,42.038l-9.802-10.021c-0.461-0.461-1.207-0.461-1.668,0
			l-0.719,0.719l-1.691-1.711c0,0,2.704-2.784,2.844-2.725c2.884,1.282,4.926,0.706,7.27-1.575c2.066-2.067,2.502-5.05,1.429-7.391
			l-4.045,3.975c-0.407,0.407-1.069,0.407-1.478,0l-1.723-1.724c-0.408-0.408-0.408-1.069,0-1.478l3.865-3.84
			c-2.22-0.707-4.852-0.098-6.728,1.778c-3.062,2.937-2.593,5.033-1.531,7.371c0.045,0.099-2.713,2.857-2.713,2.857l-0.18-0.002
			l-8.861-8.923c0,0,0.39-1.167-0.277-1.834l-1.433-1.37l-2.712,2.713l1.433,1.369c0,0,1.093,0.665,1.878,0.283l8.643,8.748
			l0.173,0.305L99.446,39.877l-1.478,1.478c-1.292,1.291-1.292,3.386,0,4.678c1.292,1.291,3.387,1.291,4.678,0l1.478-1.478
			c0,0,6.645-8.586,9.549-12.052l1.559,1.572l-0.853,0.979c-0.461,0.46-0.461,1.207,0,1.667l9.739,9.833
			c0.46,0.461,1.207,0.461,1.667,0l3.005-2.849C129.251,43.245,129.251,42.498,128.79,42.038z M101.743,43.798
			c-0.459,0.459-1.203,0.459-1.662,0s-0.459-1.203,0-1.662s1.203-0.459,1.662,0S102.202,43.339,101.743,43.798z M125.438,45.078
			c-0.195,0.195-0.512,0.195-0.707,0l-8.728-9.165c-0.195-0.195-0.195-0.512,0-0.707s0.512-0.195,0.707,0l8.728,9.165
			C125.633,44.566,125.633,44.883,125.438,45.078z M127.25,43.266c-0.195,0.195-0.512,0.195-0.707,0l-8.728-9.165
			c-0.195-0.195-0.195-0.512,0-0.707s0.512-0.195,0.707,0l8.728,9.165C127.445,42.754,127.445,43.07,127.25,43.266z"/>
	</g>
</g>
</svg>
