<?xml version="1.0" encoding="utf-8"?>
<!-- Generator: Adobe Illustrator 15.0.0, SVG Export Plug-In . SVG Version: 6.00 Build 0)  -->
<!DOCTYPE svg PUBLIC "-//W3C//DTD SVG 1.1//EN" "../../../../www.w3.org/Graphics/SVG/1.1/DTD/svg11.dtd">
<svg version="1.1" id="Layer_1" xmlns="http://www.w3.org/2000/svg" xmlns:xlink="../../../../www.w3.org/1999/xlink" x="0px" y="0px"
	 width="144px" height="66px" viewBox="0 0 144 66" enable-background="new 0 0 144 66" xml:space="preserve">
<g>
	<g>
		<path fill-rule="evenodd" clip-rule="evenodd" fill="#282828" d="M15.114,24.906c0,0-0.28,0.344,0.032,0.938l2.885,4.125
			c0,0,0.469,0.406,1-0.062l-3.1-5.479L15.114,24.906z M40.031,20.938c0,0-0.812-1-3.062-1h-1.938c0,0,0.062,4.031-4.062,4.031
			c0,0-4.062-0.25-4-4.031h-1.938c0,0-2.312,0.188-3.125,1l-5.007,2.926l3.083,5.568l3.059-1.525l-0.01,15
			c0,0,3.562,1.094,7.938,1.094c0,0,4.344,0.031,8.031-1.094v-15l3.01,1.512l3.016-5.534L40.031,20.938z M26.062,28.938
			c4,0.875,3.938,4,3.938,4C25.969,32.406,26.062,28.938,26.062,28.938z M31,32.969c-2.438-3.688,0-6.031,0-6.031
			C33.344,29.344,31,32.969,31,32.969z M32.062,32.938c0,0-0.062-3.125,3.938-4C36,28.938,36.094,32.406,32.062,32.938z
			 M46.812,24.938l-0.748-0.441l-3.033,5.441c0,0,0.514,0.452,0.938-0.031c0.238-0.285,2.08-2.976,2.872-4.289
			C47.215,24.986,46.812,24.938,46.812,24.938z"/>
	</g>
</g>
<g>
	<g>
		<path fill-rule="evenodd" clip-rule="evenodd" fill="#FFFFFF" d="M128.812,24.938l-0.748-0.441l-3.033,5.441
			c0,0,0.514,0.452,0.938-0.031c0.238-0.285,2.08-2.976,2.872-4.289C129.215,24.986,128.812,24.938,128.812,24.938z M122.031,20.938
			c0,0-0.812-1-3.062-1h-1.938c0,0,0.062,4.031-4.062,4.031c0,0-4.062-0.25-4-4.031h-1.938c0,0-2.312,0.188-3.125,1l-5.007,2.926
			l3.083,5.568l3.059-1.525l-0.01,15c0,0,3.562,1.094,7.938,1.094c0,0,4.344,0.031,8.031-1.094v-15l3.01,1.512l3.016-5.534
			L122.031,20.938z M108.062,28.938c4,0.875,3.938,4,3.938,4C107.969,32.406,108.062,28.938,108.062,28.938z M113,32.969
			c-2.438-3.688,0-6.031,0-6.031C115.344,29.344,113,32.969,113,32.969z M114.062,32.938c0,0-0.062-3.125,3.938-4
			C118,28.938,118.094,32.406,114.062,32.938z M97.114,24.906c0,0-0.28,0.344,0.032,0.938l2.885,4.125c0,0,0.469,0.406,1-0.062
			l-3.1-5.479L97.114,24.906z"/>
	</g>
</g>
</svg>
