<?xml version="1.0" encoding="utf-8"?>
<!-- Generator: Adobe Illustrator 15.0.0, SVG Export Plug-In . SVG Version: 6.00 Build 0)  -->
<!DOCTYPE svg PUBLIC "-//W3C//DTD SVG 1.1//EN" "../../../../www.w3.org/Graphics/SVG/1.1/DTD/svg11.dtd">
<svg version="1.1" id="Layer_1" xmlns="http://www.w3.org/2000/svg" xmlns:xlink="../../../../www.w3.org/1999/xlink" x="0px" y="0px"
	 width="144px" height="66px" viewBox="0 0 144 66" enable-background="new 0 0 144 66" xml:space="preserve">
<g>
	<g>
		<path fill-rule="evenodd" clip-rule="evenodd" fill="#282828" d="M30.822,34.878c-1.496-0.271-2.014-0.846-2.014-0.846
			l-0.716,1.004c0,0,0.62,0.914,2.616,0.914c0.892,0,1.932,0.191,2.431-0.301s1.093-1.43,1.093-2.124
			c0-0.719-0.355-1.272-0.69-1.631c-0.554-0.601-2.119-0.934-2.152-1.627c0-0.649,0.475-0.947,2.039-0.947
			c0.663,0,1.062,0.488,1.062,0.488l1.179-1.319c0,0-1.527-0.525-2.367-0.525c-0.827,0-2.312,0.219-2.749,0.655
			c-1.789,1.197-0.384,2.768-0.497,2.549c3.012,2.02,2.278,3.02,2.278,3.02S31.616,34.878,30.822,34.878z M40.945,35.941
			l0.025-7.968l-2.011,0.062l-4.798,7.937h1.857l0.859-1.365h2.587l-0.011,1.334H40.945z M39.348,33.016h-1.956l2.041-3.544
			L39.348,33.016z M43,23H18c-0.552,0-1,0.447-1,1v3h27v-3C44,23.447,43.552,23,43,23z M24.642,35.973h1.85l2.494-7.968h-1.845
			L24.642,35.973z M45,21H16c-0.552,0-1,0.447-1,1v20c0,0.553,0.448,1,1,1h29c0.552,0,1-0.447,1-1V22C46,21.447,45.552,21,45,21z
			 M45,41c0,0.553-0.448,1-1,1H17c-0.552,0-1-0.447-1-1V23c0-0.553,0.448-1,1-1h27c0.552,0,1,0.447,1,1V41z M22.011,33.273
			l-0.908-5.269l-3.563-0.031l0.158,0.687c0,0,1.625,0.463,1.641,0.56c0.363,2.145,1.079,6.753,1.079,6.753h1.572l3.945-7.968
			h-1.241L22.011,33.273z M17,40c0,0.553,0.448,1,1,1h25c0.552,0,1-0.447,1-1v-3H17V40z"/>
	</g>
</g>
<g>
	<g>
		<path fill-rule="evenodd" clip-rule="evenodd" fill="#FFFFFF" d="M112.822,34.878c-1.496-0.271-2.015-0.846-2.015-0.846
			l-0.716,1.004c0,0,0.62,0.914,2.616,0.914c0.892,0,1.932,0.191,2.431-0.301c0.5-0.492,1.094-1.43,1.094-2.124
			c0-0.719-0.355-1.272-0.69-1.631c-0.554-0.601-2.118-0.934-2.152-1.627c0-0.649,0.476-0.947,2.039-0.947
			c0.663,0,1.062,0.488,1.062,0.488l1.179-1.319c0,0-1.527-0.525-2.367-0.525c-0.826,0-2.312,0.219-2.748,0.655
			c-1.789,1.197-0.385,2.768-0.498,2.549c3.012,2.02,2.279,3.02,2.279,3.02S113.616,34.878,112.822,34.878z M122.945,35.941
			l0.025-7.968l-2.011,0.062l-4.798,7.937h1.857l0.859-1.365h2.587l-0.011,1.334H122.945z M121.348,33.016h-1.956l2.041-3.544
			L121.348,33.016z M104.011,33.273l-0.908-5.269l-3.563-0.031l0.158,0.687c0,0,1.625,0.463,1.641,0.56
			c0.363,2.145,1.079,6.753,1.079,6.753h1.572l3.945-7.968h-1.241L104.011,33.273z M127,21H98c-0.553,0-1,0.447-1,1v20
			c0,0.553,0.447,1,1,1h29c0.553,0,1-0.447,1-1V22C128,21.447,127.553,21,127,21z M127,41c0,0.553-0.447,1-1,1H99
			c-0.553,0-1-0.447-1-1V23c0-0.553,0.447-1,1-1h27c0.553,0,1,0.447,1,1V41z M125,23h-25c-0.553,0-1,0.447-1,1v3h27v-3
			C126,23.447,125.553,23,125,23z M106.642,35.973h1.85l2.494-7.968h-1.845L106.642,35.973z M99,40c0,0.553,0.447,1,1,1h25
			c0.553,0,1-0.447,1-1v-3H99V40z"/>
	</g>
</g>
</svg>
