<?xml version="1.0" encoding="utf-8"?>
<!-- Generator: Adobe Illustrator 15.0.0, SVG Export Plug-In . SVG Version: 6.00 Build 0)  -->
<!DOCTYPE svg PUBLIC "-//W3C//DTD SVG 1.1//EN" "../../../../www.w3.org/Graphics/SVG/1.1/DTD/svg11.dtd">
<svg version="1.1" id="Layer_1" xmlns="http://www.w3.org/2000/svg" xmlns:xlink="../../../../www.w3.org/1999/xlink" x="0px" y="0px"
	 width="144px" height="66px" viewBox="0 0 144 66" enable-background="new 0 0 144 66" xml:space="preserve">
<g>
	<g>
		<path fill-rule="evenodd" clip-rule="evenodd" fill="#282828" d="M30.838,33.98C30.824,33.834,30.728,33.933,30.838,33.98
			L30.838,33.98z M26.438,38.406c0,0-0.5-0.312-0.406,0.406s-0.062,0.812,0.25,0.75s0.375,0.062,0.531-0.344
			S27.031,38.219,26.438,38.406z M30.75,34.781c0.531,0,0.719,0.125,0.719-0.188S31.375,33.969,31,34
			c-0.083,0.007-0.128-0.005-0.162-0.02c0.001,0.01,0.005,0.007,0.005,0.02c0,0-0.25-0.062-0.25,0.25S30.219,34.781,30.75,34.781z
			 M30.998,35.953c-1.673,0-3.029,1.356-3.029,3.029s1.356,3.029,3.029,3.029s3.029-1.356,3.029-3.029S32.671,35.953,30.998,35.953z
			 M40,17H22c-1.657,0-3,1.343-3,3v23.917C19,45.573,20.343,47,22,47h18c1.657,0,3-1.343,3-3V20C43,18.343,41.657,17,40,17z
			 M30.958,45.042c-3.325,0-6.021-2.696-6.021-6.021S27.633,33,30.958,33s6.021,2.695,6.021,6.021S34.283,45.042,30.958,45.042z
			 M41,30c0,0.553-0.447,1-1,1H22c-0.553,0-1-0.447-1-1V20c0-0.553,0.447-1,1-1h18c0.553,0,1,0.447,1,1V30z M35.031,39.031
			C35.094,39.5,34.938,40,35.406,39.75s0.844-1.625,0-1.031C35.406,38.719,34.969,38.562,35.031,39.031z M30.719,43.094
			c0,0-0.594,0.094-0.438,0.469s0.062,0.688,0.531,0.5s0.594-0.094,0.562-0.469S30.969,42.812,30.719,43.094z"/>
	</g>
</g>
<g>
	<g>
		<path fill-rule="evenodd" clip-rule="evenodd" fill="#FFFFFF" d="M108.438,38.406c0,0-0.5-0.312-0.406,0.406
			s-0.062,0.812,0.25,0.75s0.375,0.062,0.531-0.344S109.031,38.219,108.438,38.406z M112.75,34.781c0.531,0,0.719,0.125,0.719-0.188
			S113.375,33.969,113,34c-0.083,0.007-0.128-0.005-0.162-0.02c0.001,0.01,0.006,0.007,0.006,0.02c0,0-0.25-0.062-0.25,0.25
			S112.219,34.781,112.75,34.781z M112.838,33.98C112.824,33.834,112.728,33.933,112.838,33.98L112.838,33.98z M122,17h-18
			c-1.657,0-3,1.343-3,3v23.917c0,1.656,1.343,3.083,3,3.083h18c1.657,0,3-1.343,3-3V20C125,18.343,123.657,17,122,17z
			 M112.958,45.042c-3.325,0-6.021-2.696-6.021-6.021S109.633,33,112.958,33s6.021,2.695,6.021,6.021S116.283,45.042,112.958,45.042
			z M123,30c0,0.553-0.447,1-1,1h-18c-0.553,0-1-0.447-1-1V20c0-0.553,0.447-1,1-1h18c0.553,0,1,0.447,1,1V30z M117.031,39.031
			c0.062,0.469-0.094,0.969,0.375,0.719s0.844-1.625,0-1.031C117.406,38.719,116.969,38.562,117.031,39.031z M112.998,35.953
			c-1.673,0-3.029,1.356-3.029,3.029s1.356,3.029,3.029,3.029s3.029-1.356,3.029-3.029S114.671,35.953,112.998,35.953z
			 M112.719,43.094c0,0-0.594,0.094-0.438,0.469s0.062,0.688,0.531,0.5s0.594-0.094,0.562-0.469S112.969,42.812,112.719,43.094z"/>
	</g>
</g>
</svg>
