<?xml version="1.0" encoding="utf-8"?>
<!-- Generator: Adobe Illustrator 15.0.0, SVG Export Plug-In . SVG Version: 6.00 Build 0)  -->
<!DOCTYPE svg PUBLIC "-//W3C//DTD SVG 1.1//EN" "../../../../www.w3.org/Graphics/SVG/1.1/DTD/svg11.dtd">
<svg version="1.1" id="Layer_1" xmlns="http://www.w3.org/2000/svg" xmlns:xlink="../../../../www.w3.org/1999/xlink" x="0px" y="0px"
	 width="144px" height="66px" viewBox="0 0 144 66" enable-background="new 0 0 144 66" xml:space="preserve">
<g>
	<g>
		<path fill-rule="evenodd" clip-rule="evenodd" fill="#282828" d="M30.562,17C26.386,17,23,20.386,23,24.562
			c0,3.176,1.958,5.895,4.732,7.016l0.361,0.547l-0.018,3.062L29.069,37l-1.009,0.875l0.967,1.005l0.01,0.997l-1.006,1.001
			l1.031,1.06l-1,2.25c0,0,1.281,3,2.906,3l2-4.031L33,32.125c0,0-0.086-0.189,0.051-0.325c2.171-0.344,5.074-3.719,5.074-7.237
			C38.125,20.386,34.739,17,30.562,17z M32.062,42.438c0,0.276-0.224,0.5-0.5,0.5c-0.275,0-0.562-0.224-0.562-0.5v-9.875
			c0-0.276,0.287-0.5,0.562-0.5c0.276,0,0.5,0.224,0.5,0.5V42.438z M30.621,21.114c-1.599,0-2.895-0.41-2.895-0.915
			c0-0.506,1.296-1.201,2.895-1.201c1.6,0,2.896,0.695,2.896,1.201C33.517,20.704,32.221,21.114,30.621,21.114z"/>
	</g>
</g>
<g>
	<g>
		<path fill-rule="evenodd" clip-rule="evenodd" fill="#FFFFFF" d="M112.562,17c-4.177,0-7.562,3.386-7.562,7.562
			c0,3.176,1.958,5.895,4.732,7.016l0.361,0.547l-0.018,3.062L111.069,37l-1.009,0.875l0.967,1.005l0.01,0.997l-1.006,1.001
			l1.031,1.06l-1,2.25c0,0,1.281,3,2.906,3l2-4.031L115,32.125c0,0-0.086-0.189,0.051-0.325c2.171-0.344,5.074-3.719,5.074-7.237
			C120.125,20.386,116.739,17,112.562,17z M114.062,42.438c0,0.276-0.224,0.5-0.5,0.5c-0.275,0-0.562-0.224-0.562-0.5v-9.875
			c0-0.276,0.287-0.5,0.562-0.5c0.276,0,0.5,0.224,0.5,0.5V42.438z M112.621,21.114c-1.599,0-2.895-0.41-2.895-0.915
			c0-0.506,1.296-1.201,2.895-1.201c1.6,0,2.896,0.695,2.896,1.201C115.517,20.704,114.221,21.114,112.621,21.114z"/>
	</g>
</g>
</svg>
