<?xml version="1.0" encoding="utf-8"?>
<!-- Generator: Adobe Illustrator 15.0.0, SVG Export Plug-In . SVG Version: 6.00 Build 0)  -->
<!DOCTYPE svg PUBLIC "-//W3C//DTD SVG 1.1//EN" "../../../../www.w3.org/Graphics/SVG/1.1/DTD/svg11.dtd">
<svg version="1.1" id="Layer_1" xmlns="http://www.w3.org/2000/svg" xmlns:xlink="../../../../www.w3.org/1999/xlink" x="0px" y="0px"
	 width="144px" height="66px" viewBox="0 0 144 66" enable-background="new 0 0 144 66" xml:space="preserve">
<g>
	<g>
		<path fill-rule="evenodd" clip-rule="evenodd" fill="#282828" d="M34.707,27.938l1.392-1.392l1.414,1.414l0.729-0.729
			l-1.414-1.414l1.414-1.415l-0.685-0.685l-1.414,1.414l-1.392-1.392l-0.729,0.685l1.392,1.393L34,27.231L34.707,27.938z
			 M23.562,39.938c-0.188,0-0.373,0.015-0.553,0.044l-2.792-5.714l0.92-0.531c0,0,0.812-0.469,0.312-1.334
			c-0.276-0.479-0.888-0.643-1.366-0.366c-0.254,0.147-3.459,1.996-3.459,1.996s-0.844,0.551-0.371,1.37
			c0,0,0.484,0.838,1.351,0.339l0.866-0.5l2.8,5.554c-0.735,0.641-1.2,1.584-1.2,2.635c0,1.929,1.563,3.492,3.492,3.492
			s3.492-1.563,3.492-3.492S25.491,39.938,23.562,39.938z M23.601,45.094c-0.863,0-1.562-0.699-1.562-1.562s0.7-1.562,1.562-1.562
			s1.562,0.699,1.562,1.562S24.464,45.094,23.601,45.094z M18.514,29.96l0.729-0.729l-1.414-1.414l1.414-1.415l-0.685-0.685
			l-1.414,1.415l-1.392-1.392l-0.729,0.685l1.392,1.393L15,29.231l0.707,0.707l1.392-1.392L18.514,29.96z M46.882,32.438
			l-4.594-3.656l1.875-1.75l-5.219,0.062l0.906,5.188l1.438-2l3.486,2.766c0,0-0.266,3.246-3.829,5.215
			c-0.893-0.392-1.944-0.409-2.895,0.039c-1.744,0.823-2.491,2.904-1.668,4.648c0.823,1.744,2.904,2.491,4.648,1.668
			c1.745-0.822,2.491-2.903,1.668-4.648c-0.08-0.17-0.172-0.33-0.275-0.48C42.425,39.488,46.07,37.312,46.882,32.438z
			 M40.133,42.951c-0.78,0.368-1.711,0.033-2.08-0.746c-0.368-0.781-0.034-1.712,0.747-2.08c0.78-0.368,1.711-0.034,2.08,0.746
			C41.248,41.652,40.914,42.583,40.133,42.951z M33.726,41.694c-0.15-0.112-0.307-0.212-0.468-0.297
			c4.625-17.812-8.995-22.496-8.995-22.496s0.254-2.568,0.838-2.901l-5.229,2.604l3.239,5.261c0,0,0.253-2.358,0.67-3.108
			c11.5,5.125,7.596,20.249,7.596,20.249c-0.972,0.071-1.909,0.547-2.54,1.388c-1.157,1.544-0.844,3.732,0.7,4.89
			c1.543,1.156,3.732,0.844,4.889-0.7C35.583,45.04,35.27,42.852,33.726,41.694z M32.852,45.531
			c-0.518,0.689-1.497,0.83-2.188,0.312c-0.69-0.518-0.831-1.497-0.313-2.188s1.497-0.831,2.188-0.313S33.37,44.84,32.852,45.531z
			 M26.829,28.817l1.414-1.414l-0.685-0.686l-1.414,1.414l-1.392-1.392l-0.729,0.685l1.392,1.393L24,30.231l0.707,0.707l1.392-1.392
			l1.414,1.414l0.729-0.729L26.829,28.817z"/>
	</g>
</g>
<g>
	<g>
		<path fill-rule="evenodd" clip-rule="evenodd" fill="#FFFFFF" d="M116.707,27.938l1.393-1.392l1.414,1.414l0.729-0.729
			l-1.414-1.414l1.414-1.415l-0.685-0.685l-1.414,1.414l-1.392-1.392l-0.73,0.685l1.393,1.393L116,27.231L116.707,27.938z
			 M100.514,29.96l0.729-0.729l-1.414-1.414l1.414-1.415l-0.685-0.685l-1.414,1.415l-1.392-1.392l-0.73,0.685l1.393,1.393L97,29.231
			l0.707,0.707l1.393-1.392L100.514,29.96z M105.562,39.938c-0.188,0-0.373,0.015-0.553,0.044l-2.793-5.714l0.92-0.531
			c0,0,0.812-0.469,0.312-1.334c-0.276-0.479-0.888-0.643-1.366-0.366c-0.255,0.147-3.459,1.996-3.459,1.996
			s-0.844,0.551-0.371,1.37c0,0,0.484,0.838,1.351,0.339l0.865-0.5l2.801,5.554c-0.734,0.641-1.199,1.584-1.199,2.635
			c0,1.929,1.562,3.492,3.492,3.492c1.928,0,3.492-1.563,3.492-3.492S107.49,39.938,105.562,39.938z M105.602,45.094
			c-0.863,0-1.562-0.699-1.562-1.562s0.699-1.562,1.562-1.562c0.862,0,1.562,0.699,1.562,1.562S106.464,45.094,105.602,45.094z
			 M128.883,32.438l-4.594-3.656l1.875-1.75l-5.219,0.062l0.906,5.188l1.438-2l3.486,2.766c0,0-0.267,3.246-3.829,5.215
			c-0.893-0.392-1.944-0.409-2.895,0.039c-1.744,0.823-2.491,2.904-1.669,4.648c0.824,1.744,2.904,2.491,4.648,1.668
			c1.745-0.822,2.492-2.903,1.669-4.648c-0.08-0.17-0.173-0.33-0.274-0.48C124.426,39.488,128.07,37.312,128.883,32.438z
			 M122.133,42.951c-0.779,0.368-1.711,0.033-2.079-0.746c-0.368-0.781-0.034-1.712,0.747-2.08c0.779-0.368,1.711-0.034,2.079,0.746
			C123.248,41.652,122.914,42.583,122.133,42.951z M108.828,28.817l1.414-1.414l-0.685-0.686l-1.414,1.414l-1.392-1.392l-0.73,0.685
			l1.393,1.393L106,30.231l0.707,0.707l1.393-1.392l1.414,1.414l0.729-0.729L108.828,28.817z M115.727,41.694
			c-0.15-0.112-0.308-0.212-0.469-0.297c4.625-17.812-8.994-22.496-8.994-22.496s0.254-2.568,0.838-2.901l-5.229,2.604l3.239,5.261
			c0,0,0.253-2.358,0.67-3.108c11.5,5.125,7.596,20.249,7.596,20.249c-0.972,0.071-1.908,0.547-2.539,1.388
			c-1.157,1.544-0.844,3.732,0.699,4.89c1.543,1.156,3.732,0.844,4.889-0.7C117.582,45.04,117.27,42.852,115.727,41.694z
			 M114.852,45.531c-0.518,0.689-1.496,0.83-2.188,0.312c-0.689-0.518-0.83-1.497-0.312-2.188s1.497-0.831,2.188-0.313
			S115.369,44.84,114.852,45.531z"/>
	</g>
</g>
</svg>
