<?xml version="1.0" encoding="utf-8"?>
<!-- Generator: Adobe Illustrator 15.0.0, SVG Export Plug-In . SVG Version: 6.00 Build 0)  -->
<!DOCTYPE svg PUBLIC "-//W3C//DTD SVG 1.1//EN" "../../../../www.w3.org/Graphics/SVG/1.1/DTD/svg11.dtd">
<svg version="1.1" id="Layer_1" xmlns="http://www.w3.org/2000/svg" xmlns:xlink="../../../../www.w3.org/1999/xlink" x="0px" y="0px"
	 width="144px" height="66px" viewBox="0 0 144 66" enable-background="new 0 0 144 66" xml:space="preserve">
<g>
	<g>
		<path fill-rule="evenodd" clip-rule="evenodd" fill="#282828" d="M43.428,22.058l-2.08-1.118c0,0-2.828-1.893-10.953-1.893h-0.219
			c-6.406,0-10.703,1.893-10.703,1.893l-2.08,1.118c-2.561,1.335-1.224,3.583-1.224,3.583l1.219,2.454l7.11-3.604
			c0,0-0.641-1.108-0.849-1.62c-0.227-0.413-0.067-0.323,0.089-0.417c0,0,3.312-1.406,6.438-1.406h0.469c0,0,4.557-0.006,6.47,1.624
			c0.095,0.081,0.144,0.065,0.156,0.057c-0.013,0.012-0.051,0.058-0.109,0.201c-0.328,0.806-0.839,1.562-0.839,1.562l7.027,3.604
			l1.302-2.454C44.651,25.641,45.988,23.393,43.428,22.058z M24.402,28.047c-1.092,0-1.977,0.885-1.977,1.977S23.311,32,24.402,32
			s1.977-0.885,1.977-1.977S25.494,28.047,24.402,28.047z M30.402,28.047c-1.092,0-1.977,0.885-1.977,1.977S29.311,32,30.402,32
			s1.977-0.885,1.977-1.977S31.494,28.047,30.402,28.047z M36.402,28.047c-1.092,0-1.977,0.885-1.977,1.977S35.311,32,36.402,32
			s1.977-0.885,1.977-1.977S37.494,28.047,36.402,28.047z M24.402,34.047c-1.092,0-1.977,0.885-1.977,1.977S23.311,38,24.402,38
			s1.977-0.885,1.977-1.977S25.494,34.047,24.402,34.047z M30.402,34.047c-1.092,0-1.977,0.885-1.977,1.977S29.311,38,30.402,38
			s1.977-0.885,1.977-1.977S31.494,34.047,30.402,34.047z M36.402,34.047c-1.092,0-1.977,0.885-1.977,1.977S35.311,38,36.402,38
			s1.977-0.885,1.977-1.977S37.494,34.047,36.402,34.047z M24.402,40.047c-1.092,0-1.977,0.885-1.977,1.977S23.311,44,24.402,44
			s1.977-0.885,1.977-1.977S25.494,40.047,24.402,40.047z M30.402,40.047c-1.092,0-1.977,0.885-1.977,1.977S29.311,44,30.402,44
			s1.977-0.885,1.977-1.977S31.494,40.047,30.402,40.047z M36.402,40.047c-1.092,0-1.977,0.885-1.977,1.977S35.311,44,36.402,44
			s1.977-0.885,1.977-1.977S37.494,40.047,36.402,40.047z"/>
	</g>
</g>
<g>
	<g>
		<path fill-rule="evenodd" clip-rule="evenodd" fill="#FFFFFF" d="M125.428,22.058l-2.08-1.118c0,0-2.828-1.893-10.953-1.893
			h-0.219c-6.406,0-10.703,1.893-10.703,1.893l-2.08,1.118c-2.561,1.335-1.224,3.583-1.224,3.583l1.219,2.454l7.11-3.604
			c0,0-0.641-1.108-0.849-1.62c-0.227-0.413-0.067-0.323,0.089-0.417c0,0,3.312-1.406,6.438-1.406h0.469c0,0,4.557-0.006,6.47,1.624
			c0.096,0.081,0.144,0.065,0.156,0.057c-0.014,0.012-0.051,0.058-0.109,0.201c-0.328,0.806-0.839,1.562-0.839,1.562l7.027,3.604
			l1.302-2.454C126.651,25.641,127.988,23.393,125.428,22.058z M106.402,28.047c-1.092,0-1.977,0.885-1.977,1.977
			S105.311,32,106.402,32s1.977-0.885,1.977-1.977S107.494,28.047,106.402,28.047z M112.402,28.047
			c-1.092,0-1.977,0.885-1.977,1.977S111.311,32,112.402,32s1.977-0.885,1.977-1.977S113.494,28.047,112.402,28.047z
			 M118.402,28.047c-1.092,0-1.977,0.885-1.977,1.977S117.311,32,118.402,32s1.977-0.885,1.977-1.977S119.494,28.047,118.402,28.047
			z M106.402,34.047c-1.092,0-1.977,0.885-1.977,1.977S105.311,38,106.402,38s1.977-0.885,1.977-1.977
			S107.494,34.047,106.402,34.047z M112.402,34.047c-1.092,0-1.977,0.885-1.977,1.977S111.311,38,112.402,38
			s1.977-0.885,1.977-1.977S113.494,34.047,112.402,34.047z M118.402,34.047c-1.092,0-1.977,0.885-1.977,1.977
			S117.311,38,118.402,38s1.977-0.885,1.977-1.977S119.494,34.047,118.402,34.047z M106.402,40.047
			c-1.092,0-1.977,0.885-1.977,1.977S105.311,44,106.402,44s1.977-0.885,1.977-1.977S107.494,40.047,106.402,40.047z
			 M112.402,40.047c-1.092,0-1.977,0.885-1.977,1.977S111.311,44,112.402,44s1.977-0.885,1.977-1.977S113.494,40.047,112.402,40.047
			z M118.402,40.047c-1.092,0-1.977,0.885-1.977,1.977S117.311,44,118.402,44s1.977-0.885,1.977-1.977
			S119.494,40.047,118.402,40.047z"/>
	</g>
</g>
</svg>
