<?xml version="1.0" encoding="utf-8"?>
<!-- Generator: Adobe Illustrator 15.0.0, SVG Export Plug-In . SVG Version: 6.00 Build 0)  -->
<!DOCTYPE svg PUBLIC "-//W3C//DTD SVG 1.1//EN" "../../../../www.w3.org/Graphics/SVG/1.1/DTD/svg11.dtd">
<svg version="1.1" id="Layer_1" xmlns="http://www.w3.org/2000/svg" xmlns:xlink="../../../../www.w3.org/1999/xlink" x="0px" y="0px"
	 width="144px" height="66px" viewBox="0 0 144 66" enable-background="new 0 0 144 66" xml:space="preserve">
<g>
	<g>
		<path fill-rule="evenodd" clip-rule="evenodd" fill="#282828" d="M17.5,23.035c-1.398,0-2.531,1.574-2.531,3.516
			c0,1.723,0.861,3.156,2.038,3.457C17.156,30.046,17,39.441,17,39.441s0.021,0.564,0.469,0.559C18.026,40,18,39.479,18,39.479
			s-0.08-9.467,0-9.491c1.141-0.341,2.031-1.75,2.031-3.437C20.031,24.609,18.898,23.035,17.5,23.035z M46.25,26.066H45l-0.438-3
			l-0.5,3h-1.031l-1-3L42,26.035c0,0-0.094,1.965,1.031,1.965h1v11.566c0,0.276,0.224,0.434,0.5,0.434S45,39.843,45,39.566V28h1.031
			c0,0,0.969,0.16,0.969-1.965v-3L46.25,26.066z M31.004,21.054c-5.508,0-9.973,4.465-9.973,9.973S25.496,41,31.004,41
			s9.974-4.466,9.974-9.974S36.512,21.054,31.004,21.054z"/>
	</g>
</g>
<g>
	<g>
		<path fill-rule="evenodd" clip-rule="evenodd" fill="#FFFFFF" d="M99.5,23.035c-1.398,0-2.531,1.574-2.531,3.516
			c0,1.723,0.861,3.156,2.038,3.457C99.156,30.046,99,39.441,99,39.441s0.021,0.564,0.469,0.559c0.558,0,0.531-0.521,0.531-0.521
			s-0.08-9.467,0-9.491c1.141-0.341,2.031-1.75,2.031-3.437C102.031,24.609,100.898,23.035,99.5,23.035z M128.25,26.066H127
			l-0.438-3l-0.5,3h-1.031l-1-3L124,26.035c0,0-0.094,1.965,1.031,1.965h1v11.566c0,0.276,0.224,0.434,0.5,0.434
			S127,39.843,127,39.566V28h1.031c0,0,0.969,0.16,0.969-1.965v-3L128.25,26.066z M113.004,21.054c-5.508,0-9.973,4.465-9.973,9.973
			S107.496,41,113.004,41s9.974-4.466,9.974-9.974S118.512,21.054,113.004,21.054z"/>
	</g>
</g>
</svg>
