<?xml version="1.0" encoding="utf-8"?>
<!-- Generator: Adobe Illustrator 15.0.0, SVG Export Plug-In . SVG Version: 6.00 Build 0)  -->
<!DOCTYPE svg PUBLIC "-//W3C//DTD SVG 1.1//EN" "../../../../www.w3.org/Graphics/SVG/1.1/DTD/svg11.dtd">
<svg version="1.1" id="Layer_1" xmlns="http://www.w3.org/2000/svg" xmlns:xlink="../../../../www.w3.org/1999/xlink" x="0px" y="0px"
	 width="144px" height="66px" viewBox="0 0 144 66" enable-background="new 0 0 144 66" xml:space="preserve">
<g>
	<g>
		<path fill-rule="evenodd" clip-rule="evenodd" fill="#282828" d="M26.922,36.42c0.217-2.442,2.564-4.093,2.564-6.643
			c0-2.55-2.604-2.225-3.526-1.845s-3.96,2.41-4.612,3.387c-0.65,0.977-1.41,1.628-1.41,3.581s1.303,2.279,1.845,4.395
			C22.271,41.303,21.729,47,26.015,47c0,0,3.87-0.373,3.87-3.684C29.885,40.008,26.705,38.861,26.922,36.42z M28.872,24.005
			c-0.573,0-0.997,0.594-0.997,1.444c0,0.85,0.424,1.539,0.997,1.539s1.038-0.689,1.038-1.539
			C29.91,24.599,29.445,24.005,28.872,24.005z M25.906,26.942c0.535,0,0.969-0.44,0.969-0.984s-0.434-0.984-0.969-0.984
			s-0.969,0.44-0.969,0.984S25.371,26.942,25.906,26.942z M22.938,27.942c0.518,0,0.938-0.434,0.938-0.969s-0.42-0.969-0.938-0.969
			S22,26.438,22,26.974S22.42,27.942,22.938,27.942z M20.906,30.005c0.569,0,1.031-0.462,1.031-1.031s-0.462-1.031-1.031-1.031
			s-1.031,0.462-1.031,1.031S20.337,30.005,20.906,30.005z M19.406,31.067c-0.293,0-0.531,0.238-0.531,0.531
			s0.238,0.531,0.531,0.531s0.531-0.238,0.531-0.531S19.699,31.067,19.406,31.067z M37.915,21.933
			c-0.923-0.38-3.526-0.706-3.526,1.845c0,2.55,2.348,4.201,2.564,6.642c0.217,2.442-2.963,3.588-2.963,6.897
			c0,3.311,3.87,3.684,3.87,3.684c4.286,0,3.744-5.697,4.232-7.705c0.542-2.116,1.845-2.442,1.845-4.395s-0.76-2.604-1.41-3.581
			C41.875,24.343,38.838,22.312,37.915,21.933z M35.003,20.988c0.573,0,0.997-0.689,0.997-1.539c0-0.85-0.424-1.444-0.997-1.444
			s-1.038,0.594-1.038,1.444C33.965,20.299,34.43,20.988,35.003,20.988z M37.969,20.942c0.535,0,0.969-0.441,0.969-0.984
			s-0.434-0.984-0.969-0.984S37,19.415,37,19.958S37.434,20.942,37.969,20.942z M40.938,21.942c0.518,0,0.938-0.434,0.938-0.969
			s-0.42-0.969-0.938-0.969S40,20.438,40,20.974S40.42,21.942,40.938,21.942z M42.969,24.005c0.57,0,1.031-0.462,1.031-1.031
			s-0.461-1.031-1.031-1.031c-0.569,0-1.031,0.462-1.031,1.031S42.399,24.005,42.969,24.005z M44.469,25.067
			c-0.293,0-0.531,0.238-0.531,0.531s0.238,0.531,0.531,0.531S45,25.892,45,25.599S44.762,25.067,44.469,25.067z"/>
	</g>
</g>
<g>
	<g>
		<path fill-rule="evenodd" clip-rule="evenodd" fill="#FFFFFF" d="M108.922,36.42c0.217-2.442,2.564-4.093,2.564-6.643
			c0-2.55-2.604-2.225-3.526-1.845s-3.96,2.41-4.612,3.387c-0.65,0.977-1.41,1.628-1.41,3.581s1.303,2.279,1.845,4.395
			c0.488,2.008-0.054,7.705,4.232,7.705c0,0,3.87-0.373,3.87-3.684C111.885,40.008,108.705,38.861,108.922,36.42z M110.872,24.005
			c-0.573,0-0.997,0.594-0.997,1.444c0,0.85,0.424,1.539,0.997,1.539s1.038-0.689,1.038-1.539
			C111.91,24.599,111.445,24.005,110.872,24.005z M107.906,26.942c0.535,0,0.969-0.44,0.969-0.984s-0.434-0.984-0.969-0.984
			s-0.969,0.44-0.969,0.984S107.371,26.942,107.906,26.942z M104.938,27.942c0.518,0,0.938-0.434,0.938-0.969
			s-0.42-0.969-0.938-0.969S104,26.438,104,26.974S104.42,27.942,104.938,27.942z M102.906,30.005c0.569,0,1.031-0.462,1.031-1.031
			s-0.462-1.031-1.031-1.031s-1.031,0.462-1.031,1.031S102.337,30.005,102.906,30.005z M101.406,31.067
			c-0.293,0-0.531,0.238-0.531,0.531s0.238,0.531,0.531,0.531s0.531-0.238,0.531-0.531S101.699,31.067,101.406,31.067z
			 M119.915,21.933c-0.923-0.38-3.526-0.706-3.526,1.845c0,2.55,2.348,4.201,2.564,6.642c0.217,2.442-2.963,3.588-2.963,6.897
			c0,3.311,3.87,3.684,3.87,3.684c4.286,0,3.744-5.697,4.232-7.705c0.542-2.116,1.845-2.442,1.845-4.395s-0.76-2.604-1.41-3.581
			C123.875,24.343,120.838,22.312,119.915,21.933z M117.003,20.988c0.573,0,0.997-0.689,0.997-1.539c0-0.85-0.424-1.444-0.997-1.444
			s-1.038,0.594-1.038,1.444C115.965,20.299,116.43,20.988,117.003,20.988z M119.969,20.942c0.535,0,0.969-0.441,0.969-0.984
			s-0.434-0.984-0.969-0.984S119,19.415,119,19.958S119.434,20.942,119.969,20.942z M122.938,21.942
			c0.518,0,0.938-0.434,0.938-0.969s-0.42-0.969-0.938-0.969S122,20.438,122,20.974S122.42,21.942,122.938,21.942z M124.969,24.005
			c0.57,0,1.031-0.462,1.031-1.031s-0.461-1.031-1.031-1.031c-0.569,0-1.031,0.462-1.031,1.031S124.399,24.005,124.969,24.005z
			 M126.469,25.067c-0.293,0-0.531,0.238-0.531,0.531s0.238,0.531,0.531,0.531S127,25.892,127,25.599S126.762,25.067,126.469,25.067
			z"/>
	</g>
</g>
</svg>
