<?xml version="1.0" encoding="utf-8"?>
<!-- Generator: Adobe Illustrator 15.0.0, SVG Export Plug-In . SVG Version: 6.00 Build 0)  -->
<!DOCTYPE svg PUBLIC "-//W3C//DTD SVG 1.1//EN" "../../../../www.w3.org/Graphics/SVG/1.1/DTD/svg11.dtd">
<svg version="1.1" id="Layer_1" xmlns="http://www.w3.org/2000/svg" xmlns:xlink="../../../../www.w3.org/1999/xlink" x="0px" y="0px"
	 width="144px" height="66px" viewBox="0 0 144 66" enable-background="new 0 0 144 66" xml:space="preserve">
<g>
	<g>
		<path fill-rule="evenodd" clip-rule="evenodd" fill="#282828" d="M34,18h-1.938v4c0,0,1.938,0.125,1.938,2l-0.001,4
			c0,0-0.125,2.062-2,2.062l0.01,1.943L30.938,32v-1.938c0,0-2-0.062-2-2v-4.125c0,0,0.25-2,2-2V18H29c-3.866,0-7,3.134-7,7v14
			c0,3.866,3.134,7,7,7h5c3.866,0,7-3.134,7-7V25C41,21.134,37.866,18,34,18z M30,24v4c0,0.553,0.447,1,1,1h1c0.553,0,1-0.447,1-1
			v-4c0-0.552-0.447-1-1-1h-1C30.447,23,30,23.448,30,24z"/>
	</g>
</g>
<g>
	<g>
		<path fill-rule="evenodd" clip-rule="evenodd" fill="#FFFFFF" d="M116,18h-1.938v4c0,0,1.938,0.125,1.938,2l-0.001,4
			c0,0-0.125,2.062-2,2.062l0.01,1.943L112.938,32v-1.938c0,0-2-0.062-2-2v-4.125c0,0,0.25-2,2-2V18H111c-3.866,0-7,3.134-7,7v14
			c0,3.866,3.134,7,7,7h5c3.866,0,7-3.134,7-7V25C123,21.134,119.866,18,116,18z M112,24v4c0,0.553,0.447,1,1,1h1
			c0.553,0,1-0.447,1-1v-4c0-0.552-0.447-1-1-1h-1C112.447,23,112,23.448,112,24z"/>
	</g>
</g>
</svg>
