<?xml version="1.0" encoding="utf-8"?>
<!-- Generator: Adobe Illustrator 15.0.0, SVG Export Plug-In . SVG Version: 6.00 Build 0)  -->
<!DOCTYPE svg PUBLIC "-//W3C//DTD SVG 1.1//EN" "../../../www.w3.org/Graphics/SVG/1.1/DTD/svg11.dtd">
<svg version="1.1" id="Layer_1" xmlns="http://www.w3.org/2000/svg" xmlns:xlink="../../../www.w3.org/1999/xlink" x="0px" y="0px"
	 width="162.922px" height="96.641px" viewBox="0 0 162.922 96.641" enable-background="new 0 0 162.922 96.641"
	 xml:space="preserve">
<polygon fill="#2062AF" points="155.596,88.135 127.732,95.85 99.762,88.529 92.827,18.641 161.548,18.641 "/>
<polygon fill="#438CCA" points="127.922,23.641 127.922,89.641 150.302,83.627 155.098,23.641 "/>
<g>
	<polygon points="111.27,8.396 111.24,4.242 117.302,4.199 117.27,-0.347 106.663,-0.272 106.753,12.576 117.359,12.501 
		117.331,8.353 	"/>
	<path d="M128.205,4.122l4.236-0.03l-0.031-4.167L121.802,0c0,0,0.017,1.902,0.032,4.167c1.43,1.409,2.174,2.083,4.241,4.122
		c-1.2,0.008-4.212,0.032-4.212,0.032l0.029,4.148l10.607-0.075l-0.029-4.147L128.205,4.122z"/>
	<path d="M143.238,4.016l4.238-0.03l-0.033-4.167l-10.607,0.075c0,0,0.016,1.903,0.032,4.167c1.429,1.409,2.174,2.083,4.241,4.121
		c-1.199,0.009-4.211,0.034-4.211,0.033l0.028,4.146l10.608-0.074l-0.029-4.148L143.238,4.016z"/>
</g>
<polygon fill="#FFFFFF" points="148.662,32.641 147.922,41.64 127.922,41.64 127.922,32.641 "/>
<polygon fill="#FFFFFF" points="147.922,41.64 127.922,49.43 127.922,33.64 "/>
<polygon fill="#FFFFFF" points="147.212,49.641 145.122,75.98 127.922,81.129 127.922,71.9 137.212,69.22 137.792,57.64 
	127.922,57.64 127.922,49.641 "/>
<g>
	<polygon fill="#EBEBEB" points="127.922,71.9 127.922,81.129 127.632,81.22 109.982,76.13 108.752,62.641 117.462,62.641 
		118.082,69.73 127.473,72.03 	"/>
	<polygon fill="#EBEBEB" points="127.922,49.641 127.922,57.641 108.152,57.641 107.432,49.641 	"/>
	<polygon fill="#EBEBEB" points="127.922,41.641 127.922,56.641 107.432,49.64 107.402,49.64 127.322,41.64 	"/>
	<polygon fill="#EBEBEB" points="127.922,32.641 127.922,41.64 127.322,41.64 106.582,41.64 105.711,32.641 	"/>
</g>
<polygon fill="#E44F26" points="6.196,88.131 0,18.641 68.091,18.641 61.888,88.121 34.003,95.851 "/>
<polygon fill="#F1662A" points="34.046,89.942 56.577,83.696 61.878,23.641 34.046,23.641 "/>
<polygon fill="#EBEBEB" points="34.046,49.821 22.766,49.821 21.986,41.821 34.046,41.821 34.046,32.821 12.671,32.835 
	12.875,35.123 14.961,58.821 34.046,58.821 "/>
<polygon fill="#EBEBEB" points="33.961,72.821 24.515,69.674 23.908,62.875 19.294,62.875 15.35,62.875 16.544,76.259 
	33.961,81.821 "/>
<path fill="#010101" d="M6.334-0.26h4.333V4.02h3.962V-0.26h4.333v13.717h-4.333V8.361h-3.962v5.097H6.335L6.334-0.26L6.334-0.26z"
	/>
<path fill="#010101" d="M24.658,4.038h-3.814V-0.26h11.962v4.298h-3.815v9.419h-4.332L24.658,4.038L24.658,4.038z"/>
<path fill="#010101" d="M34.705-0.26h4.516L42,4.294l2.775-4.554h4.52v13.717H44.98V6.277L42,11.641h-0.075l-2.982-5.364v7.181
	h-4.239L34.705-0.26L34.705-0.26z"/>
<path fill="#010101" d="M51.451-0.26h4.333v8.677h6.092v5.04H51.451V-0.26z"/>
<polygon fill="#FFFFFF" points="33.961,49.821 33.961,58.792 44.458,58.792 43.468,69.848 33.961,72.821 33.961,81.821 
	51.436,76.439 51.565,74.998 53.568,52.558 53.776,49.821 "/>
<polygon fill="#FFFFFF" points="34.016,32.821 34.016,38.31 34.016,41.821 54.579,41.821 54.579,41.539 54.606,41.539 
	54.777,39.623 55.166,35.303 55.37,32.821 "/>
<g>
	<path d="M77.922,63.641v-7h-7v-5.909h7v-7.091h5.977v7.091l7.023-0.091v6h-7v7H77.922z"/>
</g>
</svg>
