<?xml version="1.0" encoding="utf-8"?>
<!-- Generator: Adobe Illustrator 15.0.0, SVG Export Plug-In . SVG Version: 6.00 Build 0)  -->
<!DOCTYPE svg PUBLIC "-//W3C//DTD SVG 1.1//EN" "../../../www.w3.org/Graphics/SVG/1.1/DTD/svg11.dtd">
<svg version="1.1" id="Layer_1" xmlns="http://www.w3.org/2000/svg" xmlns:xlink="../../../www.w3.org/1999/xlink" x="0px" y="0px"
	 width="123px" height="28px" viewBox="0 0 123 28" enable-background="new 0 0 123 28" xml:space="preserve">
<g>
	<g>
		<path fill="#323232" d="M6.536,4.998H18V0H0v28h6.536V17.109H15v-5.018H6.536V4.998z M27.988,0L17.146,28h5.075
			c0.539,0,0.993-0.136,1.365-0.424c0.372-0.289,0.622-0.612,0.75-0.971l1.653-4.883h10.649l1.653,4.883
			c0.141,0.41,0.395,0.747,0.76,1.009C39.416,27.876,39.88,28,40.444,28h5.036L34.639,0H27.988z M27.488,17.301l2.576-7.632
			c0.192-0.487,0.397-1.063,0.615-1.73c0.218-0.666,0.429-1.391,0.635-2.172c0.218,0.769,0.438,1.483,0.663,2.144
			c0.224,0.66,0.419,1.233,0.586,1.72l2.576,7.67H27.488z M63.145,0.433c-0.372,0.289-0.622,0.612-0.75,0.971l-5.382,14.995
			c-0.23,0.653-0.465,1.364-0.702,2.133c-0.237,0.77-0.445,1.577-0.625,2.423c-0.218-0.846-0.452-1.653-0.702-2.423
			c-0.25-0.769-0.497-1.479-0.74-2.133L48.824,1.403c-0.154-0.422-0.41-0.762-0.769-1.019S47.234,0,46.671,0h-5.229l11.226,28h5.882
			L69.777,0h-5.268C63.971,0,63.516,0.145,63.145,0.433z M73.083,28h18.032v-4.99H79.619v-6.671h8.805v-4.805h-8.805V4.998h11.496V0
			H73.083V28z M111.029,0h-6.65L93.537,28h5.074c0.539,0,0.994-0.136,1.365-0.424c0.371-0.289,0.621-0.612,0.75-0.971l1.652-4.883
			h10.65l1.652,4.883c0.141,0.41,0.395,0.747,0.76,1.009c0.365,0.263,0.83,0.386,1.393,0.386h5.037L111.029,0z M103.879,17.301
			l2.576-7.632c0.191-0.487,0.396-1.063,0.615-1.73c0.217-0.666,0.428-1.391,0.633-2.172c0.219,0.769,0.439,1.483,0.664,2.144
			c0.225,0.66,0.42,1.233,0.586,1.72l2.576,7.67H103.879z"/>
	</g>
</g>
</svg>
